G04 #@! TF.GenerationSoftware,KiCad,Pcbnew,5.0.2-bee76a0~70~ubuntu16.04.1*
G04 #@! TF.CreationDate,2019-07-30T14:22:58+02:00*
G04 #@! TF.ProjectId,hw-DAP42,68772d44-4150-4343-922e-6b696361645f,rev?*
G04 #@! TF.SameCoordinates,Original*
G04 #@! TF.FileFunction,Soldermask,Bot*
G04 #@! TF.FilePolarity,Negative*
%FSLAX46Y46*%
G04 Gerber Fmt 4.6, Leading zero omitted, Abs format (unit mm)*
G04 Created by KiCad (PCBNEW 5.0.2-bee76a0~70~ubuntu16.04.1) date Tue 30 Jul 2019 02:22:58 PM CEST*
%MOMM*%
%LPD*%
G01*
G04 APERTURE LIST*
%ADD10C,0.100000*%
G04 APERTURE END LIST*
D10*
G36*
X157082142Y-94468242D02*
X157230102Y-94529530D01*
X157297130Y-94574317D01*
X157363257Y-94618501D01*
X157476499Y-94731743D01*
X157477191Y-94732779D01*
X157565470Y-94864898D01*
X157626758Y-95012858D01*
X157658000Y-95169925D01*
X157658000Y-95330075D01*
X157626758Y-95487142D01*
X157565470Y-95635102D01*
X157476498Y-95768258D01*
X157363258Y-95881498D01*
X157230102Y-95970470D01*
X157082142Y-96031758D01*
X156925075Y-96063000D01*
X156764925Y-96063000D01*
X156607858Y-96031758D01*
X156459898Y-95970470D01*
X156326742Y-95881498D01*
X156213502Y-95768258D01*
X156124530Y-95635102D01*
X156063242Y-95487142D01*
X156032000Y-95330075D01*
X156032000Y-95169925D01*
X156063242Y-95012858D01*
X156124530Y-94864898D01*
X156212809Y-94732779D01*
X156213501Y-94731743D01*
X156326743Y-94618501D01*
X156392870Y-94574317D01*
X156459898Y-94529530D01*
X156607858Y-94468242D01*
X156764925Y-94437000D01*
X156925075Y-94437000D01*
X157082142Y-94468242D01*
X157082142Y-94468242D01*
G37*
G36*
X152002142Y-94468242D02*
X152150102Y-94529530D01*
X152217130Y-94574317D01*
X152283257Y-94618501D01*
X152396499Y-94731743D01*
X152397191Y-94732779D01*
X152485470Y-94864898D01*
X152546758Y-95012858D01*
X152578000Y-95169925D01*
X152578000Y-95330075D01*
X152546758Y-95487142D01*
X152485470Y-95635102D01*
X152396498Y-95768258D01*
X152283258Y-95881498D01*
X152150102Y-95970470D01*
X152002142Y-96031758D01*
X151845075Y-96063000D01*
X151684925Y-96063000D01*
X151527858Y-96031758D01*
X151379898Y-95970470D01*
X151246742Y-95881498D01*
X151133502Y-95768258D01*
X151044530Y-95635102D01*
X150983242Y-95487142D01*
X150952000Y-95330075D01*
X150952000Y-95169925D01*
X150983242Y-95012858D01*
X151044530Y-94864898D01*
X151132809Y-94732779D01*
X151133501Y-94731743D01*
X151246743Y-94618501D01*
X151312870Y-94574317D01*
X151379898Y-94529530D01*
X151527858Y-94468242D01*
X151684925Y-94437000D01*
X151845075Y-94437000D01*
X152002142Y-94468242D01*
X152002142Y-94468242D01*
G37*
G36*
X154542142Y-94468242D02*
X154690102Y-94529530D01*
X154757130Y-94574317D01*
X154823257Y-94618501D01*
X154936499Y-94731743D01*
X154937191Y-94732779D01*
X155025470Y-94864898D01*
X155086758Y-95012858D01*
X155118000Y-95169925D01*
X155118000Y-95330075D01*
X155086758Y-95487142D01*
X155025470Y-95635102D01*
X154936498Y-95768258D01*
X154823258Y-95881498D01*
X154690102Y-95970470D01*
X154542142Y-96031758D01*
X154385075Y-96063000D01*
X154224925Y-96063000D01*
X154067858Y-96031758D01*
X153919898Y-95970470D01*
X153786742Y-95881498D01*
X153673502Y-95768258D01*
X153584530Y-95635102D01*
X153523242Y-95487142D01*
X153492000Y-95330075D01*
X153492000Y-95169925D01*
X153523242Y-95012858D01*
X153584530Y-94864898D01*
X153672809Y-94732779D01*
X153673501Y-94731743D01*
X153786743Y-94618501D01*
X153852870Y-94574317D01*
X153919898Y-94529530D01*
X154067858Y-94468242D01*
X154224925Y-94437000D01*
X154385075Y-94437000D01*
X154542142Y-94468242D01*
X154542142Y-94468242D01*
G37*
G36*
X165210443Y-93085519D02*
X165276627Y-93092037D01*
X165389853Y-93126384D01*
X165446467Y-93143557D01*
X165536628Y-93191750D01*
X165602991Y-93227222D01*
X165628445Y-93248112D01*
X165740186Y-93339814D01*
X165810630Y-93425652D01*
X165852778Y-93477009D01*
X165852779Y-93477011D01*
X165936443Y-93633533D01*
X165936443Y-93633534D01*
X165987963Y-93803373D01*
X166005359Y-93980000D01*
X165987963Y-94156627D01*
X165953616Y-94269853D01*
X165936443Y-94326467D01*
X165877361Y-94437000D01*
X165852778Y-94482991D01*
X165823448Y-94518729D01*
X165740186Y-94620186D01*
X165638729Y-94703448D01*
X165602991Y-94732778D01*
X165602989Y-94732779D01*
X165446467Y-94816443D01*
X165389853Y-94833616D01*
X165276627Y-94867963D01*
X165210443Y-94874481D01*
X165144260Y-94881000D01*
X165055740Y-94881000D01*
X164989557Y-94874481D01*
X164923373Y-94867963D01*
X164810147Y-94833616D01*
X164753533Y-94816443D01*
X164597011Y-94732779D01*
X164597009Y-94732778D01*
X164561271Y-94703448D01*
X164459814Y-94620186D01*
X164376552Y-94518729D01*
X164347222Y-94482991D01*
X164322639Y-94437000D01*
X164263557Y-94326467D01*
X164246384Y-94269853D01*
X164212037Y-94156627D01*
X164194641Y-93980000D01*
X164212037Y-93803373D01*
X164263557Y-93633534D01*
X164263557Y-93633533D01*
X164347221Y-93477011D01*
X164347222Y-93477009D01*
X164389370Y-93425652D01*
X164459814Y-93339814D01*
X164571555Y-93248112D01*
X164597009Y-93227222D01*
X164663372Y-93191750D01*
X164753533Y-93143557D01*
X164810147Y-93126384D01*
X164923373Y-93092037D01*
X164989557Y-93085519D01*
X165055740Y-93079000D01*
X165144260Y-93079000D01*
X165210443Y-93085519D01*
X165210443Y-93085519D01*
G37*
G36*
X146754466Y-91963565D02*
X146793137Y-91975296D01*
X146828779Y-91994348D01*
X146860017Y-92019983D01*
X146885652Y-92051221D01*
X146904704Y-92086863D01*
X146916435Y-92125534D01*
X146921000Y-92171888D01*
X146921000Y-93248112D01*
X146916435Y-93294466D01*
X146904704Y-93333137D01*
X146885652Y-93368779D01*
X146860017Y-93400017D01*
X146828779Y-93425652D01*
X146793137Y-93444704D01*
X146754466Y-93456435D01*
X146708112Y-93461000D01*
X146056888Y-93461000D01*
X146010534Y-93456435D01*
X145971863Y-93444704D01*
X145936221Y-93425652D01*
X145904983Y-93400017D01*
X145879348Y-93368779D01*
X145860296Y-93333137D01*
X145848565Y-93294466D01*
X145844000Y-93248112D01*
X145844000Y-92171888D01*
X145848565Y-92125534D01*
X145860296Y-92086863D01*
X145879348Y-92051221D01*
X145904983Y-92019983D01*
X145936221Y-91994348D01*
X145971863Y-91975296D01*
X146010534Y-91963565D01*
X146056888Y-91959000D01*
X146708112Y-91959000D01*
X146754466Y-91963565D01*
X146754466Y-91963565D01*
G37*
G36*
X148629466Y-91963565D02*
X148668137Y-91975296D01*
X148703779Y-91994348D01*
X148735017Y-92019983D01*
X148760652Y-92051221D01*
X148779704Y-92086863D01*
X148791435Y-92125534D01*
X148796000Y-92171888D01*
X148796000Y-93248112D01*
X148791435Y-93294466D01*
X148779704Y-93333137D01*
X148760652Y-93368779D01*
X148735017Y-93400017D01*
X148703779Y-93425652D01*
X148668137Y-93444704D01*
X148629466Y-93456435D01*
X148583112Y-93461000D01*
X147931888Y-93461000D01*
X147885534Y-93456435D01*
X147846863Y-93444704D01*
X147811221Y-93425652D01*
X147779983Y-93400017D01*
X147754348Y-93368779D01*
X147735296Y-93333137D01*
X147723565Y-93294466D01*
X147719000Y-93248112D01*
X147719000Y-92171888D01*
X147723565Y-92125534D01*
X147735296Y-92086863D01*
X147754348Y-92051221D01*
X147779983Y-92019983D01*
X147811221Y-91994348D01*
X147846863Y-91975296D01*
X147885534Y-91963565D01*
X147931888Y-91959000D01*
X148583112Y-91959000D01*
X148629466Y-91963565D01*
X148629466Y-91963565D01*
G37*
G36*
X165210443Y-90545519D02*
X165276627Y-90552037D01*
X165383080Y-90584329D01*
X165446467Y-90603557D01*
X165563632Y-90666184D01*
X165602991Y-90687222D01*
X165638729Y-90716552D01*
X165740186Y-90799814D01*
X165823448Y-90901271D01*
X165852778Y-90937009D01*
X165852779Y-90937011D01*
X165936443Y-91093533D01*
X165936443Y-91093534D01*
X165987963Y-91263373D01*
X166005359Y-91440000D01*
X165987963Y-91616627D01*
X165953616Y-91729853D01*
X165936443Y-91786467D01*
X165862348Y-91925087D01*
X165852778Y-91942991D01*
X165835893Y-91963565D01*
X165740186Y-92080186D01*
X165638729Y-92163448D01*
X165602991Y-92192778D01*
X165602989Y-92192779D01*
X165446467Y-92276443D01*
X165389853Y-92293616D01*
X165276627Y-92327963D01*
X165210443Y-92334481D01*
X165144260Y-92341000D01*
X165055740Y-92341000D01*
X164989557Y-92334481D01*
X164923373Y-92327963D01*
X164810147Y-92293616D01*
X164753533Y-92276443D01*
X164597011Y-92192779D01*
X164597009Y-92192778D01*
X164561271Y-92163448D01*
X164459814Y-92080186D01*
X164364107Y-91963565D01*
X164347222Y-91942991D01*
X164337652Y-91925087D01*
X164263557Y-91786467D01*
X164246384Y-91729853D01*
X164212037Y-91616627D01*
X164194641Y-91440000D01*
X164212037Y-91263373D01*
X164263557Y-91093534D01*
X164263557Y-91093533D01*
X164347221Y-90937011D01*
X164347222Y-90937009D01*
X164376552Y-90901271D01*
X164459814Y-90799814D01*
X164561271Y-90716552D01*
X164597009Y-90687222D01*
X164636368Y-90666184D01*
X164753533Y-90603557D01*
X164816920Y-90584329D01*
X164923373Y-90552037D01*
X164989558Y-90545518D01*
X165055740Y-90539000D01*
X165144260Y-90539000D01*
X165210443Y-90545519D01*
X165210443Y-90545519D01*
G37*
G36*
X162670443Y-90545519D02*
X162736627Y-90552037D01*
X162843080Y-90584329D01*
X162906467Y-90603557D01*
X163023632Y-90666184D01*
X163062991Y-90687222D01*
X163098729Y-90716552D01*
X163200186Y-90799814D01*
X163283448Y-90901271D01*
X163312778Y-90937009D01*
X163312779Y-90937011D01*
X163396443Y-91093533D01*
X163396443Y-91093534D01*
X163447963Y-91263373D01*
X163465359Y-91440000D01*
X163447963Y-91616627D01*
X163413616Y-91729853D01*
X163396443Y-91786467D01*
X163322348Y-91925087D01*
X163312778Y-91942991D01*
X163295893Y-91963565D01*
X163200186Y-92080186D01*
X163098729Y-92163448D01*
X163062991Y-92192778D01*
X163062989Y-92192779D01*
X162906467Y-92276443D01*
X162849853Y-92293616D01*
X162736627Y-92327963D01*
X162670443Y-92334481D01*
X162604260Y-92341000D01*
X162515740Y-92341000D01*
X162449557Y-92334481D01*
X162383373Y-92327963D01*
X162270147Y-92293616D01*
X162213533Y-92276443D01*
X162057011Y-92192779D01*
X162057009Y-92192778D01*
X162021271Y-92163448D01*
X161919814Y-92080186D01*
X161824107Y-91963565D01*
X161807222Y-91942991D01*
X161797652Y-91925087D01*
X161723557Y-91786467D01*
X161706384Y-91729853D01*
X161672037Y-91616627D01*
X161654641Y-91440000D01*
X161672037Y-91263373D01*
X161723557Y-91093534D01*
X161723557Y-91093533D01*
X161807221Y-90937011D01*
X161807222Y-90937009D01*
X161836552Y-90901271D01*
X161919814Y-90799814D01*
X162021271Y-90716552D01*
X162057009Y-90687222D01*
X162096368Y-90666184D01*
X162213533Y-90603557D01*
X162276920Y-90584329D01*
X162383373Y-90552037D01*
X162449558Y-90545518D01*
X162515740Y-90539000D01*
X162604260Y-90539000D01*
X162670443Y-90545519D01*
X162670443Y-90545519D01*
G37*
G36*
X140707496Y-90364885D02*
X140789351Y-90398790D01*
X140862523Y-90447682D01*
X140863021Y-90448015D01*
X140925665Y-90510659D01*
X140925667Y-90510662D01*
X140974890Y-90584329D01*
X141008795Y-90666184D01*
X141026080Y-90753081D01*
X141026080Y-90841679D01*
X141008795Y-90928576D01*
X140974890Y-91010431D01*
X140925998Y-91083603D01*
X140925665Y-91084101D01*
X140863021Y-91146745D01*
X140863018Y-91146747D01*
X140789351Y-91195970D01*
X140707496Y-91229875D01*
X140620599Y-91247160D01*
X140532001Y-91247160D01*
X140445104Y-91229875D01*
X140363249Y-91195970D01*
X140289582Y-91146747D01*
X140289579Y-91146745D01*
X140226935Y-91084101D01*
X140226602Y-91083603D01*
X140177710Y-91010431D01*
X140143805Y-90928576D01*
X140126520Y-90841679D01*
X140126520Y-90753081D01*
X140143805Y-90666184D01*
X140177710Y-90584329D01*
X140226933Y-90510662D01*
X140226935Y-90510659D01*
X140289579Y-90448015D01*
X140290077Y-90447682D01*
X140363249Y-90398790D01*
X140445104Y-90364885D01*
X140532001Y-90347600D01*
X140620599Y-90347600D01*
X140707496Y-90364885D01*
X140707496Y-90364885D01*
G37*
G36*
X162670443Y-88005519D02*
X162736627Y-88012037D01*
X162849853Y-88046384D01*
X162906467Y-88063557D01*
X163045087Y-88137652D01*
X163062991Y-88147222D01*
X163098729Y-88176552D01*
X163200186Y-88259814D01*
X163283448Y-88361271D01*
X163312778Y-88397009D01*
X163312779Y-88397011D01*
X163396443Y-88553533D01*
X163396443Y-88553534D01*
X163447963Y-88723373D01*
X163465359Y-88900000D01*
X163447963Y-89076627D01*
X163413616Y-89189853D01*
X163396443Y-89246467D01*
X163324132Y-89381750D01*
X163312778Y-89402991D01*
X163287101Y-89434278D01*
X163200186Y-89540186D01*
X163108229Y-89615652D01*
X163062991Y-89652778D01*
X163062989Y-89652779D01*
X162906467Y-89736443D01*
X162849853Y-89753616D01*
X162736627Y-89787963D01*
X162670443Y-89794481D01*
X162604260Y-89801000D01*
X162515740Y-89801000D01*
X162449557Y-89794481D01*
X162383373Y-89787963D01*
X162270147Y-89753616D01*
X162213533Y-89736443D01*
X162057011Y-89652779D01*
X162057009Y-89652778D01*
X162011771Y-89615652D01*
X161919814Y-89540186D01*
X161832899Y-89434278D01*
X161807222Y-89402991D01*
X161795868Y-89381750D01*
X161723557Y-89246467D01*
X161706384Y-89189853D01*
X161672037Y-89076627D01*
X161654641Y-88900000D01*
X161672037Y-88723373D01*
X161723557Y-88553534D01*
X161723557Y-88553533D01*
X161807221Y-88397011D01*
X161807222Y-88397009D01*
X161836552Y-88361271D01*
X161919814Y-88259814D01*
X162021271Y-88176552D01*
X162057009Y-88147222D01*
X162074913Y-88137652D01*
X162213533Y-88063557D01*
X162270147Y-88046384D01*
X162383373Y-88012037D01*
X162449557Y-88005519D01*
X162515740Y-87999000D01*
X162604260Y-87999000D01*
X162670443Y-88005519D01*
X162670443Y-88005519D01*
G37*
G36*
X165210443Y-88005519D02*
X165276627Y-88012037D01*
X165389853Y-88046384D01*
X165446467Y-88063557D01*
X165585087Y-88137652D01*
X165602991Y-88147222D01*
X165638729Y-88176552D01*
X165740186Y-88259814D01*
X165823448Y-88361271D01*
X165852778Y-88397009D01*
X165852779Y-88397011D01*
X165936443Y-88553533D01*
X165936443Y-88553534D01*
X165987963Y-88723373D01*
X166005359Y-88900000D01*
X165987963Y-89076627D01*
X165953616Y-89189853D01*
X165936443Y-89246467D01*
X165864132Y-89381750D01*
X165852778Y-89402991D01*
X165827101Y-89434278D01*
X165740186Y-89540186D01*
X165648229Y-89615652D01*
X165602991Y-89652778D01*
X165602989Y-89652779D01*
X165446467Y-89736443D01*
X165389853Y-89753616D01*
X165276627Y-89787963D01*
X165210443Y-89794481D01*
X165144260Y-89801000D01*
X165055740Y-89801000D01*
X164989557Y-89794481D01*
X164923373Y-89787963D01*
X164810147Y-89753616D01*
X164753533Y-89736443D01*
X164597011Y-89652779D01*
X164597009Y-89652778D01*
X164551771Y-89615652D01*
X164459814Y-89540186D01*
X164372899Y-89434278D01*
X164347222Y-89402991D01*
X164335868Y-89381750D01*
X164263557Y-89246467D01*
X164246384Y-89189853D01*
X164212037Y-89076627D01*
X164194641Y-88900000D01*
X164212037Y-88723373D01*
X164263557Y-88553534D01*
X164263557Y-88553533D01*
X164347221Y-88397011D01*
X164347222Y-88397009D01*
X164376552Y-88361271D01*
X164459814Y-88259814D01*
X164561271Y-88176552D01*
X164597009Y-88147222D01*
X164614913Y-88137652D01*
X164753533Y-88063557D01*
X164810147Y-88046384D01*
X164923373Y-88012037D01*
X164989557Y-88005519D01*
X165055740Y-87999000D01*
X165144260Y-87999000D01*
X165210443Y-88005519D01*
X165210443Y-88005519D01*
G37*
G36*
X148629466Y-88153565D02*
X148668137Y-88165296D01*
X148703779Y-88184348D01*
X148735017Y-88209983D01*
X148760652Y-88241221D01*
X148779704Y-88276863D01*
X148791435Y-88315534D01*
X148796000Y-88361888D01*
X148796000Y-89438112D01*
X148791435Y-89484466D01*
X148779704Y-89523137D01*
X148760652Y-89558779D01*
X148735017Y-89590017D01*
X148703779Y-89615652D01*
X148668137Y-89634704D01*
X148629466Y-89646435D01*
X148583112Y-89651000D01*
X147931888Y-89651000D01*
X147885534Y-89646435D01*
X147846863Y-89634704D01*
X147811221Y-89615652D01*
X147779983Y-89590017D01*
X147754348Y-89558779D01*
X147735296Y-89523137D01*
X147723565Y-89484466D01*
X147719000Y-89438112D01*
X147719000Y-88361888D01*
X147723565Y-88315534D01*
X147735296Y-88276863D01*
X147754348Y-88241221D01*
X147779983Y-88209983D01*
X147811221Y-88184348D01*
X147846863Y-88165296D01*
X147885534Y-88153565D01*
X147931888Y-88149000D01*
X148583112Y-88149000D01*
X148629466Y-88153565D01*
X148629466Y-88153565D01*
G37*
G36*
X146754466Y-88153565D02*
X146793137Y-88165296D01*
X146828779Y-88184348D01*
X146860017Y-88209983D01*
X146885652Y-88241221D01*
X146904704Y-88276863D01*
X146916435Y-88315534D01*
X146921000Y-88361888D01*
X146921000Y-89438112D01*
X146916435Y-89484466D01*
X146904704Y-89523137D01*
X146885652Y-89558779D01*
X146860017Y-89590017D01*
X146828779Y-89615652D01*
X146793137Y-89634704D01*
X146754466Y-89646435D01*
X146708112Y-89651000D01*
X146056888Y-89651000D01*
X146010534Y-89646435D01*
X145971863Y-89634704D01*
X145936221Y-89615652D01*
X145904983Y-89590017D01*
X145879348Y-89558779D01*
X145860296Y-89523137D01*
X145848565Y-89484466D01*
X145844000Y-89438112D01*
X145844000Y-88361888D01*
X145848565Y-88315534D01*
X145860296Y-88276863D01*
X145879348Y-88241221D01*
X145904983Y-88209983D01*
X145936221Y-88184348D01*
X145971863Y-88165296D01*
X146010534Y-88153565D01*
X146056888Y-88149000D01*
X146708112Y-88149000D01*
X146754466Y-88153565D01*
X146754466Y-88153565D01*
G37*
G36*
X140710036Y-86567585D02*
X140791891Y-86601490D01*
X140865063Y-86650382D01*
X140865561Y-86650715D01*
X140928205Y-86713359D01*
X140928207Y-86713362D01*
X140977430Y-86787029D01*
X141011335Y-86868884D01*
X141028620Y-86955781D01*
X141028620Y-87044379D01*
X141011335Y-87131276D01*
X140977430Y-87213131D01*
X140954156Y-87247963D01*
X140928205Y-87286801D01*
X140865561Y-87349445D01*
X140865558Y-87349447D01*
X140791891Y-87398670D01*
X140710036Y-87432575D01*
X140623139Y-87449860D01*
X140534541Y-87449860D01*
X140447644Y-87432575D01*
X140365789Y-87398670D01*
X140292122Y-87349447D01*
X140292119Y-87349445D01*
X140229475Y-87286801D01*
X140203524Y-87247963D01*
X140180250Y-87213131D01*
X140146345Y-87131276D01*
X140129060Y-87044379D01*
X140129060Y-86955781D01*
X140146345Y-86868884D01*
X140180250Y-86787029D01*
X140229473Y-86713362D01*
X140229475Y-86713359D01*
X140292119Y-86650715D01*
X140292617Y-86650382D01*
X140365789Y-86601490D01*
X140447644Y-86567585D01*
X140534541Y-86550300D01*
X140623139Y-86550300D01*
X140710036Y-86567585D01*
X140710036Y-86567585D01*
G37*
G36*
X165210442Y-85465518D02*
X165276627Y-85472037D01*
X165389853Y-85506384D01*
X165446467Y-85523557D01*
X165536628Y-85571750D01*
X165602991Y-85607222D01*
X165628445Y-85628112D01*
X165740186Y-85719814D01*
X165810630Y-85805652D01*
X165852778Y-85857009D01*
X165852779Y-85857011D01*
X165936443Y-86013533D01*
X165936443Y-86013534D01*
X165987963Y-86183373D01*
X166005359Y-86360000D01*
X165987963Y-86536627D01*
X165983815Y-86550300D01*
X165936443Y-86706467D01*
X165862348Y-86845087D01*
X165852778Y-86862991D01*
X165823448Y-86898729D01*
X165740186Y-87000186D01*
X165638729Y-87083448D01*
X165602991Y-87112778D01*
X165602989Y-87112779D01*
X165446467Y-87196443D01*
X165391456Y-87213130D01*
X165276627Y-87247963D01*
X165210442Y-87254482D01*
X165144260Y-87261000D01*
X165055740Y-87261000D01*
X164989558Y-87254482D01*
X164923373Y-87247963D01*
X164808544Y-87213130D01*
X164753533Y-87196443D01*
X164597011Y-87112779D01*
X164597009Y-87112778D01*
X164561271Y-87083448D01*
X164459814Y-87000186D01*
X164376552Y-86898729D01*
X164347222Y-86862991D01*
X164337652Y-86845087D01*
X164263557Y-86706467D01*
X164216185Y-86550300D01*
X164212037Y-86536627D01*
X164194641Y-86360000D01*
X164212037Y-86183373D01*
X164263557Y-86013534D01*
X164263557Y-86013533D01*
X164347221Y-85857011D01*
X164347222Y-85857009D01*
X164389370Y-85805652D01*
X164459814Y-85719814D01*
X164571555Y-85628112D01*
X164597009Y-85607222D01*
X164663372Y-85571750D01*
X164753533Y-85523557D01*
X164810147Y-85506384D01*
X164923373Y-85472037D01*
X164989558Y-85465518D01*
X165055740Y-85459000D01*
X165144260Y-85459000D01*
X165210442Y-85465518D01*
X165210442Y-85465518D01*
G37*
G36*
X163461000Y-87261000D02*
X161659000Y-87261000D01*
X161659000Y-85459000D01*
X163461000Y-85459000D01*
X163461000Y-87261000D01*
X163461000Y-87261000D01*
G37*
G36*
X146754466Y-84343565D02*
X146793137Y-84355296D01*
X146828779Y-84374348D01*
X146860017Y-84399983D01*
X146885652Y-84431221D01*
X146904704Y-84466863D01*
X146916435Y-84505534D01*
X146921000Y-84551888D01*
X146921000Y-85628112D01*
X146916435Y-85674466D01*
X146904704Y-85713137D01*
X146885652Y-85748779D01*
X146860017Y-85780017D01*
X146828779Y-85805652D01*
X146793137Y-85824704D01*
X146754466Y-85836435D01*
X146708112Y-85841000D01*
X146056888Y-85841000D01*
X146010534Y-85836435D01*
X145971863Y-85824704D01*
X145936221Y-85805652D01*
X145904983Y-85780017D01*
X145879348Y-85748779D01*
X145860296Y-85713137D01*
X145848565Y-85674466D01*
X145844000Y-85628112D01*
X145844000Y-84551888D01*
X145848565Y-84505534D01*
X145860296Y-84466863D01*
X145879348Y-84431221D01*
X145904983Y-84399983D01*
X145936221Y-84374348D01*
X145971863Y-84355296D01*
X146010534Y-84343565D01*
X146056888Y-84339000D01*
X146708112Y-84339000D01*
X146754466Y-84343565D01*
X146754466Y-84343565D01*
G37*
G36*
X148629466Y-84343565D02*
X148668137Y-84355296D01*
X148703779Y-84374348D01*
X148735017Y-84399983D01*
X148760652Y-84431221D01*
X148779704Y-84466863D01*
X148791435Y-84505534D01*
X148796000Y-84551888D01*
X148796000Y-85628112D01*
X148791435Y-85674466D01*
X148779704Y-85713137D01*
X148760652Y-85748779D01*
X148735017Y-85780017D01*
X148703779Y-85805652D01*
X148668137Y-85824704D01*
X148629466Y-85836435D01*
X148583112Y-85841000D01*
X147931888Y-85841000D01*
X147885534Y-85836435D01*
X147846863Y-85824704D01*
X147811221Y-85805652D01*
X147779983Y-85780017D01*
X147754348Y-85748779D01*
X147735296Y-85713137D01*
X147723565Y-85674466D01*
X147719000Y-85628112D01*
X147719000Y-84551888D01*
X147723565Y-84505534D01*
X147735296Y-84466863D01*
X147754348Y-84431221D01*
X147779983Y-84399983D01*
X147811221Y-84374348D01*
X147846863Y-84355296D01*
X147885534Y-84343565D01*
X147931888Y-84339000D01*
X148583112Y-84339000D01*
X148629466Y-84343565D01*
X148629466Y-84343565D01*
G37*
G36*
X166001000Y-84721000D02*
X164199000Y-84721000D01*
X164199000Y-82919000D01*
X166001000Y-82919000D01*
X166001000Y-84721000D01*
X166001000Y-84721000D01*
G37*
G36*
X141721000Y-84511000D02*
X140059000Y-84511000D01*
X140059000Y-81859000D01*
X141721000Y-81859000D01*
X141721000Y-84511000D01*
X141721000Y-84511000D01*
G37*
G36*
X144421000Y-84511000D02*
X142759000Y-84511000D01*
X142759000Y-83759000D01*
X144421000Y-83759000D01*
X144421000Y-84511000D01*
X144421000Y-84511000D01*
G37*
G36*
X147389466Y-81803565D02*
X147428137Y-81815296D01*
X147463779Y-81834348D01*
X147495017Y-81859983D01*
X147520652Y-81891221D01*
X147539704Y-81926863D01*
X147551435Y-81965534D01*
X147556000Y-82011888D01*
X147556000Y-83088112D01*
X147551435Y-83134466D01*
X147539704Y-83173137D01*
X147520652Y-83208779D01*
X147495017Y-83240017D01*
X147463779Y-83265652D01*
X147428137Y-83284704D01*
X147389466Y-83296435D01*
X147343112Y-83301000D01*
X146691888Y-83301000D01*
X146645534Y-83296435D01*
X146606863Y-83284704D01*
X146571221Y-83265652D01*
X146539983Y-83240017D01*
X146514348Y-83208779D01*
X146495296Y-83173137D01*
X146483565Y-83134466D01*
X146479000Y-83088112D01*
X146479000Y-82011888D01*
X146483565Y-81965534D01*
X146495296Y-81926863D01*
X146514348Y-81891221D01*
X146539983Y-81859983D01*
X146571221Y-81834348D01*
X146606863Y-81815296D01*
X146645534Y-81803565D01*
X146691888Y-81799000D01*
X147343112Y-81799000D01*
X147389466Y-81803565D01*
X147389466Y-81803565D01*
G37*
G36*
X149264466Y-81803565D02*
X149303137Y-81815296D01*
X149338779Y-81834348D01*
X149370017Y-81859983D01*
X149395652Y-81891221D01*
X149414704Y-81926863D01*
X149426435Y-81965534D01*
X149431000Y-82011888D01*
X149431000Y-83088112D01*
X149426435Y-83134466D01*
X149414704Y-83173137D01*
X149395652Y-83208779D01*
X149370017Y-83240017D01*
X149338779Y-83265652D01*
X149303137Y-83284704D01*
X149264466Y-83296435D01*
X149218112Y-83301000D01*
X148566888Y-83301000D01*
X148520534Y-83296435D01*
X148481863Y-83284704D01*
X148446221Y-83265652D01*
X148414983Y-83240017D01*
X148389348Y-83208779D01*
X148370296Y-83173137D01*
X148358565Y-83134466D01*
X148354000Y-83088112D01*
X148354000Y-82011888D01*
X148358565Y-81965534D01*
X148370296Y-81926863D01*
X148389348Y-81891221D01*
X148414983Y-81859983D01*
X148446221Y-81834348D01*
X148481863Y-81815296D01*
X148520534Y-81803565D01*
X148566888Y-81799000D01*
X149218112Y-81799000D01*
X149264466Y-81803565D01*
X149264466Y-81803565D01*
G37*
G36*
X144421000Y-82611000D02*
X142759000Y-82611000D01*
X142759000Y-81859000D01*
X144421000Y-81859000D01*
X144421000Y-82611000D01*
X144421000Y-82611000D01*
G37*
M02*
