G04 #@! TF.GenerationSoftware,KiCad,Pcbnew,5.0.2-bee76a0~70~ubuntu16.04.1*
G04 #@! TF.CreationDate,2019-07-30T14:22:58+02:00*
G04 #@! TF.ProjectId,hw-DAP42,68772d44-4150-4343-922e-6b696361645f,rev?*
G04 #@! TF.SameCoordinates,Original*
G04 #@! TF.FileFunction,Paste,Top*
G04 #@! TF.FilePolarity,Positive*
%FSLAX46Y46*%
G04 Gerber Fmt 4.6, Leading zero omitted, Abs format (unit mm)*
G04 Created by KiCad (PCBNEW 5.0.2-bee76a0~70~ubuntu16.04.1) date Tue 30 Jul 2019 02:22:58 PM CEST*
%MOMM*%
%LPD*%
G01*
G04 APERTURE LIST*
%ADD10C,0.100000*%
%ADD11C,0.975000*%
%ADD12C,0.136863*%
%ADD13C,0.250000*%
%ADD14C,1.150000*%
%ADD15R,1.897380X1.897380*%
%ADD16R,2.000000X0.398780*%
G04 APERTURE END LIST*
D10*
G04 #@! TO.C,C2*
G36*
X142810142Y-93916174D02*
X142833803Y-93919684D01*
X142857007Y-93925496D01*
X142879529Y-93933554D01*
X142901153Y-93943782D01*
X142921670Y-93956079D01*
X142940883Y-93970329D01*
X142958607Y-93986393D01*
X142974671Y-94004117D01*
X142988921Y-94023330D01*
X143001218Y-94043847D01*
X143011446Y-94065471D01*
X143019504Y-94087993D01*
X143025316Y-94111197D01*
X143028826Y-94134858D01*
X143030000Y-94158750D01*
X143030000Y-95071250D01*
X143028826Y-95095142D01*
X143025316Y-95118803D01*
X143019504Y-95142007D01*
X143011446Y-95164529D01*
X143001218Y-95186153D01*
X142988921Y-95206670D01*
X142974671Y-95225883D01*
X142958607Y-95243607D01*
X142940883Y-95259671D01*
X142921670Y-95273921D01*
X142901153Y-95286218D01*
X142879529Y-95296446D01*
X142857007Y-95304504D01*
X142833803Y-95310316D01*
X142810142Y-95313826D01*
X142786250Y-95315000D01*
X142298750Y-95315000D01*
X142274858Y-95313826D01*
X142251197Y-95310316D01*
X142227993Y-95304504D01*
X142205471Y-95296446D01*
X142183847Y-95286218D01*
X142163330Y-95273921D01*
X142144117Y-95259671D01*
X142126393Y-95243607D01*
X142110329Y-95225883D01*
X142096079Y-95206670D01*
X142083782Y-95186153D01*
X142073554Y-95164529D01*
X142065496Y-95142007D01*
X142059684Y-95118803D01*
X142056174Y-95095142D01*
X142055000Y-95071250D01*
X142055000Y-94158750D01*
X142056174Y-94134858D01*
X142059684Y-94111197D01*
X142065496Y-94087993D01*
X142073554Y-94065471D01*
X142083782Y-94043847D01*
X142096079Y-94023330D01*
X142110329Y-94004117D01*
X142126393Y-93986393D01*
X142144117Y-93970329D01*
X142163330Y-93956079D01*
X142183847Y-93943782D01*
X142205471Y-93933554D01*
X142227993Y-93925496D01*
X142251197Y-93919684D01*
X142274858Y-93916174D01*
X142298750Y-93915000D01*
X142786250Y-93915000D01*
X142810142Y-93916174D01*
X142810142Y-93916174D01*
G37*
D11*
X142542500Y-94615000D03*
D10*
G36*
X140935142Y-93916174D02*
X140958803Y-93919684D01*
X140982007Y-93925496D01*
X141004529Y-93933554D01*
X141026153Y-93943782D01*
X141046670Y-93956079D01*
X141065883Y-93970329D01*
X141083607Y-93986393D01*
X141099671Y-94004117D01*
X141113921Y-94023330D01*
X141126218Y-94043847D01*
X141136446Y-94065471D01*
X141144504Y-94087993D01*
X141150316Y-94111197D01*
X141153826Y-94134858D01*
X141155000Y-94158750D01*
X141155000Y-95071250D01*
X141153826Y-95095142D01*
X141150316Y-95118803D01*
X141144504Y-95142007D01*
X141136446Y-95164529D01*
X141126218Y-95186153D01*
X141113921Y-95206670D01*
X141099671Y-95225883D01*
X141083607Y-95243607D01*
X141065883Y-95259671D01*
X141046670Y-95273921D01*
X141026153Y-95286218D01*
X141004529Y-95296446D01*
X140982007Y-95304504D01*
X140958803Y-95310316D01*
X140935142Y-95313826D01*
X140911250Y-95315000D01*
X140423750Y-95315000D01*
X140399858Y-95313826D01*
X140376197Y-95310316D01*
X140352993Y-95304504D01*
X140330471Y-95296446D01*
X140308847Y-95286218D01*
X140288330Y-95273921D01*
X140269117Y-95259671D01*
X140251393Y-95243607D01*
X140235329Y-95225883D01*
X140221079Y-95206670D01*
X140208782Y-95186153D01*
X140198554Y-95164529D01*
X140190496Y-95142007D01*
X140184684Y-95118803D01*
X140181174Y-95095142D01*
X140180000Y-95071250D01*
X140180000Y-94158750D01*
X140181174Y-94134858D01*
X140184684Y-94111197D01*
X140190496Y-94087993D01*
X140198554Y-94065471D01*
X140208782Y-94043847D01*
X140221079Y-94023330D01*
X140235329Y-94004117D01*
X140251393Y-93986393D01*
X140269117Y-93970329D01*
X140288330Y-93956079D01*
X140308847Y-93943782D01*
X140330471Y-93933554D01*
X140352993Y-93925496D01*
X140376197Y-93919684D01*
X140399858Y-93916174D01*
X140423750Y-93915000D01*
X140911250Y-93915000D01*
X140935142Y-93916174D01*
X140935142Y-93916174D01*
G37*
D11*
X140667500Y-94615000D03*
G04 #@! TD*
D10*
G04 #@! TO.C,C3*
G36*
X157445142Y-89471174D02*
X157468803Y-89474684D01*
X157492007Y-89480496D01*
X157514529Y-89488554D01*
X157536153Y-89498782D01*
X157556670Y-89511079D01*
X157575883Y-89525329D01*
X157593607Y-89541393D01*
X157609671Y-89559117D01*
X157623921Y-89578330D01*
X157636218Y-89598847D01*
X157646446Y-89620471D01*
X157654504Y-89642993D01*
X157660316Y-89666197D01*
X157663826Y-89689858D01*
X157665000Y-89713750D01*
X157665000Y-90626250D01*
X157663826Y-90650142D01*
X157660316Y-90673803D01*
X157654504Y-90697007D01*
X157646446Y-90719529D01*
X157636218Y-90741153D01*
X157623921Y-90761670D01*
X157609671Y-90780883D01*
X157593607Y-90798607D01*
X157575883Y-90814671D01*
X157556670Y-90828921D01*
X157536153Y-90841218D01*
X157514529Y-90851446D01*
X157492007Y-90859504D01*
X157468803Y-90865316D01*
X157445142Y-90868826D01*
X157421250Y-90870000D01*
X156933750Y-90870000D01*
X156909858Y-90868826D01*
X156886197Y-90865316D01*
X156862993Y-90859504D01*
X156840471Y-90851446D01*
X156818847Y-90841218D01*
X156798330Y-90828921D01*
X156779117Y-90814671D01*
X156761393Y-90798607D01*
X156745329Y-90780883D01*
X156731079Y-90761670D01*
X156718782Y-90741153D01*
X156708554Y-90719529D01*
X156700496Y-90697007D01*
X156694684Y-90673803D01*
X156691174Y-90650142D01*
X156690000Y-90626250D01*
X156690000Y-89713750D01*
X156691174Y-89689858D01*
X156694684Y-89666197D01*
X156700496Y-89642993D01*
X156708554Y-89620471D01*
X156718782Y-89598847D01*
X156731079Y-89578330D01*
X156745329Y-89559117D01*
X156761393Y-89541393D01*
X156779117Y-89525329D01*
X156798330Y-89511079D01*
X156818847Y-89498782D01*
X156840471Y-89488554D01*
X156862993Y-89480496D01*
X156886197Y-89474684D01*
X156909858Y-89471174D01*
X156933750Y-89470000D01*
X157421250Y-89470000D01*
X157445142Y-89471174D01*
X157445142Y-89471174D01*
G37*
D11*
X157177500Y-90170000D03*
D10*
G36*
X159320142Y-89471174D02*
X159343803Y-89474684D01*
X159367007Y-89480496D01*
X159389529Y-89488554D01*
X159411153Y-89498782D01*
X159431670Y-89511079D01*
X159450883Y-89525329D01*
X159468607Y-89541393D01*
X159484671Y-89559117D01*
X159498921Y-89578330D01*
X159511218Y-89598847D01*
X159521446Y-89620471D01*
X159529504Y-89642993D01*
X159535316Y-89666197D01*
X159538826Y-89689858D01*
X159540000Y-89713750D01*
X159540000Y-90626250D01*
X159538826Y-90650142D01*
X159535316Y-90673803D01*
X159529504Y-90697007D01*
X159521446Y-90719529D01*
X159511218Y-90741153D01*
X159498921Y-90761670D01*
X159484671Y-90780883D01*
X159468607Y-90798607D01*
X159450883Y-90814671D01*
X159431670Y-90828921D01*
X159411153Y-90841218D01*
X159389529Y-90851446D01*
X159367007Y-90859504D01*
X159343803Y-90865316D01*
X159320142Y-90868826D01*
X159296250Y-90870000D01*
X158808750Y-90870000D01*
X158784858Y-90868826D01*
X158761197Y-90865316D01*
X158737993Y-90859504D01*
X158715471Y-90851446D01*
X158693847Y-90841218D01*
X158673330Y-90828921D01*
X158654117Y-90814671D01*
X158636393Y-90798607D01*
X158620329Y-90780883D01*
X158606079Y-90761670D01*
X158593782Y-90741153D01*
X158583554Y-90719529D01*
X158575496Y-90697007D01*
X158569684Y-90673803D01*
X158566174Y-90650142D01*
X158565000Y-90626250D01*
X158565000Y-89713750D01*
X158566174Y-89689858D01*
X158569684Y-89666197D01*
X158575496Y-89642993D01*
X158583554Y-89620471D01*
X158593782Y-89598847D01*
X158606079Y-89578330D01*
X158620329Y-89559117D01*
X158636393Y-89541393D01*
X158654117Y-89525329D01*
X158673330Y-89511079D01*
X158693847Y-89498782D01*
X158715471Y-89488554D01*
X158737993Y-89480496D01*
X158761197Y-89474684D01*
X158784858Y-89471174D01*
X158808750Y-89470000D01*
X159296250Y-89470000D01*
X159320142Y-89471174D01*
X159320142Y-89471174D01*
G37*
D11*
X159052500Y-90170000D03*
G04 #@! TD*
D10*
G04 #@! TO.C,C4*
G36*
X159320142Y-86931174D02*
X159343803Y-86934684D01*
X159367007Y-86940496D01*
X159389529Y-86948554D01*
X159411153Y-86958782D01*
X159431670Y-86971079D01*
X159450883Y-86985329D01*
X159468607Y-87001393D01*
X159484671Y-87019117D01*
X159498921Y-87038330D01*
X159511218Y-87058847D01*
X159521446Y-87080471D01*
X159529504Y-87102993D01*
X159535316Y-87126197D01*
X159538826Y-87149858D01*
X159540000Y-87173750D01*
X159540000Y-88086250D01*
X159538826Y-88110142D01*
X159535316Y-88133803D01*
X159529504Y-88157007D01*
X159521446Y-88179529D01*
X159511218Y-88201153D01*
X159498921Y-88221670D01*
X159484671Y-88240883D01*
X159468607Y-88258607D01*
X159450883Y-88274671D01*
X159431670Y-88288921D01*
X159411153Y-88301218D01*
X159389529Y-88311446D01*
X159367007Y-88319504D01*
X159343803Y-88325316D01*
X159320142Y-88328826D01*
X159296250Y-88330000D01*
X158808750Y-88330000D01*
X158784858Y-88328826D01*
X158761197Y-88325316D01*
X158737993Y-88319504D01*
X158715471Y-88311446D01*
X158693847Y-88301218D01*
X158673330Y-88288921D01*
X158654117Y-88274671D01*
X158636393Y-88258607D01*
X158620329Y-88240883D01*
X158606079Y-88221670D01*
X158593782Y-88201153D01*
X158583554Y-88179529D01*
X158575496Y-88157007D01*
X158569684Y-88133803D01*
X158566174Y-88110142D01*
X158565000Y-88086250D01*
X158565000Y-87173750D01*
X158566174Y-87149858D01*
X158569684Y-87126197D01*
X158575496Y-87102993D01*
X158583554Y-87080471D01*
X158593782Y-87058847D01*
X158606079Y-87038330D01*
X158620329Y-87019117D01*
X158636393Y-87001393D01*
X158654117Y-86985329D01*
X158673330Y-86971079D01*
X158693847Y-86958782D01*
X158715471Y-86948554D01*
X158737993Y-86940496D01*
X158761197Y-86934684D01*
X158784858Y-86931174D01*
X158808750Y-86930000D01*
X159296250Y-86930000D01*
X159320142Y-86931174D01*
X159320142Y-86931174D01*
G37*
D11*
X159052500Y-87630000D03*
D10*
G36*
X157445142Y-86931174D02*
X157468803Y-86934684D01*
X157492007Y-86940496D01*
X157514529Y-86948554D01*
X157536153Y-86958782D01*
X157556670Y-86971079D01*
X157575883Y-86985329D01*
X157593607Y-87001393D01*
X157609671Y-87019117D01*
X157623921Y-87038330D01*
X157636218Y-87058847D01*
X157646446Y-87080471D01*
X157654504Y-87102993D01*
X157660316Y-87126197D01*
X157663826Y-87149858D01*
X157665000Y-87173750D01*
X157665000Y-88086250D01*
X157663826Y-88110142D01*
X157660316Y-88133803D01*
X157654504Y-88157007D01*
X157646446Y-88179529D01*
X157636218Y-88201153D01*
X157623921Y-88221670D01*
X157609671Y-88240883D01*
X157593607Y-88258607D01*
X157575883Y-88274671D01*
X157556670Y-88288921D01*
X157536153Y-88301218D01*
X157514529Y-88311446D01*
X157492007Y-88319504D01*
X157468803Y-88325316D01*
X157445142Y-88328826D01*
X157421250Y-88330000D01*
X156933750Y-88330000D01*
X156909858Y-88328826D01*
X156886197Y-88325316D01*
X156862993Y-88319504D01*
X156840471Y-88311446D01*
X156818847Y-88301218D01*
X156798330Y-88288921D01*
X156779117Y-88274671D01*
X156761393Y-88258607D01*
X156745329Y-88240883D01*
X156731079Y-88221670D01*
X156718782Y-88201153D01*
X156708554Y-88179529D01*
X156700496Y-88157007D01*
X156694684Y-88133803D01*
X156691174Y-88110142D01*
X156690000Y-88086250D01*
X156690000Y-87173750D01*
X156691174Y-87149858D01*
X156694684Y-87126197D01*
X156700496Y-87102993D01*
X156708554Y-87080471D01*
X156718782Y-87058847D01*
X156731079Y-87038330D01*
X156745329Y-87019117D01*
X156761393Y-87001393D01*
X156779117Y-86985329D01*
X156798330Y-86971079D01*
X156818847Y-86958782D01*
X156840471Y-86948554D01*
X156862993Y-86940496D01*
X156886197Y-86934684D01*
X156909858Y-86931174D01*
X156933750Y-86930000D01*
X157421250Y-86930000D01*
X157445142Y-86931174D01*
X157445142Y-86931174D01*
G37*
D11*
X157177500Y-87630000D03*
G04 #@! TD*
D10*
G04 #@! TO.C,R1*
G36*
X157445142Y-92011174D02*
X157468803Y-92014684D01*
X157492007Y-92020496D01*
X157514529Y-92028554D01*
X157536153Y-92038782D01*
X157556670Y-92051079D01*
X157575883Y-92065329D01*
X157593607Y-92081393D01*
X157609671Y-92099117D01*
X157623921Y-92118330D01*
X157636218Y-92138847D01*
X157646446Y-92160471D01*
X157654504Y-92182993D01*
X157660316Y-92206197D01*
X157663826Y-92229858D01*
X157665000Y-92253750D01*
X157665000Y-93166250D01*
X157663826Y-93190142D01*
X157660316Y-93213803D01*
X157654504Y-93237007D01*
X157646446Y-93259529D01*
X157636218Y-93281153D01*
X157623921Y-93301670D01*
X157609671Y-93320883D01*
X157593607Y-93338607D01*
X157575883Y-93354671D01*
X157556670Y-93368921D01*
X157536153Y-93381218D01*
X157514529Y-93391446D01*
X157492007Y-93399504D01*
X157468803Y-93405316D01*
X157445142Y-93408826D01*
X157421250Y-93410000D01*
X156933750Y-93410000D01*
X156909858Y-93408826D01*
X156886197Y-93405316D01*
X156862993Y-93399504D01*
X156840471Y-93391446D01*
X156818847Y-93381218D01*
X156798330Y-93368921D01*
X156779117Y-93354671D01*
X156761393Y-93338607D01*
X156745329Y-93320883D01*
X156731079Y-93301670D01*
X156718782Y-93281153D01*
X156708554Y-93259529D01*
X156700496Y-93237007D01*
X156694684Y-93213803D01*
X156691174Y-93190142D01*
X156690000Y-93166250D01*
X156690000Y-92253750D01*
X156691174Y-92229858D01*
X156694684Y-92206197D01*
X156700496Y-92182993D01*
X156708554Y-92160471D01*
X156718782Y-92138847D01*
X156731079Y-92118330D01*
X156745329Y-92099117D01*
X156761393Y-92081393D01*
X156779117Y-92065329D01*
X156798330Y-92051079D01*
X156818847Y-92038782D01*
X156840471Y-92028554D01*
X156862993Y-92020496D01*
X156886197Y-92014684D01*
X156909858Y-92011174D01*
X156933750Y-92010000D01*
X157421250Y-92010000D01*
X157445142Y-92011174D01*
X157445142Y-92011174D01*
G37*
D11*
X157177500Y-92710000D03*
D10*
G36*
X159320142Y-92011174D02*
X159343803Y-92014684D01*
X159367007Y-92020496D01*
X159389529Y-92028554D01*
X159411153Y-92038782D01*
X159431670Y-92051079D01*
X159450883Y-92065329D01*
X159468607Y-92081393D01*
X159484671Y-92099117D01*
X159498921Y-92118330D01*
X159511218Y-92138847D01*
X159521446Y-92160471D01*
X159529504Y-92182993D01*
X159535316Y-92206197D01*
X159538826Y-92229858D01*
X159540000Y-92253750D01*
X159540000Y-93166250D01*
X159538826Y-93190142D01*
X159535316Y-93213803D01*
X159529504Y-93237007D01*
X159521446Y-93259529D01*
X159511218Y-93281153D01*
X159498921Y-93301670D01*
X159484671Y-93320883D01*
X159468607Y-93338607D01*
X159450883Y-93354671D01*
X159431670Y-93368921D01*
X159411153Y-93381218D01*
X159389529Y-93391446D01*
X159367007Y-93399504D01*
X159343803Y-93405316D01*
X159320142Y-93408826D01*
X159296250Y-93410000D01*
X158808750Y-93410000D01*
X158784858Y-93408826D01*
X158761197Y-93405316D01*
X158737993Y-93399504D01*
X158715471Y-93391446D01*
X158693847Y-93381218D01*
X158673330Y-93368921D01*
X158654117Y-93354671D01*
X158636393Y-93338607D01*
X158620329Y-93320883D01*
X158606079Y-93301670D01*
X158593782Y-93281153D01*
X158583554Y-93259529D01*
X158575496Y-93237007D01*
X158569684Y-93213803D01*
X158566174Y-93190142D01*
X158565000Y-93166250D01*
X158565000Y-92253750D01*
X158566174Y-92229858D01*
X158569684Y-92206197D01*
X158575496Y-92182993D01*
X158583554Y-92160471D01*
X158593782Y-92138847D01*
X158606079Y-92118330D01*
X158620329Y-92099117D01*
X158636393Y-92081393D01*
X158654117Y-92065329D01*
X158673330Y-92051079D01*
X158693847Y-92038782D01*
X158715471Y-92028554D01*
X158737993Y-92020496D01*
X158761197Y-92014684D01*
X158784858Y-92011174D01*
X158808750Y-92010000D01*
X159296250Y-92010000D01*
X159320142Y-92011174D01*
X159320142Y-92011174D01*
G37*
D11*
X159052500Y-92710000D03*
G04 #@! TD*
D12*
G04 #@! TO.C,U2*
X154397500Y-91670000D03*
D10*
G36*
X154189861Y-91794135D02*
X154181419Y-91791575D01*
X154173639Y-91787416D01*
X154166820Y-91781820D01*
X154033180Y-91648180D01*
X154027584Y-91641361D01*
X154023425Y-91633581D01*
X154020865Y-91625139D01*
X154020000Y-91616360D01*
X154020000Y-91590000D01*
X154020865Y-91581221D01*
X154023425Y-91572779D01*
X154027584Y-91564999D01*
X154033180Y-91558180D01*
X154039999Y-91552584D01*
X154047779Y-91548425D01*
X154056221Y-91545865D01*
X154065000Y-91545000D01*
X154730000Y-91545000D01*
X154738779Y-91545865D01*
X154747221Y-91548425D01*
X154755001Y-91552584D01*
X154761820Y-91558180D01*
X154767416Y-91564999D01*
X154771575Y-91572779D01*
X154774135Y-91581221D01*
X154775000Y-91590000D01*
X154775000Y-91750000D01*
X154774135Y-91758779D01*
X154771575Y-91767221D01*
X154767416Y-91775001D01*
X154761820Y-91781820D01*
X154755001Y-91787416D01*
X154747221Y-91791575D01*
X154738779Y-91794135D01*
X154730000Y-91795000D01*
X154198640Y-91795000D01*
X154189861Y-91794135D01*
X154189861Y-91794135D01*
G37*
G36*
X154718626Y-91045301D02*
X154724693Y-91046201D01*
X154730643Y-91047691D01*
X154736418Y-91049758D01*
X154741962Y-91052380D01*
X154747223Y-91055533D01*
X154752150Y-91059187D01*
X154756694Y-91063306D01*
X154760813Y-91067850D01*
X154764467Y-91072777D01*
X154767620Y-91078038D01*
X154770242Y-91083582D01*
X154772309Y-91089357D01*
X154773799Y-91095307D01*
X154774699Y-91101374D01*
X154775000Y-91107500D01*
X154775000Y-91232500D01*
X154774699Y-91238626D01*
X154773799Y-91244693D01*
X154772309Y-91250643D01*
X154770242Y-91256418D01*
X154767620Y-91261962D01*
X154764467Y-91267223D01*
X154760813Y-91272150D01*
X154756694Y-91276694D01*
X154752150Y-91280813D01*
X154747223Y-91284467D01*
X154741962Y-91287620D01*
X154736418Y-91290242D01*
X154730643Y-91292309D01*
X154724693Y-91293799D01*
X154718626Y-91294699D01*
X154712500Y-91295000D01*
X153962500Y-91295000D01*
X153956374Y-91294699D01*
X153950307Y-91293799D01*
X153944357Y-91292309D01*
X153938582Y-91290242D01*
X153933038Y-91287620D01*
X153927777Y-91284467D01*
X153922850Y-91280813D01*
X153918306Y-91276694D01*
X153914187Y-91272150D01*
X153910533Y-91267223D01*
X153907380Y-91261962D01*
X153904758Y-91256418D01*
X153902691Y-91250643D01*
X153901201Y-91244693D01*
X153900301Y-91238626D01*
X153900000Y-91232500D01*
X153900000Y-91107500D01*
X153900301Y-91101374D01*
X153901201Y-91095307D01*
X153902691Y-91089357D01*
X153904758Y-91083582D01*
X153907380Y-91078038D01*
X153910533Y-91072777D01*
X153914187Y-91067850D01*
X153918306Y-91063306D01*
X153922850Y-91059187D01*
X153927777Y-91055533D01*
X153933038Y-91052380D01*
X153938582Y-91049758D01*
X153944357Y-91047691D01*
X153950307Y-91046201D01*
X153956374Y-91045301D01*
X153962500Y-91045000D01*
X154712500Y-91045000D01*
X154718626Y-91045301D01*
X154718626Y-91045301D01*
G37*
D13*
X154337500Y-91170000D03*
D10*
G36*
X154718626Y-90545301D02*
X154724693Y-90546201D01*
X154730643Y-90547691D01*
X154736418Y-90549758D01*
X154741962Y-90552380D01*
X154747223Y-90555533D01*
X154752150Y-90559187D01*
X154756694Y-90563306D01*
X154760813Y-90567850D01*
X154764467Y-90572777D01*
X154767620Y-90578038D01*
X154770242Y-90583582D01*
X154772309Y-90589357D01*
X154773799Y-90595307D01*
X154774699Y-90601374D01*
X154775000Y-90607500D01*
X154775000Y-90732500D01*
X154774699Y-90738626D01*
X154773799Y-90744693D01*
X154772309Y-90750643D01*
X154770242Y-90756418D01*
X154767620Y-90761962D01*
X154764467Y-90767223D01*
X154760813Y-90772150D01*
X154756694Y-90776694D01*
X154752150Y-90780813D01*
X154747223Y-90784467D01*
X154741962Y-90787620D01*
X154736418Y-90790242D01*
X154730643Y-90792309D01*
X154724693Y-90793799D01*
X154718626Y-90794699D01*
X154712500Y-90795000D01*
X153962500Y-90795000D01*
X153956374Y-90794699D01*
X153950307Y-90793799D01*
X153944357Y-90792309D01*
X153938582Y-90790242D01*
X153933038Y-90787620D01*
X153927777Y-90784467D01*
X153922850Y-90780813D01*
X153918306Y-90776694D01*
X153914187Y-90772150D01*
X153910533Y-90767223D01*
X153907380Y-90761962D01*
X153904758Y-90756418D01*
X153902691Y-90750643D01*
X153901201Y-90744693D01*
X153900301Y-90738626D01*
X153900000Y-90732500D01*
X153900000Y-90607500D01*
X153900301Y-90601374D01*
X153901201Y-90595307D01*
X153902691Y-90589357D01*
X153904758Y-90583582D01*
X153907380Y-90578038D01*
X153910533Y-90572777D01*
X153914187Y-90567850D01*
X153918306Y-90563306D01*
X153922850Y-90559187D01*
X153927777Y-90555533D01*
X153933038Y-90552380D01*
X153938582Y-90549758D01*
X153944357Y-90547691D01*
X153950307Y-90546201D01*
X153956374Y-90545301D01*
X153962500Y-90545000D01*
X154712500Y-90545000D01*
X154718626Y-90545301D01*
X154718626Y-90545301D01*
G37*
D13*
X154337500Y-90670000D03*
D10*
G36*
X154718626Y-90045301D02*
X154724693Y-90046201D01*
X154730643Y-90047691D01*
X154736418Y-90049758D01*
X154741962Y-90052380D01*
X154747223Y-90055533D01*
X154752150Y-90059187D01*
X154756694Y-90063306D01*
X154760813Y-90067850D01*
X154764467Y-90072777D01*
X154767620Y-90078038D01*
X154770242Y-90083582D01*
X154772309Y-90089357D01*
X154773799Y-90095307D01*
X154774699Y-90101374D01*
X154775000Y-90107500D01*
X154775000Y-90232500D01*
X154774699Y-90238626D01*
X154773799Y-90244693D01*
X154772309Y-90250643D01*
X154770242Y-90256418D01*
X154767620Y-90261962D01*
X154764467Y-90267223D01*
X154760813Y-90272150D01*
X154756694Y-90276694D01*
X154752150Y-90280813D01*
X154747223Y-90284467D01*
X154741962Y-90287620D01*
X154736418Y-90290242D01*
X154730643Y-90292309D01*
X154724693Y-90293799D01*
X154718626Y-90294699D01*
X154712500Y-90295000D01*
X153962500Y-90295000D01*
X153956374Y-90294699D01*
X153950307Y-90293799D01*
X153944357Y-90292309D01*
X153938582Y-90290242D01*
X153933038Y-90287620D01*
X153927777Y-90284467D01*
X153922850Y-90280813D01*
X153918306Y-90276694D01*
X153914187Y-90272150D01*
X153910533Y-90267223D01*
X153907380Y-90261962D01*
X153904758Y-90256418D01*
X153902691Y-90250643D01*
X153901201Y-90244693D01*
X153900301Y-90238626D01*
X153900000Y-90232500D01*
X153900000Y-90107500D01*
X153900301Y-90101374D01*
X153901201Y-90095307D01*
X153902691Y-90089357D01*
X153904758Y-90083582D01*
X153907380Y-90078038D01*
X153910533Y-90072777D01*
X153914187Y-90067850D01*
X153918306Y-90063306D01*
X153922850Y-90059187D01*
X153927777Y-90055533D01*
X153933038Y-90052380D01*
X153938582Y-90049758D01*
X153944357Y-90047691D01*
X153950307Y-90046201D01*
X153956374Y-90045301D01*
X153962500Y-90045000D01*
X154712500Y-90045000D01*
X154718626Y-90045301D01*
X154718626Y-90045301D01*
G37*
D13*
X154337500Y-90170000D03*
D10*
G36*
X154718626Y-89545301D02*
X154724693Y-89546201D01*
X154730643Y-89547691D01*
X154736418Y-89549758D01*
X154741962Y-89552380D01*
X154747223Y-89555533D01*
X154752150Y-89559187D01*
X154756694Y-89563306D01*
X154760813Y-89567850D01*
X154764467Y-89572777D01*
X154767620Y-89578038D01*
X154770242Y-89583582D01*
X154772309Y-89589357D01*
X154773799Y-89595307D01*
X154774699Y-89601374D01*
X154775000Y-89607500D01*
X154775000Y-89732500D01*
X154774699Y-89738626D01*
X154773799Y-89744693D01*
X154772309Y-89750643D01*
X154770242Y-89756418D01*
X154767620Y-89761962D01*
X154764467Y-89767223D01*
X154760813Y-89772150D01*
X154756694Y-89776694D01*
X154752150Y-89780813D01*
X154747223Y-89784467D01*
X154741962Y-89787620D01*
X154736418Y-89790242D01*
X154730643Y-89792309D01*
X154724693Y-89793799D01*
X154718626Y-89794699D01*
X154712500Y-89795000D01*
X153962500Y-89795000D01*
X153956374Y-89794699D01*
X153950307Y-89793799D01*
X153944357Y-89792309D01*
X153938582Y-89790242D01*
X153933038Y-89787620D01*
X153927777Y-89784467D01*
X153922850Y-89780813D01*
X153918306Y-89776694D01*
X153914187Y-89772150D01*
X153910533Y-89767223D01*
X153907380Y-89761962D01*
X153904758Y-89756418D01*
X153902691Y-89750643D01*
X153901201Y-89744693D01*
X153900301Y-89738626D01*
X153900000Y-89732500D01*
X153900000Y-89607500D01*
X153900301Y-89601374D01*
X153901201Y-89595307D01*
X153902691Y-89589357D01*
X153904758Y-89583582D01*
X153907380Y-89578038D01*
X153910533Y-89572777D01*
X153914187Y-89567850D01*
X153918306Y-89563306D01*
X153922850Y-89559187D01*
X153927777Y-89555533D01*
X153933038Y-89552380D01*
X153938582Y-89549758D01*
X153944357Y-89547691D01*
X153950307Y-89546201D01*
X153956374Y-89545301D01*
X153962500Y-89545000D01*
X154712500Y-89545000D01*
X154718626Y-89545301D01*
X154718626Y-89545301D01*
G37*
D13*
X154337500Y-89670000D03*
D10*
G36*
X154718626Y-89045301D02*
X154724693Y-89046201D01*
X154730643Y-89047691D01*
X154736418Y-89049758D01*
X154741962Y-89052380D01*
X154747223Y-89055533D01*
X154752150Y-89059187D01*
X154756694Y-89063306D01*
X154760813Y-89067850D01*
X154764467Y-89072777D01*
X154767620Y-89078038D01*
X154770242Y-89083582D01*
X154772309Y-89089357D01*
X154773799Y-89095307D01*
X154774699Y-89101374D01*
X154775000Y-89107500D01*
X154775000Y-89232500D01*
X154774699Y-89238626D01*
X154773799Y-89244693D01*
X154772309Y-89250643D01*
X154770242Y-89256418D01*
X154767620Y-89261962D01*
X154764467Y-89267223D01*
X154760813Y-89272150D01*
X154756694Y-89276694D01*
X154752150Y-89280813D01*
X154747223Y-89284467D01*
X154741962Y-89287620D01*
X154736418Y-89290242D01*
X154730643Y-89292309D01*
X154724693Y-89293799D01*
X154718626Y-89294699D01*
X154712500Y-89295000D01*
X153962500Y-89295000D01*
X153956374Y-89294699D01*
X153950307Y-89293799D01*
X153944357Y-89292309D01*
X153938582Y-89290242D01*
X153933038Y-89287620D01*
X153927777Y-89284467D01*
X153922850Y-89280813D01*
X153918306Y-89276694D01*
X153914187Y-89272150D01*
X153910533Y-89267223D01*
X153907380Y-89261962D01*
X153904758Y-89256418D01*
X153902691Y-89250643D01*
X153901201Y-89244693D01*
X153900301Y-89238626D01*
X153900000Y-89232500D01*
X153900000Y-89107500D01*
X153900301Y-89101374D01*
X153901201Y-89095307D01*
X153902691Y-89089357D01*
X153904758Y-89083582D01*
X153907380Y-89078038D01*
X153910533Y-89072777D01*
X153914187Y-89067850D01*
X153918306Y-89063306D01*
X153922850Y-89059187D01*
X153927777Y-89055533D01*
X153933038Y-89052380D01*
X153938582Y-89049758D01*
X153944357Y-89047691D01*
X153950307Y-89046201D01*
X153956374Y-89045301D01*
X153962500Y-89045000D01*
X154712500Y-89045000D01*
X154718626Y-89045301D01*
X154718626Y-89045301D01*
G37*
D13*
X154337500Y-89170000D03*
D12*
X154397500Y-88670000D03*
D10*
G36*
X154056221Y-88794135D02*
X154047779Y-88791575D01*
X154039999Y-88787416D01*
X154033180Y-88781820D01*
X154027584Y-88775001D01*
X154023425Y-88767221D01*
X154020865Y-88758779D01*
X154020000Y-88750000D01*
X154020000Y-88723640D01*
X154020865Y-88714861D01*
X154023425Y-88706419D01*
X154027584Y-88698639D01*
X154033180Y-88691820D01*
X154166820Y-88558180D01*
X154173639Y-88552584D01*
X154181419Y-88548425D01*
X154189861Y-88545865D01*
X154198640Y-88545000D01*
X154730000Y-88545000D01*
X154738779Y-88545865D01*
X154747221Y-88548425D01*
X154755001Y-88552584D01*
X154761820Y-88558180D01*
X154767416Y-88564999D01*
X154771575Y-88572779D01*
X154774135Y-88581221D01*
X154775000Y-88590000D01*
X154775000Y-88750000D01*
X154774135Y-88758779D01*
X154771575Y-88767221D01*
X154767416Y-88775001D01*
X154761820Y-88781820D01*
X154755001Y-88787416D01*
X154747221Y-88791575D01*
X154738779Y-88794135D01*
X154730000Y-88795000D01*
X154065000Y-88795000D01*
X154056221Y-88794135D01*
X154056221Y-88794135D01*
G37*
D12*
X153900000Y-88172500D03*
D10*
G36*
X153811221Y-88549135D02*
X153802779Y-88546575D01*
X153794999Y-88542416D01*
X153788180Y-88536820D01*
X153782584Y-88530001D01*
X153778425Y-88522221D01*
X153775865Y-88513779D01*
X153775000Y-88505000D01*
X153775000Y-87840000D01*
X153775865Y-87831221D01*
X153778425Y-87822779D01*
X153782584Y-87814999D01*
X153788180Y-87808180D01*
X153794999Y-87802584D01*
X153802779Y-87798425D01*
X153811221Y-87795865D01*
X153820000Y-87795000D01*
X153980000Y-87795000D01*
X153988779Y-87795865D01*
X153997221Y-87798425D01*
X154005001Y-87802584D01*
X154011820Y-87808180D01*
X154017416Y-87814999D01*
X154021575Y-87822779D01*
X154024135Y-87831221D01*
X154025000Y-87840000D01*
X154025000Y-88371360D01*
X154024135Y-88380139D01*
X154021575Y-88388581D01*
X154017416Y-88396361D01*
X154011820Y-88403180D01*
X153878180Y-88536820D01*
X153871361Y-88542416D01*
X153863581Y-88546575D01*
X153855139Y-88549135D01*
X153846360Y-88550000D01*
X153820000Y-88550000D01*
X153811221Y-88549135D01*
X153811221Y-88549135D01*
G37*
G36*
X153468626Y-87795301D02*
X153474693Y-87796201D01*
X153480643Y-87797691D01*
X153486418Y-87799758D01*
X153491962Y-87802380D01*
X153497223Y-87805533D01*
X153502150Y-87809187D01*
X153506694Y-87813306D01*
X153510813Y-87817850D01*
X153514467Y-87822777D01*
X153517620Y-87828038D01*
X153520242Y-87833582D01*
X153522309Y-87839357D01*
X153523799Y-87845307D01*
X153524699Y-87851374D01*
X153525000Y-87857500D01*
X153525000Y-88607500D01*
X153524699Y-88613626D01*
X153523799Y-88619693D01*
X153522309Y-88625643D01*
X153520242Y-88631418D01*
X153517620Y-88636962D01*
X153514467Y-88642223D01*
X153510813Y-88647150D01*
X153506694Y-88651694D01*
X153502150Y-88655813D01*
X153497223Y-88659467D01*
X153491962Y-88662620D01*
X153486418Y-88665242D01*
X153480643Y-88667309D01*
X153474693Y-88668799D01*
X153468626Y-88669699D01*
X153462500Y-88670000D01*
X153337500Y-88670000D01*
X153331374Y-88669699D01*
X153325307Y-88668799D01*
X153319357Y-88667309D01*
X153313582Y-88665242D01*
X153308038Y-88662620D01*
X153302777Y-88659467D01*
X153297850Y-88655813D01*
X153293306Y-88651694D01*
X153289187Y-88647150D01*
X153285533Y-88642223D01*
X153282380Y-88636962D01*
X153279758Y-88631418D01*
X153277691Y-88625643D01*
X153276201Y-88619693D01*
X153275301Y-88613626D01*
X153275000Y-88607500D01*
X153275000Y-87857500D01*
X153275301Y-87851374D01*
X153276201Y-87845307D01*
X153277691Y-87839357D01*
X153279758Y-87833582D01*
X153282380Y-87828038D01*
X153285533Y-87822777D01*
X153289187Y-87817850D01*
X153293306Y-87813306D01*
X153297850Y-87809187D01*
X153302777Y-87805533D01*
X153308038Y-87802380D01*
X153313582Y-87799758D01*
X153319357Y-87797691D01*
X153325307Y-87796201D01*
X153331374Y-87795301D01*
X153337500Y-87795000D01*
X153462500Y-87795000D01*
X153468626Y-87795301D01*
X153468626Y-87795301D01*
G37*
D13*
X153400000Y-88232500D03*
D10*
G36*
X152968626Y-87795301D02*
X152974693Y-87796201D01*
X152980643Y-87797691D01*
X152986418Y-87799758D01*
X152991962Y-87802380D01*
X152997223Y-87805533D01*
X153002150Y-87809187D01*
X153006694Y-87813306D01*
X153010813Y-87817850D01*
X153014467Y-87822777D01*
X153017620Y-87828038D01*
X153020242Y-87833582D01*
X153022309Y-87839357D01*
X153023799Y-87845307D01*
X153024699Y-87851374D01*
X153025000Y-87857500D01*
X153025000Y-88607500D01*
X153024699Y-88613626D01*
X153023799Y-88619693D01*
X153022309Y-88625643D01*
X153020242Y-88631418D01*
X153017620Y-88636962D01*
X153014467Y-88642223D01*
X153010813Y-88647150D01*
X153006694Y-88651694D01*
X153002150Y-88655813D01*
X152997223Y-88659467D01*
X152991962Y-88662620D01*
X152986418Y-88665242D01*
X152980643Y-88667309D01*
X152974693Y-88668799D01*
X152968626Y-88669699D01*
X152962500Y-88670000D01*
X152837500Y-88670000D01*
X152831374Y-88669699D01*
X152825307Y-88668799D01*
X152819357Y-88667309D01*
X152813582Y-88665242D01*
X152808038Y-88662620D01*
X152802777Y-88659467D01*
X152797850Y-88655813D01*
X152793306Y-88651694D01*
X152789187Y-88647150D01*
X152785533Y-88642223D01*
X152782380Y-88636962D01*
X152779758Y-88631418D01*
X152777691Y-88625643D01*
X152776201Y-88619693D01*
X152775301Y-88613626D01*
X152775000Y-88607500D01*
X152775000Y-87857500D01*
X152775301Y-87851374D01*
X152776201Y-87845307D01*
X152777691Y-87839357D01*
X152779758Y-87833582D01*
X152782380Y-87828038D01*
X152785533Y-87822777D01*
X152789187Y-87817850D01*
X152793306Y-87813306D01*
X152797850Y-87809187D01*
X152802777Y-87805533D01*
X152808038Y-87802380D01*
X152813582Y-87799758D01*
X152819357Y-87797691D01*
X152825307Y-87796201D01*
X152831374Y-87795301D01*
X152837500Y-87795000D01*
X152962500Y-87795000D01*
X152968626Y-87795301D01*
X152968626Y-87795301D01*
G37*
D13*
X152900000Y-88232500D03*
D10*
G36*
X152468626Y-87795301D02*
X152474693Y-87796201D01*
X152480643Y-87797691D01*
X152486418Y-87799758D01*
X152491962Y-87802380D01*
X152497223Y-87805533D01*
X152502150Y-87809187D01*
X152506694Y-87813306D01*
X152510813Y-87817850D01*
X152514467Y-87822777D01*
X152517620Y-87828038D01*
X152520242Y-87833582D01*
X152522309Y-87839357D01*
X152523799Y-87845307D01*
X152524699Y-87851374D01*
X152525000Y-87857500D01*
X152525000Y-88607500D01*
X152524699Y-88613626D01*
X152523799Y-88619693D01*
X152522309Y-88625643D01*
X152520242Y-88631418D01*
X152517620Y-88636962D01*
X152514467Y-88642223D01*
X152510813Y-88647150D01*
X152506694Y-88651694D01*
X152502150Y-88655813D01*
X152497223Y-88659467D01*
X152491962Y-88662620D01*
X152486418Y-88665242D01*
X152480643Y-88667309D01*
X152474693Y-88668799D01*
X152468626Y-88669699D01*
X152462500Y-88670000D01*
X152337500Y-88670000D01*
X152331374Y-88669699D01*
X152325307Y-88668799D01*
X152319357Y-88667309D01*
X152313582Y-88665242D01*
X152308038Y-88662620D01*
X152302777Y-88659467D01*
X152297850Y-88655813D01*
X152293306Y-88651694D01*
X152289187Y-88647150D01*
X152285533Y-88642223D01*
X152282380Y-88636962D01*
X152279758Y-88631418D01*
X152277691Y-88625643D01*
X152276201Y-88619693D01*
X152275301Y-88613626D01*
X152275000Y-88607500D01*
X152275000Y-87857500D01*
X152275301Y-87851374D01*
X152276201Y-87845307D01*
X152277691Y-87839357D01*
X152279758Y-87833582D01*
X152282380Y-87828038D01*
X152285533Y-87822777D01*
X152289187Y-87817850D01*
X152293306Y-87813306D01*
X152297850Y-87809187D01*
X152302777Y-87805533D01*
X152308038Y-87802380D01*
X152313582Y-87799758D01*
X152319357Y-87797691D01*
X152325307Y-87796201D01*
X152331374Y-87795301D01*
X152337500Y-87795000D01*
X152462500Y-87795000D01*
X152468626Y-87795301D01*
X152468626Y-87795301D01*
G37*
D13*
X152400000Y-88232500D03*
D10*
G36*
X151968626Y-87795301D02*
X151974693Y-87796201D01*
X151980643Y-87797691D01*
X151986418Y-87799758D01*
X151991962Y-87802380D01*
X151997223Y-87805533D01*
X152002150Y-87809187D01*
X152006694Y-87813306D01*
X152010813Y-87817850D01*
X152014467Y-87822777D01*
X152017620Y-87828038D01*
X152020242Y-87833582D01*
X152022309Y-87839357D01*
X152023799Y-87845307D01*
X152024699Y-87851374D01*
X152025000Y-87857500D01*
X152025000Y-88607500D01*
X152024699Y-88613626D01*
X152023799Y-88619693D01*
X152022309Y-88625643D01*
X152020242Y-88631418D01*
X152017620Y-88636962D01*
X152014467Y-88642223D01*
X152010813Y-88647150D01*
X152006694Y-88651694D01*
X152002150Y-88655813D01*
X151997223Y-88659467D01*
X151991962Y-88662620D01*
X151986418Y-88665242D01*
X151980643Y-88667309D01*
X151974693Y-88668799D01*
X151968626Y-88669699D01*
X151962500Y-88670000D01*
X151837500Y-88670000D01*
X151831374Y-88669699D01*
X151825307Y-88668799D01*
X151819357Y-88667309D01*
X151813582Y-88665242D01*
X151808038Y-88662620D01*
X151802777Y-88659467D01*
X151797850Y-88655813D01*
X151793306Y-88651694D01*
X151789187Y-88647150D01*
X151785533Y-88642223D01*
X151782380Y-88636962D01*
X151779758Y-88631418D01*
X151777691Y-88625643D01*
X151776201Y-88619693D01*
X151775301Y-88613626D01*
X151775000Y-88607500D01*
X151775000Y-87857500D01*
X151775301Y-87851374D01*
X151776201Y-87845307D01*
X151777691Y-87839357D01*
X151779758Y-87833582D01*
X151782380Y-87828038D01*
X151785533Y-87822777D01*
X151789187Y-87817850D01*
X151793306Y-87813306D01*
X151797850Y-87809187D01*
X151802777Y-87805533D01*
X151808038Y-87802380D01*
X151813582Y-87799758D01*
X151819357Y-87797691D01*
X151825307Y-87796201D01*
X151831374Y-87795301D01*
X151837500Y-87795000D01*
X151962500Y-87795000D01*
X151968626Y-87795301D01*
X151968626Y-87795301D01*
G37*
D13*
X151900000Y-88232500D03*
D10*
G36*
X151468626Y-87795301D02*
X151474693Y-87796201D01*
X151480643Y-87797691D01*
X151486418Y-87799758D01*
X151491962Y-87802380D01*
X151497223Y-87805533D01*
X151502150Y-87809187D01*
X151506694Y-87813306D01*
X151510813Y-87817850D01*
X151514467Y-87822777D01*
X151517620Y-87828038D01*
X151520242Y-87833582D01*
X151522309Y-87839357D01*
X151523799Y-87845307D01*
X151524699Y-87851374D01*
X151525000Y-87857500D01*
X151525000Y-88607500D01*
X151524699Y-88613626D01*
X151523799Y-88619693D01*
X151522309Y-88625643D01*
X151520242Y-88631418D01*
X151517620Y-88636962D01*
X151514467Y-88642223D01*
X151510813Y-88647150D01*
X151506694Y-88651694D01*
X151502150Y-88655813D01*
X151497223Y-88659467D01*
X151491962Y-88662620D01*
X151486418Y-88665242D01*
X151480643Y-88667309D01*
X151474693Y-88668799D01*
X151468626Y-88669699D01*
X151462500Y-88670000D01*
X151337500Y-88670000D01*
X151331374Y-88669699D01*
X151325307Y-88668799D01*
X151319357Y-88667309D01*
X151313582Y-88665242D01*
X151308038Y-88662620D01*
X151302777Y-88659467D01*
X151297850Y-88655813D01*
X151293306Y-88651694D01*
X151289187Y-88647150D01*
X151285533Y-88642223D01*
X151282380Y-88636962D01*
X151279758Y-88631418D01*
X151277691Y-88625643D01*
X151276201Y-88619693D01*
X151275301Y-88613626D01*
X151275000Y-88607500D01*
X151275000Y-87857500D01*
X151275301Y-87851374D01*
X151276201Y-87845307D01*
X151277691Y-87839357D01*
X151279758Y-87833582D01*
X151282380Y-87828038D01*
X151285533Y-87822777D01*
X151289187Y-87817850D01*
X151293306Y-87813306D01*
X151297850Y-87809187D01*
X151302777Y-87805533D01*
X151308038Y-87802380D01*
X151313582Y-87799758D01*
X151319357Y-87797691D01*
X151325307Y-87796201D01*
X151331374Y-87795301D01*
X151337500Y-87795000D01*
X151462500Y-87795000D01*
X151468626Y-87795301D01*
X151468626Y-87795301D01*
G37*
D13*
X151400000Y-88232500D03*
D12*
X150900000Y-88172500D03*
D10*
G36*
X150944861Y-88549135D02*
X150936419Y-88546575D01*
X150928639Y-88542416D01*
X150921820Y-88536820D01*
X150788180Y-88403180D01*
X150782584Y-88396361D01*
X150778425Y-88388581D01*
X150775865Y-88380139D01*
X150775000Y-88371360D01*
X150775000Y-87840000D01*
X150775865Y-87831221D01*
X150778425Y-87822779D01*
X150782584Y-87814999D01*
X150788180Y-87808180D01*
X150794999Y-87802584D01*
X150802779Y-87798425D01*
X150811221Y-87795865D01*
X150820000Y-87795000D01*
X150980000Y-87795000D01*
X150988779Y-87795865D01*
X150997221Y-87798425D01*
X151005001Y-87802584D01*
X151011820Y-87808180D01*
X151017416Y-87814999D01*
X151021575Y-87822779D01*
X151024135Y-87831221D01*
X151025000Y-87840000D01*
X151025000Y-88505000D01*
X151024135Y-88513779D01*
X151021575Y-88522221D01*
X151017416Y-88530001D01*
X151011820Y-88536820D01*
X151005001Y-88542416D01*
X150997221Y-88546575D01*
X150988779Y-88549135D01*
X150980000Y-88550000D01*
X150953640Y-88550000D01*
X150944861Y-88549135D01*
X150944861Y-88549135D01*
G37*
D12*
X150402500Y-88670000D03*
D10*
G36*
X150061221Y-88794135D02*
X150052779Y-88791575D01*
X150044999Y-88787416D01*
X150038180Y-88781820D01*
X150032584Y-88775001D01*
X150028425Y-88767221D01*
X150025865Y-88758779D01*
X150025000Y-88750000D01*
X150025000Y-88590000D01*
X150025865Y-88581221D01*
X150028425Y-88572779D01*
X150032584Y-88564999D01*
X150038180Y-88558180D01*
X150044999Y-88552584D01*
X150052779Y-88548425D01*
X150061221Y-88545865D01*
X150070000Y-88545000D01*
X150601360Y-88545000D01*
X150610139Y-88545865D01*
X150618581Y-88548425D01*
X150626361Y-88552584D01*
X150633180Y-88558180D01*
X150766820Y-88691820D01*
X150772416Y-88698639D01*
X150776575Y-88706419D01*
X150779135Y-88714861D01*
X150780000Y-88723640D01*
X150780000Y-88750000D01*
X150779135Y-88758779D01*
X150776575Y-88767221D01*
X150772416Y-88775001D01*
X150766820Y-88781820D01*
X150760001Y-88787416D01*
X150752221Y-88791575D01*
X150743779Y-88794135D01*
X150735000Y-88795000D01*
X150070000Y-88795000D01*
X150061221Y-88794135D01*
X150061221Y-88794135D01*
G37*
G36*
X150843626Y-89045301D02*
X150849693Y-89046201D01*
X150855643Y-89047691D01*
X150861418Y-89049758D01*
X150866962Y-89052380D01*
X150872223Y-89055533D01*
X150877150Y-89059187D01*
X150881694Y-89063306D01*
X150885813Y-89067850D01*
X150889467Y-89072777D01*
X150892620Y-89078038D01*
X150895242Y-89083582D01*
X150897309Y-89089357D01*
X150898799Y-89095307D01*
X150899699Y-89101374D01*
X150900000Y-89107500D01*
X150900000Y-89232500D01*
X150899699Y-89238626D01*
X150898799Y-89244693D01*
X150897309Y-89250643D01*
X150895242Y-89256418D01*
X150892620Y-89261962D01*
X150889467Y-89267223D01*
X150885813Y-89272150D01*
X150881694Y-89276694D01*
X150877150Y-89280813D01*
X150872223Y-89284467D01*
X150866962Y-89287620D01*
X150861418Y-89290242D01*
X150855643Y-89292309D01*
X150849693Y-89293799D01*
X150843626Y-89294699D01*
X150837500Y-89295000D01*
X150087500Y-89295000D01*
X150081374Y-89294699D01*
X150075307Y-89293799D01*
X150069357Y-89292309D01*
X150063582Y-89290242D01*
X150058038Y-89287620D01*
X150052777Y-89284467D01*
X150047850Y-89280813D01*
X150043306Y-89276694D01*
X150039187Y-89272150D01*
X150035533Y-89267223D01*
X150032380Y-89261962D01*
X150029758Y-89256418D01*
X150027691Y-89250643D01*
X150026201Y-89244693D01*
X150025301Y-89238626D01*
X150025000Y-89232500D01*
X150025000Y-89107500D01*
X150025301Y-89101374D01*
X150026201Y-89095307D01*
X150027691Y-89089357D01*
X150029758Y-89083582D01*
X150032380Y-89078038D01*
X150035533Y-89072777D01*
X150039187Y-89067850D01*
X150043306Y-89063306D01*
X150047850Y-89059187D01*
X150052777Y-89055533D01*
X150058038Y-89052380D01*
X150063582Y-89049758D01*
X150069357Y-89047691D01*
X150075307Y-89046201D01*
X150081374Y-89045301D01*
X150087500Y-89045000D01*
X150837500Y-89045000D01*
X150843626Y-89045301D01*
X150843626Y-89045301D01*
G37*
D13*
X150462500Y-89170000D03*
D10*
G36*
X150843626Y-89545301D02*
X150849693Y-89546201D01*
X150855643Y-89547691D01*
X150861418Y-89549758D01*
X150866962Y-89552380D01*
X150872223Y-89555533D01*
X150877150Y-89559187D01*
X150881694Y-89563306D01*
X150885813Y-89567850D01*
X150889467Y-89572777D01*
X150892620Y-89578038D01*
X150895242Y-89583582D01*
X150897309Y-89589357D01*
X150898799Y-89595307D01*
X150899699Y-89601374D01*
X150900000Y-89607500D01*
X150900000Y-89732500D01*
X150899699Y-89738626D01*
X150898799Y-89744693D01*
X150897309Y-89750643D01*
X150895242Y-89756418D01*
X150892620Y-89761962D01*
X150889467Y-89767223D01*
X150885813Y-89772150D01*
X150881694Y-89776694D01*
X150877150Y-89780813D01*
X150872223Y-89784467D01*
X150866962Y-89787620D01*
X150861418Y-89790242D01*
X150855643Y-89792309D01*
X150849693Y-89793799D01*
X150843626Y-89794699D01*
X150837500Y-89795000D01*
X150087500Y-89795000D01*
X150081374Y-89794699D01*
X150075307Y-89793799D01*
X150069357Y-89792309D01*
X150063582Y-89790242D01*
X150058038Y-89787620D01*
X150052777Y-89784467D01*
X150047850Y-89780813D01*
X150043306Y-89776694D01*
X150039187Y-89772150D01*
X150035533Y-89767223D01*
X150032380Y-89761962D01*
X150029758Y-89756418D01*
X150027691Y-89750643D01*
X150026201Y-89744693D01*
X150025301Y-89738626D01*
X150025000Y-89732500D01*
X150025000Y-89607500D01*
X150025301Y-89601374D01*
X150026201Y-89595307D01*
X150027691Y-89589357D01*
X150029758Y-89583582D01*
X150032380Y-89578038D01*
X150035533Y-89572777D01*
X150039187Y-89567850D01*
X150043306Y-89563306D01*
X150047850Y-89559187D01*
X150052777Y-89555533D01*
X150058038Y-89552380D01*
X150063582Y-89549758D01*
X150069357Y-89547691D01*
X150075307Y-89546201D01*
X150081374Y-89545301D01*
X150087500Y-89545000D01*
X150837500Y-89545000D01*
X150843626Y-89545301D01*
X150843626Y-89545301D01*
G37*
D13*
X150462500Y-89670000D03*
D10*
G36*
X150843626Y-90045301D02*
X150849693Y-90046201D01*
X150855643Y-90047691D01*
X150861418Y-90049758D01*
X150866962Y-90052380D01*
X150872223Y-90055533D01*
X150877150Y-90059187D01*
X150881694Y-90063306D01*
X150885813Y-90067850D01*
X150889467Y-90072777D01*
X150892620Y-90078038D01*
X150895242Y-90083582D01*
X150897309Y-90089357D01*
X150898799Y-90095307D01*
X150899699Y-90101374D01*
X150900000Y-90107500D01*
X150900000Y-90232500D01*
X150899699Y-90238626D01*
X150898799Y-90244693D01*
X150897309Y-90250643D01*
X150895242Y-90256418D01*
X150892620Y-90261962D01*
X150889467Y-90267223D01*
X150885813Y-90272150D01*
X150881694Y-90276694D01*
X150877150Y-90280813D01*
X150872223Y-90284467D01*
X150866962Y-90287620D01*
X150861418Y-90290242D01*
X150855643Y-90292309D01*
X150849693Y-90293799D01*
X150843626Y-90294699D01*
X150837500Y-90295000D01*
X150087500Y-90295000D01*
X150081374Y-90294699D01*
X150075307Y-90293799D01*
X150069357Y-90292309D01*
X150063582Y-90290242D01*
X150058038Y-90287620D01*
X150052777Y-90284467D01*
X150047850Y-90280813D01*
X150043306Y-90276694D01*
X150039187Y-90272150D01*
X150035533Y-90267223D01*
X150032380Y-90261962D01*
X150029758Y-90256418D01*
X150027691Y-90250643D01*
X150026201Y-90244693D01*
X150025301Y-90238626D01*
X150025000Y-90232500D01*
X150025000Y-90107500D01*
X150025301Y-90101374D01*
X150026201Y-90095307D01*
X150027691Y-90089357D01*
X150029758Y-90083582D01*
X150032380Y-90078038D01*
X150035533Y-90072777D01*
X150039187Y-90067850D01*
X150043306Y-90063306D01*
X150047850Y-90059187D01*
X150052777Y-90055533D01*
X150058038Y-90052380D01*
X150063582Y-90049758D01*
X150069357Y-90047691D01*
X150075307Y-90046201D01*
X150081374Y-90045301D01*
X150087500Y-90045000D01*
X150837500Y-90045000D01*
X150843626Y-90045301D01*
X150843626Y-90045301D01*
G37*
D13*
X150462500Y-90170000D03*
D10*
G36*
X150843626Y-90545301D02*
X150849693Y-90546201D01*
X150855643Y-90547691D01*
X150861418Y-90549758D01*
X150866962Y-90552380D01*
X150872223Y-90555533D01*
X150877150Y-90559187D01*
X150881694Y-90563306D01*
X150885813Y-90567850D01*
X150889467Y-90572777D01*
X150892620Y-90578038D01*
X150895242Y-90583582D01*
X150897309Y-90589357D01*
X150898799Y-90595307D01*
X150899699Y-90601374D01*
X150900000Y-90607500D01*
X150900000Y-90732500D01*
X150899699Y-90738626D01*
X150898799Y-90744693D01*
X150897309Y-90750643D01*
X150895242Y-90756418D01*
X150892620Y-90761962D01*
X150889467Y-90767223D01*
X150885813Y-90772150D01*
X150881694Y-90776694D01*
X150877150Y-90780813D01*
X150872223Y-90784467D01*
X150866962Y-90787620D01*
X150861418Y-90790242D01*
X150855643Y-90792309D01*
X150849693Y-90793799D01*
X150843626Y-90794699D01*
X150837500Y-90795000D01*
X150087500Y-90795000D01*
X150081374Y-90794699D01*
X150075307Y-90793799D01*
X150069357Y-90792309D01*
X150063582Y-90790242D01*
X150058038Y-90787620D01*
X150052777Y-90784467D01*
X150047850Y-90780813D01*
X150043306Y-90776694D01*
X150039187Y-90772150D01*
X150035533Y-90767223D01*
X150032380Y-90761962D01*
X150029758Y-90756418D01*
X150027691Y-90750643D01*
X150026201Y-90744693D01*
X150025301Y-90738626D01*
X150025000Y-90732500D01*
X150025000Y-90607500D01*
X150025301Y-90601374D01*
X150026201Y-90595307D01*
X150027691Y-90589357D01*
X150029758Y-90583582D01*
X150032380Y-90578038D01*
X150035533Y-90572777D01*
X150039187Y-90567850D01*
X150043306Y-90563306D01*
X150047850Y-90559187D01*
X150052777Y-90555533D01*
X150058038Y-90552380D01*
X150063582Y-90549758D01*
X150069357Y-90547691D01*
X150075307Y-90546201D01*
X150081374Y-90545301D01*
X150087500Y-90545000D01*
X150837500Y-90545000D01*
X150843626Y-90545301D01*
X150843626Y-90545301D01*
G37*
D13*
X150462500Y-90670000D03*
D10*
G36*
X150843626Y-91045301D02*
X150849693Y-91046201D01*
X150855643Y-91047691D01*
X150861418Y-91049758D01*
X150866962Y-91052380D01*
X150872223Y-91055533D01*
X150877150Y-91059187D01*
X150881694Y-91063306D01*
X150885813Y-91067850D01*
X150889467Y-91072777D01*
X150892620Y-91078038D01*
X150895242Y-91083582D01*
X150897309Y-91089357D01*
X150898799Y-91095307D01*
X150899699Y-91101374D01*
X150900000Y-91107500D01*
X150900000Y-91232500D01*
X150899699Y-91238626D01*
X150898799Y-91244693D01*
X150897309Y-91250643D01*
X150895242Y-91256418D01*
X150892620Y-91261962D01*
X150889467Y-91267223D01*
X150885813Y-91272150D01*
X150881694Y-91276694D01*
X150877150Y-91280813D01*
X150872223Y-91284467D01*
X150866962Y-91287620D01*
X150861418Y-91290242D01*
X150855643Y-91292309D01*
X150849693Y-91293799D01*
X150843626Y-91294699D01*
X150837500Y-91295000D01*
X150087500Y-91295000D01*
X150081374Y-91294699D01*
X150075307Y-91293799D01*
X150069357Y-91292309D01*
X150063582Y-91290242D01*
X150058038Y-91287620D01*
X150052777Y-91284467D01*
X150047850Y-91280813D01*
X150043306Y-91276694D01*
X150039187Y-91272150D01*
X150035533Y-91267223D01*
X150032380Y-91261962D01*
X150029758Y-91256418D01*
X150027691Y-91250643D01*
X150026201Y-91244693D01*
X150025301Y-91238626D01*
X150025000Y-91232500D01*
X150025000Y-91107500D01*
X150025301Y-91101374D01*
X150026201Y-91095307D01*
X150027691Y-91089357D01*
X150029758Y-91083582D01*
X150032380Y-91078038D01*
X150035533Y-91072777D01*
X150039187Y-91067850D01*
X150043306Y-91063306D01*
X150047850Y-91059187D01*
X150052777Y-91055533D01*
X150058038Y-91052380D01*
X150063582Y-91049758D01*
X150069357Y-91047691D01*
X150075307Y-91046201D01*
X150081374Y-91045301D01*
X150087500Y-91045000D01*
X150837500Y-91045000D01*
X150843626Y-91045301D01*
X150843626Y-91045301D01*
G37*
D13*
X150462500Y-91170000D03*
D12*
X150402500Y-91670000D03*
D10*
G36*
X150061221Y-91794135D02*
X150052779Y-91791575D01*
X150044999Y-91787416D01*
X150038180Y-91781820D01*
X150032584Y-91775001D01*
X150028425Y-91767221D01*
X150025865Y-91758779D01*
X150025000Y-91750000D01*
X150025000Y-91590000D01*
X150025865Y-91581221D01*
X150028425Y-91572779D01*
X150032584Y-91564999D01*
X150038180Y-91558180D01*
X150044999Y-91552584D01*
X150052779Y-91548425D01*
X150061221Y-91545865D01*
X150070000Y-91545000D01*
X150735000Y-91545000D01*
X150743779Y-91545865D01*
X150752221Y-91548425D01*
X150760001Y-91552584D01*
X150766820Y-91558180D01*
X150772416Y-91564999D01*
X150776575Y-91572779D01*
X150779135Y-91581221D01*
X150780000Y-91590000D01*
X150780000Y-91616360D01*
X150779135Y-91625139D01*
X150776575Y-91633581D01*
X150772416Y-91641361D01*
X150766820Y-91648180D01*
X150633180Y-91781820D01*
X150626361Y-91787416D01*
X150618581Y-91791575D01*
X150610139Y-91794135D01*
X150601360Y-91795000D01*
X150070000Y-91795000D01*
X150061221Y-91794135D01*
X150061221Y-91794135D01*
G37*
D12*
X150900000Y-92167500D03*
D10*
G36*
X150811221Y-92544135D02*
X150802779Y-92541575D01*
X150794999Y-92537416D01*
X150788180Y-92531820D01*
X150782584Y-92525001D01*
X150778425Y-92517221D01*
X150775865Y-92508779D01*
X150775000Y-92500000D01*
X150775000Y-91968640D01*
X150775865Y-91959861D01*
X150778425Y-91951419D01*
X150782584Y-91943639D01*
X150788180Y-91936820D01*
X150921820Y-91803180D01*
X150928639Y-91797584D01*
X150936419Y-91793425D01*
X150944861Y-91790865D01*
X150953640Y-91790000D01*
X150980000Y-91790000D01*
X150988779Y-91790865D01*
X150997221Y-91793425D01*
X151005001Y-91797584D01*
X151011820Y-91803180D01*
X151017416Y-91809999D01*
X151021575Y-91817779D01*
X151024135Y-91826221D01*
X151025000Y-91835000D01*
X151025000Y-92500000D01*
X151024135Y-92508779D01*
X151021575Y-92517221D01*
X151017416Y-92525001D01*
X151011820Y-92531820D01*
X151005001Y-92537416D01*
X150997221Y-92541575D01*
X150988779Y-92544135D01*
X150980000Y-92545000D01*
X150820000Y-92545000D01*
X150811221Y-92544135D01*
X150811221Y-92544135D01*
G37*
G36*
X151468626Y-91670301D02*
X151474693Y-91671201D01*
X151480643Y-91672691D01*
X151486418Y-91674758D01*
X151491962Y-91677380D01*
X151497223Y-91680533D01*
X151502150Y-91684187D01*
X151506694Y-91688306D01*
X151510813Y-91692850D01*
X151514467Y-91697777D01*
X151517620Y-91703038D01*
X151520242Y-91708582D01*
X151522309Y-91714357D01*
X151523799Y-91720307D01*
X151524699Y-91726374D01*
X151525000Y-91732500D01*
X151525000Y-92482500D01*
X151524699Y-92488626D01*
X151523799Y-92494693D01*
X151522309Y-92500643D01*
X151520242Y-92506418D01*
X151517620Y-92511962D01*
X151514467Y-92517223D01*
X151510813Y-92522150D01*
X151506694Y-92526694D01*
X151502150Y-92530813D01*
X151497223Y-92534467D01*
X151491962Y-92537620D01*
X151486418Y-92540242D01*
X151480643Y-92542309D01*
X151474693Y-92543799D01*
X151468626Y-92544699D01*
X151462500Y-92545000D01*
X151337500Y-92545000D01*
X151331374Y-92544699D01*
X151325307Y-92543799D01*
X151319357Y-92542309D01*
X151313582Y-92540242D01*
X151308038Y-92537620D01*
X151302777Y-92534467D01*
X151297850Y-92530813D01*
X151293306Y-92526694D01*
X151289187Y-92522150D01*
X151285533Y-92517223D01*
X151282380Y-92511962D01*
X151279758Y-92506418D01*
X151277691Y-92500643D01*
X151276201Y-92494693D01*
X151275301Y-92488626D01*
X151275000Y-92482500D01*
X151275000Y-91732500D01*
X151275301Y-91726374D01*
X151276201Y-91720307D01*
X151277691Y-91714357D01*
X151279758Y-91708582D01*
X151282380Y-91703038D01*
X151285533Y-91697777D01*
X151289187Y-91692850D01*
X151293306Y-91688306D01*
X151297850Y-91684187D01*
X151302777Y-91680533D01*
X151308038Y-91677380D01*
X151313582Y-91674758D01*
X151319357Y-91672691D01*
X151325307Y-91671201D01*
X151331374Y-91670301D01*
X151337500Y-91670000D01*
X151462500Y-91670000D01*
X151468626Y-91670301D01*
X151468626Y-91670301D01*
G37*
D13*
X151400000Y-92107500D03*
D10*
G36*
X151968626Y-91670301D02*
X151974693Y-91671201D01*
X151980643Y-91672691D01*
X151986418Y-91674758D01*
X151991962Y-91677380D01*
X151997223Y-91680533D01*
X152002150Y-91684187D01*
X152006694Y-91688306D01*
X152010813Y-91692850D01*
X152014467Y-91697777D01*
X152017620Y-91703038D01*
X152020242Y-91708582D01*
X152022309Y-91714357D01*
X152023799Y-91720307D01*
X152024699Y-91726374D01*
X152025000Y-91732500D01*
X152025000Y-92482500D01*
X152024699Y-92488626D01*
X152023799Y-92494693D01*
X152022309Y-92500643D01*
X152020242Y-92506418D01*
X152017620Y-92511962D01*
X152014467Y-92517223D01*
X152010813Y-92522150D01*
X152006694Y-92526694D01*
X152002150Y-92530813D01*
X151997223Y-92534467D01*
X151991962Y-92537620D01*
X151986418Y-92540242D01*
X151980643Y-92542309D01*
X151974693Y-92543799D01*
X151968626Y-92544699D01*
X151962500Y-92545000D01*
X151837500Y-92545000D01*
X151831374Y-92544699D01*
X151825307Y-92543799D01*
X151819357Y-92542309D01*
X151813582Y-92540242D01*
X151808038Y-92537620D01*
X151802777Y-92534467D01*
X151797850Y-92530813D01*
X151793306Y-92526694D01*
X151789187Y-92522150D01*
X151785533Y-92517223D01*
X151782380Y-92511962D01*
X151779758Y-92506418D01*
X151777691Y-92500643D01*
X151776201Y-92494693D01*
X151775301Y-92488626D01*
X151775000Y-92482500D01*
X151775000Y-91732500D01*
X151775301Y-91726374D01*
X151776201Y-91720307D01*
X151777691Y-91714357D01*
X151779758Y-91708582D01*
X151782380Y-91703038D01*
X151785533Y-91697777D01*
X151789187Y-91692850D01*
X151793306Y-91688306D01*
X151797850Y-91684187D01*
X151802777Y-91680533D01*
X151808038Y-91677380D01*
X151813582Y-91674758D01*
X151819357Y-91672691D01*
X151825307Y-91671201D01*
X151831374Y-91670301D01*
X151837500Y-91670000D01*
X151962500Y-91670000D01*
X151968626Y-91670301D01*
X151968626Y-91670301D01*
G37*
D13*
X151900000Y-92107500D03*
D10*
G36*
X152468626Y-91670301D02*
X152474693Y-91671201D01*
X152480643Y-91672691D01*
X152486418Y-91674758D01*
X152491962Y-91677380D01*
X152497223Y-91680533D01*
X152502150Y-91684187D01*
X152506694Y-91688306D01*
X152510813Y-91692850D01*
X152514467Y-91697777D01*
X152517620Y-91703038D01*
X152520242Y-91708582D01*
X152522309Y-91714357D01*
X152523799Y-91720307D01*
X152524699Y-91726374D01*
X152525000Y-91732500D01*
X152525000Y-92482500D01*
X152524699Y-92488626D01*
X152523799Y-92494693D01*
X152522309Y-92500643D01*
X152520242Y-92506418D01*
X152517620Y-92511962D01*
X152514467Y-92517223D01*
X152510813Y-92522150D01*
X152506694Y-92526694D01*
X152502150Y-92530813D01*
X152497223Y-92534467D01*
X152491962Y-92537620D01*
X152486418Y-92540242D01*
X152480643Y-92542309D01*
X152474693Y-92543799D01*
X152468626Y-92544699D01*
X152462500Y-92545000D01*
X152337500Y-92545000D01*
X152331374Y-92544699D01*
X152325307Y-92543799D01*
X152319357Y-92542309D01*
X152313582Y-92540242D01*
X152308038Y-92537620D01*
X152302777Y-92534467D01*
X152297850Y-92530813D01*
X152293306Y-92526694D01*
X152289187Y-92522150D01*
X152285533Y-92517223D01*
X152282380Y-92511962D01*
X152279758Y-92506418D01*
X152277691Y-92500643D01*
X152276201Y-92494693D01*
X152275301Y-92488626D01*
X152275000Y-92482500D01*
X152275000Y-91732500D01*
X152275301Y-91726374D01*
X152276201Y-91720307D01*
X152277691Y-91714357D01*
X152279758Y-91708582D01*
X152282380Y-91703038D01*
X152285533Y-91697777D01*
X152289187Y-91692850D01*
X152293306Y-91688306D01*
X152297850Y-91684187D01*
X152302777Y-91680533D01*
X152308038Y-91677380D01*
X152313582Y-91674758D01*
X152319357Y-91672691D01*
X152325307Y-91671201D01*
X152331374Y-91670301D01*
X152337500Y-91670000D01*
X152462500Y-91670000D01*
X152468626Y-91670301D01*
X152468626Y-91670301D01*
G37*
D13*
X152400000Y-92107500D03*
D10*
G36*
X152968626Y-91670301D02*
X152974693Y-91671201D01*
X152980643Y-91672691D01*
X152986418Y-91674758D01*
X152991962Y-91677380D01*
X152997223Y-91680533D01*
X153002150Y-91684187D01*
X153006694Y-91688306D01*
X153010813Y-91692850D01*
X153014467Y-91697777D01*
X153017620Y-91703038D01*
X153020242Y-91708582D01*
X153022309Y-91714357D01*
X153023799Y-91720307D01*
X153024699Y-91726374D01*
X153025000Y-91732500D01*
X153025000Y-92482500D01*
X153024699Y-92488626D01*
X153023799Y-92494693D01*
X153022309Y-92500643D01*
X153020242Y-92506418D01*
X153017620Y-92511962D01*
X153014467Y-92517223D01*
X153010813Y-92522150D01*
X153006694Y-92526694D01*
X153002150Y-92530813D01*
X152997223Y-92534467D01*
X152991962Y-92537620D01*
X152986418Y-92540242D01*
X152980643Y-92542309D01*
X152974693Y-92543799D01*
X152968626Y-92544699D01*
X152962500Y-92545000D01*
X152837500Y-92545000D01*
X152831374Y-92544699D01*
X152825307Y-92543799D01*
X152819357Y-92542309D01*
X152813582Y-92540242D01*
X152808038Y-92537620D01*
X152802777Y-92534467D01*
X152797850Y-92530813D01*
X152793306Y-92526694D01*
X152789187Y-92522150D01*
X152785533Y-92517223D01*
X152782380Y-92511962D01*
X152779758Y-92506418D01*
X152777691Y-92500643D01*
X152776201Y-92494693D01*
X152775301Y-92488626D01*
X152775000Y-92482500D01*
X152775000Y-91732500D01*
X152775301Y-91726374D01*
X152776201Y-91720307D01*
X152777691Y-91714357D01*
X152779758Y-91708582D01*
X152782380Y-91703038D01*
X152785533Y-91697777D01*
X152789187Y-91692850D01*
X152793306Y-91688306D01*
X152797850Y-91684187D01*
X152802777Y-91680533D01*
X152808038Y-91677380D01*
X152813582Y-91674758D01*
X152819357Y-91672691D01*
X152825307Y-91671201D01*
X152831374Y-91670301D01*
X152837500Y-91670000D01*
X152962500Y-91670000D01*
X152968626Y-91670301D01*
X152968626Y-91670301D01*
G37*
D13*
X152900000Y-92107500D03*
D10*
G36*
X153468626Y-91670301D02*
X153474693Y-91671201D01*
X153480643Y-91672691D01*
X153486418Y-91674758D01*
X153491962Y-91677380D01*
X153497223Y-91680533D01*
X153502150Y-91684187D01*
X153506694Y-91688306D01*
X153510813Y-91692850D01*
X153514467Y-91697777D01*
X153517620Y-91703038D01*
X153520242Y-91708582D01*
X153522309Y-91714357D01*
X153523799Y-91720307D01*
X153524699Y-91726374D01*
X153525000Y-91732500D01*
X153525000Y-92482500D01*
X153524699Y-92488626D01*
X153523799Y-92494693D01*
X153522309Y-92500643D01*
X153520242Y-92506418D01*
X153517620Y-92511962D01*
X153514467Y-92517223D01*
X153510813Y-92522150D01*
X153506694Y-92526694D01*
X153502150Y-92530813D01*
X153497223Y-92534467D01*
X153491962Y-92537620D01*
X153486418Y-92540242D01*
X153480643Y-92542309D01*
X153474693Y-92543799D01*
X153468626Y-92544699D01*
X153462500Y-92545000D01*
X153337500Y-92545000D01*
X153331374Y-92544699D01*
X153325307Y-92543799D01*
X153319357Y-92542309D01*
X153313582Y-92540242D01*
X153308038Y-92537620D01*
X153302777Y-92534467D01*
X153297850Y-92530813D01*
X153293306Y-92526694D01*
X153289187Y-92522150D01*
X153285533Y-92517223D01*
X153282380Y-92511962D01*
X153279758Y-92506418D01*
X153277691Y-92500643D01*
X153276201Y-92494693D01*
X153275301Y-92488626D01*
X153275000Y-92482500D01*
X153275000Y-91732500D01*
X153275301Y-91726374D01*
X153276201Y-91720307D01*
X153277691Y-91714357D01*
X153279758Y-91708582D01*
X153282380Y-91703038D01*
X153285533Y-91697777D01*
X153289187Y-91692850D01*
X153293306Y-91688306D01*
X153297850Y-91684187D01*
X153302777Y-91680533D01*
X153308038Y-91677380D01*
X153313582Y-91674758D01*
X153319357Y-91672691D01*
X153325307Y-91671201D01*
X153331374Y-91670301D01*
X153337500Y-91670000D01*
X153462500Y-91670000D01*
X153468626Y-91670301D01*
X153468626Y-91670301D01*
G37*
D13*
X153400000Y-92107500D03*
D12*
X153900000Y-92167500D03*
D10*
G36*
X153811221Y-92544135D02*
X153802779Y-92541575D01*
X153794999Y-92537416D01*
X153788180Y-92531820D01*
X153782584Y-92525001D01*
X153778425Y-92517221D01*
X153775865Y-92508779D01*
X153775000Y-92500000D01*
X153775000Y-91835000D01*
X153775865Y-91826221D01*
X153778425Y-91817779D01*
X153782584Y-91809999D01*
X153788180Y-91803180D01*
X153794999Y-91797584D01*
X153802779Y-91793425D01*
X153811221Y-91790865D01*
X153820000Y-91790000D01*
X153846360Y-91790000D01*
X153855139Y-91790865D01*
X153863581Y-91793425D01*
X153871361Y-91797584D01*
X153878180Y-91803180D01*
X154011820Y-91936820D01*
X154017416Y-91943639D01*
X154021575Y-91951419D01*
X154024135Y-91959861D01*
X154025000Y-91968640D01*
X154025000Y-92500000D01*
X154024135Y-92508779D01*
X154021575Y-92517221D01*
X154017416Y-92525001D01*
X154011820Y-92531820D01*
X154005001Y-92537416D01*
X153997221Y-92541575D01*
X153988779Y-92544135D01*
X153980000Y-92545000D01*
X153820000Y-92545000D01*
X153811221Y-92544135D01*
X153811221Y-92544135D01*
G37*
G04 #@! TD*
G04 #@! TO.C,D1*
G36*
X146789505Y-92011204D02*
X146813773Y-92014804D01*
X146837572Y-92020765D01*
X146860671Y-92029030D01*
X146882850Y-92039520D01*
X146903893Y-92052132D01*
X146923599Y-92066747D01*
X146941777Y-92083223D01*
X146958253Y-92101401D01*
X146972868Y-92121107D01*
X146985480Y-92142150D01*
X146995970Y-92164329D01*
X147004235Y-92187428D01*
X147010196Y-92211227D01*
X147013796Y-92235495D01*
X147015000Y-92259999D01*
X147015000Y-93160001D01*
X147013796Y-93184505D01*
X147010196Y-93208773D01*
X147004235Y-93232572D01*
X146995970Y-93255671D01*
X146985480Y-93277850D01*
X146972868Y-93298893D01*
X146958253Y-93318599D01*
X146941777Y-93336777D01*
X146923599Y-93353253D01*
X146903893Y-93367868D01*
X146882850Y-93380480D01*
X146860671Y-93390970D01*
X146837572Y-93399235D01*
X146813773Y-93405196D01*
X146789505Y-93408796D01*
X146765001Y-93410000D01*
X146114999Y-93410000D01*
X146090495Y-93408796D01*
X146066227Y-93405196D01*
X146042428Y-93399235D01*
X146019329Y-93390970D01*
X145997150Y-93380480D01*
X145976107Y-93367868D01*
X145956401Y-93353253D01*
X145938223Y-93336777D01*
X145921747Y-93318599D01*
X145907132Y-93298893D01*
X145894520Y-93277850D01*
X145884030Y-93255671D01*
X145875765Y-93232572D01*
X145869804Y-93208773D01*
X145866204Y-93184505D01*
X145865000Y-93160001D01*
X145865000Y-92259999D01*
X145866204Y-92235495D01*
X145869804Y-92211227D01*
X145875765Y-92187428D01*
X145884030Y-92164329D01*
X145894520Y-92142150D01*
X145907132Y-92121107D01*
X145921747Y-92101401D01*
X145938223Y-92083223D01*
X145956401Y-92066747D01*
X145976107Y-92052132D01*
X145997150Y-92039520D01*
X146019329Y-92029030D01*
X146042428Y-92020765D01*
X146066227Y-92014804D01*
X146090495Y-92011204D01*
X146114999Y-92010000D01*
X146765001Y-92010000D01*
X146789505Y-92011204D01*
X146789505Y-92011204D01*
G37*
D14*
X146440000Y-92710000D03*
D10*
G36*
X144739505Y-92011204D02*
X144763773Y-92014804D01*
X144787572Y-92020765D01*
X144810671Y-92029030D01*
X144832850Y-92039520D01*
X144853893Y-92052132D01*
X144873599Y-92066747D01*
X144891777Y-92083223D01*
X144908253Y-92101401D01*
X144922868Y-92121107D01*
X144935480Y-92142150D01*
X144945970Y-92164329D01*
X144954235Y-92187428D01*
X144960196Y-92211227D01*
X144963796Y-92235495D01*
X144965000Y-92259999D01*
X144965000Y-93160001D01*
X144963796Y-93184505D01*
X144960196Y-93208773D01*
X144954235Y-93232572D01*
X144945970Y-93255671D01*
X144935480Y-93277850D01*
X144922868Y-93298893D01*
X144908253Y-93318599D01*
X144891777Y-93336777D01*
X144873599Y-93353253D01*
X144853893Y-93367868D01*
X144832850Y-93380480D01*
X144810671Y-93390970D01*
X144787572Y-93399235D01*
X144763773Y-93405196D01*
X144739505Y-93408796D01*
X144715001Y-93410000D01*
X144064999Y-93410000D01*
X144040495Y-93408796D01*
X144016227Y-93405196D01*
X143992428Y-93399235D01*
X143969329Y-93390970D01*
X143947150Y-93380480D01*
X143926107Y-93367868D01*
X143906401Y-93353253D01*
X143888223Y-93336777D01*
X143871747Y-93318599D01*
X143857132Y-93298893D01*
X143844520Y-93277850D01*
X143834030Y-93255671D01*
X143825765Y-93232572D01*
X143819804Y-93208773D01*
X143816204Y-93184505D01*
X143815000Y-93160001D01*
X143815000Y-92259999D01*
X143816204Y-92235495D01*
X143819804Y-92211227D01*
X143825765Y-92187428D01*
X143834030Y-92164329D01*
X143844520Y-92142150D01*
X143857132Y-92121107D01*
X143871747Y-92101401D01*
X143888223Y-92083223D01*
X143906401Y-92066747D01*
X143926107Y-92052132D01*
X143947150Y-92039520D01*
X143969329Y-92029030D01*
X143992428Y-92020765D01*
X144016227Y-92014804D01*
X144040495Y-92011204D01*
X144064999Y-92010000D01*
X144715001Y-92010000D01*
X144739505Y-92011204D01*
X144739505Y-92011204D01*
G37*
D14*
X144390000Y-92710000D03*
G04 #@! TD*
D10*
G04 #@! TO.C,D2*
G36*
X144739505Y-88201204D02*
X144763773Y-88204804D01*
X144787572Y-88210765D01*
X144810671Y-88219030D01*
X144832850Y-88229520D01*
X144853893Y-88242132D01*
X144873599Y-88256747D01*
X144891777Y-88273223D01*
X144908253Y-88291401D01*
X144922868Y-88311107D01*
X144935480Y-88332150D01*
X144945970Y-88354329D01*
X144954235Y-88377428D01*
X144960196Y-88401227D01*
X144963796Y-88425495D01*
X144965000Y-88449999D01*
X144965000Y-89350001D01*
X144963796Y-89374505D01*
X144960196Y-89398773D01*
X144954235Y-89422572D01*
X144945970Y-89445671D01*
X144935480Y-89467850D01*
X144922868Y-89488893D01*
X144908253Y-89508599D01*
X144891777Y-89526777D01*
X144873599Y-89543253D01*
X144853893Y-89557868D01*
X144832850Y-89570480D01*
X144810671Y-89580970D01*
X144787572Y-89589235D01*
X144763773Y-89595196D01*
X144739505Y-89598796D01*
X144715001Y-89600000D01*
X144064999Y-89600000D01*
X144040495Y-89598796D01*
X144016227Y-89595196D01*
X143992428Y-89589235D01*
X143969329Y-89580970D01*
X143947150Y-89570480D01*
X143926107Y-89557868D01*
X143906401Y-89543253D01*
X143888223Y-89526777D01*
X143871747Y-89508599D01*
X143857132Y-89488893D01*
X143844520Y-89467850D01*
X143834030Y-89445671D01*
X143825765Y-89422572D01*
X143819804Y-89398773D01*
X143816204Y-89374505D01*
X143815000Y-89350001D01*
X143815000Y-88449999D01*
X143816204Y-88425495D01*
X143819804Y-88401227D01*
X143825765Y-88377428D01*
X143834030Y-88354329D01*
X143844520Y-88332150D01*
X143857132Y-88311107D01*
X143871747Y-88291401D01*
X143888223Y-88273223D01*
X143906401Y-88256747D01*
X143926107Y-88242132D01*
X143947150Y-88229520D01*
X143969329Y-88219030D01*
X143992428Y-88210765D01*
X144016227Y-88204804D01*
X144040495Y-88201204D01*
X144064999Y-88200000D01*
X144715001Y-88200000D01*
X144739505Y-88201204D01*
X144739505Y-88201204D01*
G37*
D14*
X144390000Y-88900000D03*
D10*
G36*
X146789505Y-88201204D02*
X146813773Y-88204804D01*
X146837572Y-88210765D01*
X146860671Y-88219030D01*
X146882850Y-88229520D01*
X146903893Y-88242132D01*
X146923599Y-88256747D01*
X146941777Y-88273223D01*
X146958253Y-88291401D01*
X146972868Y-88311107D01*
X146985480Y-88332150D01*
X146995970Y-88354329D01*
X147004235Y-88377428D01*
X147010196Y-88401227D01*
X147013796Y-88425495D01*
X147015000Y-88449999D01*
X147015000Y-89350001D01*
X147013796Y-89374505D01*
X147010196Y-89398773D01*
X147004235Y-89422572D01*
X146995970Y-89445671D01*
X146985480Y-89467850D01*
X146972868Y-89488893D01*
X146958253Y-89508599D01*
X146941777Y-89526777D01*
X146923599Y-89543253D01*
X146903893Y-89557868D01*
X146882850Y-89570480D01*
X146860671Y-89580970D01*
X146837572Y-89589235D01*
X146813773Y-89595196D01*
X146789505Y-89598796D01*
X146765001Y-89600000D01*
X146114999Y-89600000D01*
X146090495Y-89598796D01*
X146066227Y-89595196D01*
X146042428Y-89589235D01*
X146019329Y-89580970D01*
X145997150Y-89570480D01*
X145976107Y-89557868D01*
X145956401Y-89543253D01*
X145938223Y-89526777D01*
X145921747Y-89508599D01*
X145907132Y-89488893D01*
X145894520Y-89467850D01*
X145884030Y-89445671D01*
X145875765Y-89422572D01*
X145869804Y-89398773D01*
X145866204Y-89374505D01*
X145865000Y-89350001D01*
X145865000Y-88449999D01*
X145866204Y-88425495D01*
X145869804Y-88401227D01*
X145875765Y-88377428D01*
X145884030Y-88354329D01*
X145894520Y-88332150D01*
X145907132Y-88311107D01*
X145921747Y-88291401D01*
X145938223Y-88273223D01*
X145956401Y-88256747D01*
X145976107Y-88242132D01*
X145997150Y-88229520D01*
X146019329Y-88219030D01*
X146042428Y-88210765D01*
X146066227Y-88204804D01*
X146090495Y-88201204D01*
X146114999Y-88200000D01*
X146765001Y-88200000D01*
X146789505Y-88201204D01*
X146789505Y-88201204D01*
G37*
D14*
X146440000Y-88900000D03*
G04 #@! TD*
D10*
G04 #@! TO.C,D3*
G36*
X146789505Y-84391204D02*
X146813773Y-84394804D01*
X146837572Y-84400765D01*
X146860671Y-84409030D01*
X146882850Y-84419520D01*
X146903893Y-84432132D01*
X146923599Y-84446747D01*
X146941777Y-84463223D01*
X146958253Y-84481401D01*
X146972868Y-84501107D01*
X146985480Y-84522150D01*
X146995970Y-84544329D01*
X147004235Y-84567428D01*
X147010196Y-84591227D01*
X147013796Y-84615495D01*
X147015000Y-84639999D01*
X147015000Y-85540001D01*
X147013796Y-85564505D01*
X147010196Y-85588773D01*
X147004235Y-85612572D01*
X146995970Y-85635671D01*
X146985480Y-85657850D01*
X146972868Y-85678893D01*
X146958253Y-85698599D01*
X146941777Y-85716777D01*
X146923599Y-85733253D01*
X146903893Y-85747868D01*
X146882850Y-85760480D01*
X146860671Y-85770970D01*
X146837572Y-85779235D01*
X146813773Y-85785196D01*
X146789505Y-85788796D01*
X146765001Y-85790000D01*
X146114999Y-85790000D01*
X146090495Y-85788796D01*
X146066227Y-85785196D01*
X146042428Y-85779235D01*
X146019329Y-85770970D01*
X145997150Y-85760480D01*
X145976107Y-85747868D01*
X145956401Y-85733253D01*
X145938223Y-85716777D01*
X145921747Y-85698599D01*
X145907132Y-85678893D01*
X145894520Y-85657850D01*
X145884030Y-85635671D01*
X145875765Y-85612572D01*
X145869804Y-85588773D01*
X145866204Y-85564505D01*
X145865000Y-85540001D01*
X145865000Y-84639999D01*
X145866204Y-84615495D01*
X145869804Y-84591227D01*
X145875765Y-84567428D01*
X145884030Y-84544329D01*
X145894520Y-84522150D01*
X145907132Y-84501107D01*
X145921747Y-84481401D01*
X145938223Y-84463223D01*
X145956401Y-84446747D01*
X145976107Y-84432132D01*
X145997150Y-84419520D01*
X146019329Y-84409030D01*
X146042428Y-84400765D01*
X146066227Y-84394804D01*
X146090495Y-84391204D01*
X146114999Y-84390000D01*
X146765001Y-84390000D01*
X146789505Y-84391204D01*
X146789505Y-84391204D01*
G37*
D14*
X146440000Y-85090000D03*
D10*
G36*
X144739505Y-84391204D02*
X144763773Y-84394804D01*
X144787572Y-84400765D01*
X144810671Y-84409030D01*
X144832850Y-84419520D01*
X144853893Y-84432132D01*
X144873599Y-84446747D01*
X144891777Y-84463223D01*
X144908253Y-84481401D01*
X144922868Y-84501107D01*
X144935480Y-84522150D01*
X144945970Y-84544329D01*
X144954235Y-84567428D01*
X144960196Y-84591227D01*
X144963796Y-84615495D01*
X144965000Y-84639999D01*
X144965000Y-85540001D01*
X144963796Y-85564505D01*
X144960196Y-85588773D01*
X144954235Y-85612572D01*
X144945970Y-85635671D01*
X144935480Y-85657850D01*
X144922868Y-85678893D01*
X144908253Y-85698599D01*
X144891777Y-85716777D01*
X144873599Y-85733253D01*
X144853893Y-85747868D01*
X144832850Y-85760480D01*
X144810671Y-85770970D01*
X144787572Y-85779235D01*
X144763773Y-85785196D01*
X144739505Y-85788796D01*
X144715001Y-85790000D01*
X144064999Y-85790000D01*
X144040495Y-85788796D01*
X144016227Y-85785196D01*
X143992428Y-85779235D01*
X143969329Y-85770970D01*
X143947150Y-85760480D01*
X143926107Y-85747868D01*
X143906401Y-85733253D01*
X143888223Y-85716777D01*
X143871747Y-85698599D01*
X143857132Y-85678893D01*
X143844520Y-85657850D01*
X143834030Y-85635671D01*
X143825765Y-85612572D01*
X143819804Y-85588773D01*
X143816204Y-85564505D01*
X143815000Y-85540001D01*
X143815000Y-84639999D01*
X143816204Y-84615495D01*
X143819804Y-84591227D01*
X143825765Y-84567428D01*
X143834030Y-84544329D01*
X143844520Y-84522150D01*
X143857132Y-84501107D01*
X143871747Y-84481401D01*
X143888223Y-84463223D01*
X143906401Y-84446747D01*
X143926107Y-84432132D01*
X143947150Y-84419520D01*
X143969329Y-84409030D01*
X143992428Y-84400765D01*
X144016227Y-84394804D01*
X144040495Y-84391204D01*
X144064999Y-84390000D01*
X144715001Y-84390000D01*
X144739505Y-84391204D01*
X144739505Y-84391204D01*
G37*
D14*
X144390000Y-85090000D03*
G04 #@! TD*
D15*
G04 #@! TO.C,J1*
X138430000Y-87701120D03*
X138430000Y-90098880D03*
X138430000Y-92849700D03*
X138430000Y-84950300D03*
D16*
X141430000Y-87599520D03*
X141430000Y-88252300D03*
X141430000Y-88900000D03*
X141430000Y-89547700D03*
X141430000Y-90200480D03*
G04 #@! TD*
M02*
