G04 #@! TF.GenerationSoftware,KiCad,Pcbnew,5.0.2-bee76a0~70~ubuntu16.04.1*
G04 #@! TF.CreationDate,2019-07-30T14:22:58+02:00*
G04 #@! TF.ProjectId,hw-DAP42,68772d44-4150-4343-922e-6b696361645f,rev?*
G04 #@! TF.SameCoordinates,Original*
G04 #@! TF.FileFunction,Paste,Bot*
G04 #@! TF.FilePolarity,Positive*
%FSLAX46Y46*%
G04 Gerber Fmt 4.6, Leading zero omitted, Abs format (unit mm)*
G04 Created by KiCad (PCBNEW 5.0.2-bee76a0~70~ubuntu16.04.1) date Tue 30 Jul 2019 02:22:58 PM CEST*
%MOMM*%
%LPD*%
G01*
G04 APERTURE LIST*
%ADD10C,0.100000*%
%ADD11C,0.975000*%
%ADD12R,1.560000X0.650000*%
G04 APERTURE END LIST*
D10*
G04 #@! TO.C,C1*
G36*
X149160142Y-81851174D02*
X149183803Y-81854684D01*
X149207007Y-81860496D01*
X149229529Y-81868554D01*
X149251153Y-81878782D01*
X149271670Y-81891079D01*
X149290883Y-81905329D01*
X149308607Y-81921393D01*
X149324671Y-81939117D01*
X149338921Y-81958330D01*
X149351218Y-81978847D01*
X149361446Y-82000471D01*
X149369504Y-82022993D01*
X149375316Y-82046197D01*
X149378826Y-82069858D01*
X149380000Y-82093750D01*
X149380000Y-83006250D01*
X149378826Y-83030142D01*
X149375316Y-83053803D01*
X149369504Y-83077007D01*
X149361446Y-83099529D01*
X149351218Y-83121153D01*
X149338921Y-83141670D01*
X149324671Y-83160883D01*
X149308607Y-83178607D01*
X149290883Y-83194671D01*
X149271670Y-83208921D01*
X149251153Y-83221218D01*
X149229529Y-83231446D01*
X149207007Y-83239504D01*
X149183803Y-83245316D01*
X149160142Y-83248826D01*
X149136250Y-83250000D01*
X148648750Y-83250000D01*
X148624858Y-83248826D01*
X148601197Y-83245316D01*
X148577993Y-83239504D01*
X148555471Y-83231446D01*
X148533847Y-83221218D01*
X148513330Y-83208921D01*
X148494117Y-83194671D01*
X148476393Y-83178607D01*
X148460329Y-83160883D01*
X148446079Y-83141670D01*
X148433782Y-83121153D01*
X148423554Y-83099529D01*
X148415496Y-83077007D01*
X148409684Y-83053803D01*
X148406174Y-83030142D01*
X148405000Y-83006250D01*
X148405000Y-82093750D01*
X148406174Y-82069858D01*
X148409684Y-82046197D01*
X148415496Y-82022993D01*
X148423554Y-82000471D01*
X148433782Y-81978847D01*
X148446079Y-81958330D01*
X148460329Y-81939117D01*
X148476393Y-81921393D01*
X148494117Y-81905329D01*
X148513330Y-81891079D01*
X148533847Y-81878782D01*
X148555471Y-81868554D01*
X148577993Y-81860496D01*
X148601197Y-81854684D01*
X148624858Y-81851174D01*
X148648750Y-81850000D01*
X149136250Y-81850000D01*
X149160142Y-81851174D01*
X149160142Y-81851174D01*
G37*
D11*
X148892500Y-82550000D03*
D10*
G36*
X147285142Y-81851174D02*
X147308803Y-81854684D01*
X147332007Y-81860496D01*
X147354529Y-81868554D01*
X147376153Y-81878782D01*
X147396670Y-81891079D01*
X147415883Y-81905329D01*
X147433607Y-81921393D01*
X147449671Y-81939117D01*
X147463921Y-81958330D01*
X147476218Y-81978847D01*
X147486446Y-82000471D01*
X147494504Y-82022993D01*
X147500316Y-82046197D01*
X147503826Y-82069858D01*
X147505000Y-82093750D01*
X147505000Y-83006250D01*
X147503826Y-83030142D01*
X147500316Y-83053803D01*
X147494504Y-83077007D01*
X147486446Y-83099529D01*
X147476218Y-83121153D01*
X147463921Y-83141670D01*
X147449671Y-83160883D01*
X147433607Y-83178607D01*
X147415883Y-83194671D01*
X147396670Y-83208921D01*
X147376153Y-83221218D01*
X147354529Y-83231446D01*
X147332007Y-83239504D01*
X147308803Y-83245316D01*
X147285142Y-83248826D01*
X147261250Y-83250000D01*
X146773750Y-83250000D01*
X146749858Y-83248826D01*
X146726197Y-83245316D01*
X146702993Y-83239504D01*
X146680471Y-83231446D01*
X146658847Y-83221218D01*
X146638330Y-83208921D01*
X146619117Y-83194671D01*
X146601393Y-83178607D01*
X146585329Y-83160883D01*
X146571079Y-83141670D01*
X146558782Y-83121153D01*
X146548554Y-83099529D01*
X146540496Y-83077007D01*
X146534684Y-83053803D01*
X146531174Y-83030142D01*
X146530000Y-83006250D01*
X146530000Y-82093750D01*
X146531174Y-82069858D01*
X146534684Y-82046197D01*
X146540496Y-82022993D01*
X146548554Y-82000471D01*
X146558782Y-81978847D01*
X146571079Y-81958330D01*
X146585329Y-81939117D01*
X146601393Y-81921393D01*
X146619117Y-81905329D01*
X146638330Y-81891079D01*
X146658847Y-81878782D01*
X146680471Y-81868554D01*
X146702993Y-81860496D01*
X146726197Y-81854684D01*
X146749858Y-81851174D01*
X146773750Y-81850000D01*
X147261250Y-81850000D01*
X147285142Y-81851174D01*
X147285142Y-81851174D01*
G37*
D11*
X147017500Y-82550000D03*
G04 #@! TD*
D10*
G04 #@! TO.C,R2*
G36*
X148525142Y-92011174D02*
X148548803Y-92014684D01*
X148572007Y-92020496D01*
X148594529Y-92028554D01*
X148616153Y-92038782D01*
X148636670Y-92051079D01*
X148655883Y-92065329D01*
X148673607Y-92081393D01*
X148689671Y-92099117D01*
X148703921Y-92118330D01*
X148716218Y-92138847D01*
X148726446Y-92160471D01*
X148734504Y-92182993D01*
X148740316Y-92206197D01*
X148743826Y-92229858D01*
X148745000Y-92253750D01*
X148745000Y-93166250D01*
X148743826Y-93190142D01*
X148740316Y-93213803D01*
X148734504Y-93237007D01*
X148726446Y-93259529D01*
X148716218Y-93281153D01*
X148703921Y-93301670D01*
X148689671Y-93320883D01*
X148673607Y-93338607D01*
X148655883Y-93354671D01*
X148636670Y-93368921D01*
X148616153Y-93381218D01*
X148594529Y-93391446D01*
X148572007Y-93399504D01*
X148548803Y-93405316D01*
X148525142Y-93408826D01*
X148501250Y-93410000D01*
X148013750Y-93410000D01*
X147989858Y-93408826D01*
X147966197Y-93405316D01*
X147942993Y-93399504D01*
X147920471Y-93391446D01*
X147898847Y-93381218D01*
X147878330Y-93368921D01*
X147859117Y-93354671D01*
X147841393Y-93338607D01*
X147825329Y-93320883D01*
X147811079Y-93301670D01*
X147798782Y-93281153D01*
X147788554Y-93259529D01*
X147780496Y-93237007D01*
X147774684Y-93213803D01*
X147771174Y-93190142D01*
X147770000Y-93166250D01*
X147770000Y-92253750D01*
X147771174Y-92229858D01*
X147774684Y-92206197D01*
X147780496Y-92182993D01*
X147788554Y-92160471D01*
X147798782Y-92138847D01*
X147811079Y-92118330D01*
X147825329Y-92099117D01*
X147841393Y-92081393D01*
X147859117Y-92065329D01*
X147878330Y-92051079D01*
X147898847Y-92038782D01*
X147920471Y-92028554D01*
X147942993Y-92020496D01*
X147966197Y-92014684D01*
X147989858Y-92011174D01*
X148013750Y-92010000D01*
X148501250Y-92010000D01*
X148525142Y-92011174D01*
X148525142Y-92011174D01*
G37*
D11*
X148257500Y-92710000D03*
D10*
G36*
X146650142Y-92011174D02*
X146673803Y-92014684D01*
X146697007Y-92020496D01*
X146719529Y-92028554D01*
X146741153Y-92038782D01*
X146761670Y-92051079D01*
X146780883Y-92065329D01*
X146798607Y-92081393D01*
X146814671Y-92099117D01*
X146828921Y-92118330D01*
X146841218Y-92138847D01*
X146851446Y-92160471D01*
X146859504Y-92182993D01*
X146865316Y-92206197D01*
X146868826Y-92229858D01*
X146870000Y-92253750D01*
X146870000Y-93166250D01*
X146868826Y-93190142D01*
X146865316Y-93213803D01*
X146859504Y-93237007D01*
X146851446Y-93259529D01*
X146841218Y-93281153D01*
X146828921Y-93301670D01*
X146814671Y-93320883D01*
X146798607Y-93338607D01*
X146780883Y-93354671D01*
X146761670Y-93368921D01*
X146741153Y-93381218D01*
X146719529Y-93391446D01*
X146697007Y-93399504D01*
X146673803Y-93405316D01*
X146650142Y-93408826D01*
X146626250Y-93410000D01*
X146138750Y-93410000D01*
X146114858Y-93408826D01*
X146091197Y-93405316D01*
X146067993Y-93399504D01*
X146045471Y-93391446D01*
X146023847Y-93381218D01*
X146003330Y-93368921D01*
X145984117Y-93354671D01*
X145966393Y-93338607D01*
X145950329Y-93320883D01*
X145936079Y-93301670D01*
X145923782Y-93281153D01*
X145913554Y-93259529D01*
X145905496Y-93237007D01*
X145899684Y-93213803D01*
X145896174Y-93190142D01*
X145895000Y-93166250D01*
X145895000Y-92253750D01*
X145896174Y-92229858D01*
X145899684Y-92206197D01*
X145905496Y-92182993D01*
X145913554Y-92160471D01*
X145923782Y-92138847D01*
X145936079Y-92118330D01*
X145950329Y-92099117D01*
X145966393Y-92081393D01*
X145984117Y-92065329D01*
X146003330Y-92051079D01*
X146023847Y-92038782D01*
X146045471Y-92028554D01*
X146067993Y-92020496D01*
X146091197Y-92014684D01*
X146114858Y-92011174D01*
X146138750Y-92010000D01*
X146626250Y-92010000D01*
X146650142Y-92011174D01*
X146650142Y-92011174D01*
G37*
D11*
X146382500Y-92710000D03*
G04 #@! TD*
D10*
G04 #@! TO.C,R3*
G36*
X148525142Y-88201174D02*
X148548803Y-88204684D01*
X148572007Y-88210496D01*
X148594529Y-88218554D01*
X148616153Y-88228782D01*
X148636670Y-88241079D01*
X148655883Y-88255329D01*
X148673607Y-88271393D01*
X148689671Y-88289117D01*
X148703921Y-88308330D01*
X148716218Y-88328847D01*
X148726446Y-88350471D01*
X148734504Y-88372993D01*
X148740316Y-88396197D01*
X148743826Y-88419858D01*
X148745000Y-88443750D01*
X148745000Y-89356250D01*
X148743826Y-89380142D01*
X148740316Y-89403803D01*
X148734504Y-89427007D01*
X148726446Y-89449529D01*
X148716218Y-89471153D01*
X148703921Y-89491670D01*
X148689671Y-89510883D01*
X148673607Y-89528607D01*
X148655883Y-89544671D01*
X148636670Y-89558921D01*
X148616153Y-89571218D01*
X148594529Y-89581446D01*
X148572007Y-89589504D01*
X148548803Y-89595316D01*
X148525142Y-89598826D01*
X148501250Y-89600000D01*
X148013750Y-89600000D01*
X147989858Y-89598826D01*
X147966197Y-89595316D01*
X147942993Y-89589504D01*
X147920471Y-89581446D01*
X147898847Y-89571218D01*
X147878330Y-89558921D01*
X147859117Y-89544671D01*
X147841393Y-89528607D01*
X147825329Y-89510883D01*
X147811079Y-89491670D01*
X147798782Y-89471153D01*
X147788554Y-89449529D01*
X147780496Y-89427007D01*
X147774684Y-89403803D01*
X147771174Y-89380142D01*
X147770000Y-89356250D01*
X147770000Y-88443750D01*
X147771174Y-88419858D01*
X147774684Y-88396197D01*
X147780496Y-88372993D01*
X147788554Y-88350471D01*
X147798782Y-88328847D01*
X147811079Y-88308330D01*
X147825329Y-88289117D01*
X147841393Y-88271393D01*
X147859117Y-88255329D01*
X147878330Y-88241079D01*
X147898847Y-88228782D01*
X147920471Y-88218554D01*
X147942993Y-88210496D01*
X147966197Y-88204684D01*
X147989858Y-88201174D01*
X148013750Y-88200000D01*
X148501250Y-88200000D01*
X148525142Y-88201174D01*
X148525142Y-88201174D01*
G37*
D11*
X148257500Y-88900000D03*
D10*
G36*
X146650142Y-88201174D02*
X146673803Y-88204684D01*
X146697007Y-88210496D01*
X146719529Y-88218554D01*
X146741153Y-88228782D01*
X146761670Y-88241079D01*
X146780883Y-88255329D01*
X146798607Y-88271393D01*
X146814671Y-88289117D01*
X146828921Y-88308330D01*
X146841218Y-88328847D01*
X146851446Y-88350471D01*
X146859504Y-88372993D01*
X146865316Y-88396197D01*
X146868826Y-88419858D01*
X146870000Y-88443750D01*
X146870000Y-89356250D01*
X146868826Y-89380142D01*
X146865316Y-89403803D01*
X146859504Y-89427007D01*
X146851446Y-89449529D01*
X146841218Y-89471153D01*
X146828921Y-89491670D01*
X146814671Y-89510883D01*
X146798607Y-89528607D01*
X146780883Y-89544671D01*
X146761670Y-89558921D01*
X146741153Y-89571218D01*
X146719529Y-89581446D01*
X146697007Y-89589504D01*
X146673803Y-89595316D01*
X146650142Y-89598826D01*
X146626250Y-89600000D01*
X146138750Y-89600000D01*
X146114858Y-89598826D01*
X146091197Y-89595316D01*
X146067993Y-89589504D01*
X146045471Y-89581446D01*
X146023847Y-89571218D01*
X146003330Y-89558921D01*
X145984117Y-89544671D01*
X145966393Y-89528607D01*
X145950329Y-89510883D01*
X145936079Y-89491670D01*
X145923782Y-89471153D01*
X145913554Y-89449529D01*
X145905496Y-89427007D01*
X145899684Y-89403803D01*
X145896174Y-89380142D01*
X145895000Y-89356250D01*
X145895000Y-88443750D01*
X145896174Y-88419858D01*
X145899684Y-88396197D01*
X145905496Y-88372993D01*
X145913554Y-88350471D01*
X145923782Y-88328847D01*
X145936079Y-88308330D01*
X145950329Y-88289117D01*
X145966393Y-88271393D01*
X145984117Y-88255329D01*
X146003330Y-88241079D01*
X146023847Y-88228782D01*
X146045471Y-88218554D01*
X146067993Y-88210496D01*
X146091197Y-88204684D01*
X146114858Y-88201174D01*
X146138750Y-88200000D01*
X146626250Y-88200000D01*
X146650142Y-88201174D01*
X146650142Y-88201174D01*
G37*
D11*
X146382500Y-88900000D03*
G04 #@! TD*
D10*
G04 #@! TO.C,R4*
G36*
X146650142Y-84391174D02*
X146673803Y-84394684D01*
X146697007Y-84400496D01*
X146719529Y-84408554D01*
X146741153Y-84418782D01*
X146761670Y-84431079D01*
X146780883Y-84445329D01*
X146798607Y-84461393D01*
X146814671Y-84479117D01*
X146828921Y-84498330D01*
X146841218Y-84518847D01*
X146851446Y-84540471D01*
X146859504Y-84562993D01*
X146865316Y-84586197D01*
X146868826Y-84609858D01*
X146870000Y-84633750D01*
X146870000Y-85546250D01*
X146868826Y-85570142D01*
X146865316Y-85593803D01*
X146859504Y-85617007D01*
X146851446Y-85639529D01*
X146841218Y-85661153D01*
X146828921Y-85681670D01*
X146814671Y-85700883D01*
X146798607Y-85718607D01*
X146780883Y-85734671D01*
X146761670Y-85748921D01*
X146741153Y-85761218D01*
X146719529Y-85771446D01*
X146697007Y-85779504D01*
X146673803Y-85785316D01*
X146650142Y-85788826D01*
X146626250Y-85790000D01*
X146138750Y-85790000D01*
X146114858Y-85788826D01*
X146091197Y-85785316D01*
X146067993Y-85779504D01*
X146045471Y-85771446D01*
X146023847Y-85761218D01*
X146003330Y-85748921D01*
X145984117Y-85734671D01*
X145966393Y-85718607D01*
X145950329Y-85700883D01*
X145936079Y-85681670D01*
X145923782Y-85661153D01*
X145913554Y-85639529D01*
X145905496Y-85617007D01*
X145899684Y-85593803D01*
X145896174Y-85570142D01*
X145895000Y-85546250D01*
X145895000Y-84633750D01*
X145896174Y-84609858D01*
X145899684Y-84586197D01*
X145905496Y-84562993D01*
X145913554Y-84540471D01*
X145923782Y-84518847D01*
X145936079Y-84498330D01*
X145950329Y-84479117D01*
X145966393Y-84461393D01*
X145984117Y-84445329D01*
X146003330Y-84431079D01*
X146023847Y-84418782D01*
X146045471Y-84408554D01*
X146067993Y-84400496D01*
X146091197Y-84394684D01*
X146114858Y-84391174D01*
X146138750Y-84390000D01*
X146626250Y-84390000D01*
X146650142Y-84391174D01*
X146650142Y-84391174D01*
G37*
D11*
X146382500Y-85090000D03*
D10*
G36*
X148525142Y-84391174D02*
X148548803Y-84394684D01*
X148572007Y-84400496D01*
X148594529Y-84408554D01*
X148616153Y-84418782D01*
X148636670Y-84431079D01*
X148655883Y-84445329D01*
X148673607Y-84461393D01*
X148689671Y-84479117D01*
X148703921Y-84498330D01*
X148716218Y-84518847D01*
X148726446Y-84540471D01*
X148734504Y-84562993D01*
X148740316Y-84586197D01*
X148743826Y-84609858D01*
X148745000Y-84633750D01*
X148745000Y-85546250D01*
X148743826Y-85570142D01*
X148740316Y-85593803D01*
X148734504Y-85617007D01*
X148726446Y-85639529D01*
X148716218Y-85661153D01*
X148703921Y-85681670D01*
X148689671Y-85700883D01*
X148673607Y-85718607D01*
X148655883Y-85734671D01*
X148636670Y-85748921D01*
X148616153Y-85761218D01*
X148594529Y-85771446D01*
X148572007Y-85779504D01*
X148548803Y-85785316D01*
X148525142Y-85788826D01*
X148501250Y-85790000D01*
X148013750Y-85790000D01*
X147989858Y-85788826D01*
X147966197Y-85785316D01*
X147942993Y-85779504D01*
X147920471Y-85771446D01*
X147898847Y-85761218D01*
X147878330Y-85748921D01*
X147859117Y-85734671D01*
X147841393Y-85718607D01*
X147825329Y-85700883D01*
X147811079Y-85681670D01*
X147798782Y-85661153D01*
X147788554Y-85639529D01*
X147780496Y-85617007D01*
X147774684Y-85593803D01*
X147771174Y-85570142D01*
X147770000Y-85546250D01*
X147770000Y-84633750D01*
X147771174Y-84609858D01*
X147774684Y-84586197D01*
X147780496Y-84562993D01*
X147788554Y-84540471D01*
X147798782Y-84518847D01*
X147811079Y-84498330D01*
X147825329Y-84479117D01*
X147841393Y-84461393D01*
X147859117Y-84445329D01*
X147878330Y-84431079D01*
X147898847Y-84418782D01*
X147920471Y-84408554D01*
X147942993Y-84400496D01*
X147966197Y-84394684D01*
X147989858Y-84391174D01*
X148013750Y-84390000D01*
X148501250Y-84390000D01*
X148525142Y-84391174D01*
X148525142Y-84391174D01*
G37*
D11*
X148257500Y-85090000D03*
G04 #@! TD*
D12*
G04 #@! TO.C,U1*
X140890000Y-84135000D03*
X140890000Y-83185000D03*
X140890000Y-82235000D03*
X143590000Y-82235000D03*
X143590000Y-84135000D03*
G04 #@! TD*
M02*
