G04 #@! TF.GenerationSoftware,KiCad,Pcbnew,5.0.2-bee76a0~70~ubuntu16.04.1*
G04 #@! TF.CreationDate,2019-07-30T14:22:58+02:00*
G04 #@! TF.ProjectId,hw-DAP42,68772d44-4150-4343-922e-6b696361645f,rev?*
G04 #@! TF.SameCoordinates,Original*
G04 #@! TF.FileFunction,Legend,Bot*
G04 #@! TF.FilePolarity,Positive*
%FSLAX46Y46*%
G04 Gerber Fmt 4.6, Leading zero omitted, Abs format (unit mm)*
G04 Created by KiCad (PCBNEW 5.0.2-bee76a0~70~ubuntu16.04.1) date Tue 30 Jul 2019 02:22:58 PM CEST*
%MOMM*%
%LPD*%
G01*
G04 APERTURE LIST*
%ADD10C,0.200000*%
%ADD11C,0.300000*%
%ADD12C,0.250000*%
%ADD13C,0.120000*%
%ADD14C,0.150000*%
G04 APERTURE END LIST*
D10*
X160655000Y-93980000D02*
X160655000Y-92710000D01*
X162560000Y-93980000D02*
X160655000Y-93980000D01*
X162560000Y-93345000D02*
X162560000Y-93980000D01*
X160655000Y-83820000D02*
X160655000Y-85090000D01*
X162560000Y-83820000D02*
X160655000Y-83820000D01*
X162560000Y-84455000D02*
X162560000Y-83820000D01*
X165100000Y-95885000D02*
X165100000Y-95250000D01*
X158750000Y-95885000D02*
X165100000Y-95885000D01*
X158750000Y-95250000D02*
X158750000Y-95885000D01*
X165100000Y-81915000D02*
X165100000Y-82550000D01*
X158750000Y-81915000D02*
X165100000Y-81915000D01*
X158750000Y-82550000D02*
X158750000Y-81915000D01*
D11*
X156876428Y-90932857D02*
X156876428Y-89732857D01*
X156590714Y-89732857D01*
X156419285Y-89790000D01*
X156305000Y-89904285D01*
X156247857Y-90018571D01*
X156190714Y-90247142D01*
X156190714Y-90418571D01*
X156247857Y-90647142D01*
X156305000Y-90761428D01*
X156419285Y-90875714D01*
X156590714Y-90932857D01*
X156876428Y-90932857D01*
X155733571Y-90590000D02*
X155162142Y-90590000D01*
X155847857Y-90932857D02*
X155447857Y-89732857D01*
X155047857Y-90932857D01*
X154647857Y-90932857D02*
X154647857Y-89732857D01*
X154190714Y-89732857D01*
X154076428Y-89790000D01*
X154019285Y-89847142D01*
X153962142Y-89961428D01*
X153962142Y-90132857D01*
X154019285Y-90247142D01*
X154076428Y-90304285D01*
X154190714Y-90361428D01*
X154647857Y-90361428D01*
X152933571Y-90132857D02*
X152933571Y-90932857D01*
X153219285Y-89675714D02*
X153505000Y-90532857D01*
X152762142Y-90532857D01*
X152362142Y-89847142D02*
X152305000Y-89790000D01*
X152190714Y-89732857D01*
X151905000Y-89732857D01*
X151790714Y-89790000D01*
X151733571Y-89847142D01*
X151676428Y-89961428D01*
X151676428Y-90075714D01*
X151733571Y-90247142D01*
X152419285Y-90932857D01*
X151676428Y-90932857D01*
X156019285Y-92232857D02*
X155733571Y-93032857D01*
X155447857Y-92232857D01*
X154362142Y-93032857D02*
X155047857Y-93032857D01*
X154705000Y-93032857D02*
X154705000Y-91832857D01*
X154819285Y-92004285D01*
X154933571Y-92118571D01*
X155047857Y-92175714D01*
X153847857Y-92918571D02*
X153790714Y-92975714D01*
X153847857Y-93032857D01*
X153905000Y-92975714D01*
X153847857Y-92918571D01*
X153847857Y-93032857D01*
X153047857Y-91832857D02*
X152933571Y-91832857D01*
X152819285Y-91890000D01*
X152762142Y-91947142D01*
X152705000Y-92061428D01*
X152647857Y-92290000D01*
X152647857Y-92575714D01*
X152705000Y-92804285D01*
X152762142Y-92918571D01*
X152819285Y-92975714D01*
X152933571Y-93032857D01*
X153047857Y-93032857D01*
X153162142Y-92975714D01*
X153219285Y-92918571D01*
X153276428Y-92804285D01*
X153333571Y-92575714D01*
X153333571Y-92290000D01*
X153276428Y-92061428D01*
X153219285Y-91947142D01*
X153162142Y-91890000D01*
X153047857Y-91832857D01*
D12*
X160345476Y-91892380D02*
X160678809Y-91416190D01*
X160916904Y-91892380D02*
X160916904Y-90892380D01*
X160535952Y-90892380D01*
X160440714Y-90940000D01*
X160393095Y-90987619D01*
X160345476Y-91082857D01*
X160345476Y-91225714D01*
X160393095Y-91320952D01*
X160440714Y-91368571D01*
X160535952Y-91416190D01*
X160916904Y-91416190D01*
X160940714Y-88352380D02*
X160369285Y-88352380D01*
X160655000Y-89352380D02*
X160655000Y-88352380D01*
X160393095Y-85860000D02*
X160488333Y-85812380D01*
X160631190Y-85812380D01*
X160774047Y-85860000D01*
X160869285Y-85955238D01*
X160916904Y-86050476D01*
X160964523Y-86240952D01*
X160964523Y-86383809D01*
X160916904Y-86574285D01*
X160869285Y-86669523D01*
X160774047Y-86764761D01*
X160631190Y-86812380D01*
X160535952Y-86812380D01*
X160393095Y-86764761D01*
X160345476Y-86717142D01*
X160345476Y-86383809D01*
X160535952Y-86383809D01*
X158845238Y-93432380D02*
X158654761Y-93432380D01*
X158559523Y-93480000D01*
X158464285Y-93575238D01*
X158416666Y-93765714D01*
X158416666Y-94099047D01*
X158464285Y-94289523D01*
X158559523Y-94384761D01*
X158654761Y-94432380D01*
X158845238Y-94432380D01*
X158940476Y-94384761D01*
X159035714Y-94289523D01*
X159083333Y-94099047D01*
X159083333Y-93765714D01*
X159035714Y-93575238D01*
X158940476Y-93480000D01*
X158845238Y-93432380D01*
X158440476Y-91797142D02*
X158488095Y-91844761D01*
X158630952Y-91892380D01*
X158726190Y-91892380D01*
X158869047Y-91844761D01*
X158964285Y-91749523D01*
X159011904Y-91654285D01*
X159059523Y-91463809D01*
X159059523Y-91320952D01*
X159011904Y-91130476D01*
X158964285Y-91035238D01*
X158869047Y-90940000D01*
X158726190Y-90892380D01*
X158630952Y-90892380D01*
X158488095Y-90940000D01*
X158440476Y-90987619D01*
X158488095Y-88400000D02*
X158583333Y-88352380D01*
X158726190Y-88352380D01*
X158869047Y-88400000D01*
X158964285Y-88495238D01*
X159011904Y-88590476D01*
X159059523Y-88780952D01*
X159059523Y-88923809D01*
X159011904Y-89114285D01*
X158964285Y-89209523D01*
X158869047Y-89304761D01*
X158726190Y-89352380D01*
X158630952Y-89352380D01*
X158488095Y-89304761D01*
X158440476Y-89257142D01*
X158440476Y-88923809D01*
X158630952Y-88923809D01*
X159011904Y-86812380D02*
X159011904Y-85812380D01*
X158773809Y-85812380D01*
X158630952Y-85860000D01*
X158535714Y-85955238D01*
X158488095Y-86050476D01*
X158440476Y-86240952D01*
X158440476Y-86383809D01*
X158488095Y-86574285D01*
X158535714Y-86669523D01*
X158630952Y-86764761D01*
X158773809Y-86812380D01*
X159011904Y-86812380D01*
X158440476Y-84272380D02*
X158773809Y-83796190D01*
X159011904Y-84272380D02*
X159011904Y-83272380D01*
X158630952Y-83272380D01*
X158535714Y-83320000D01*
X158488095Y-83367619D01*
X158440476Y-83462857D01*
X158440476Y-83605714D01*
X158488095Y-83700952D01*
X158535714Y-83748571D01*
X158630952Y-83796190D01*
X159011904Y-83796190D01*
D13*
G04 #@! TO.C,C1*
X148213578Y-81840000D02*
X147696422Y-81840000D01*
X148213578Y-83260000D02*
X147696422Y-83260000D01*
G04 #@! TO.C,R2*
X147061422Y-92000000D02*
X147578578Y-92000000D01*
X147061422Y-93420000D02*
X147578578Y-93420000D01*
G04 #@! TO.C,R3*
X147061422Y-88190000D02*
X147578578Y-88190000D01*
X147061422Y-89610000D02*
X147578578Y-89610000D01*
G04 #@! TO.C,R4*
X147061422Y-85800000D02*
X147578578Y-85800000D01*
X147061422Y-84380000D02*
X147578578Y-84380000D01*
G04 #@! TO.C,U1*
X141340000Y-81575000D02*
X143140000Y-81575000D01*
X143140000Y-84795000D02*
X140690000Y-84795000D01*
G04 #@! TO.C,C1*
D14*
X151296666Y-82907142D02*
X151344285Y-82954761D01*
X151487142Y-83002380D01*
X151582380Y-83002380D01*
X151725238Y-82954761D01*
X151820476Y-82859523D01*
X151868095Y-82764285D01*
X151915714Y-82573809D01*
X151915714Y-82430952D01*
X151868095Y-82240476D01*
X151820476Y-82145238D01*
X151725238Y-82050000D01*
X151582380Y-82002380D01*
X151487142Y-82002380D01*
X151344285Y-82050000D01*
X151296666Y-82097619D01*
X150344285Y-83002380D02*
X150915714Y-83002380D01*
X150630000Y-83002380D02*
X150630000Y-82002380D01*
X150725238Y-82145238D01*
X150820476Y-82240476D01*
X150915714Y-82288095D01*
G04 #@! TO.C,R2*
X147486666Y-95067380D02*
X147820000Y-94591190D01*
X148058095Y-95067380D02*
X148058095Y-94067380D01*
X147677142Y-94067380D01*
X147581904Y-94115000D01*
X147534285Y-94162619D01*
X147486666Y-94257857D01*
X147486666Y-94400714D01*
X147534285Y-94495952D01*
X147581904Y-94543571D01*
X147677142Y-94591190D01*
X148058095Y-94591190D01*
X147105714Y-94162619D02*
X147058095Y-94115000D01*
X146962857Y-94067380D01*
X146724761Y-94067380D01*
X146629523Y-94115000D01*
X146581904Y-94162619D01*
X146534285Y-94257857D01*
X146534285Y-94353095D01*
X146581904Y-94495952D01*
X147153333Y-95067380D01*
X146534285Y-95067380D01*
G04 #@! TO.C,R3*
X147486666Y-91257380D02*
X147820000Y-90781190D01*
X148058095Y-91257380D02*
X148058095Y-90257380D01*
X147677142Y-90257380D01*
X147581904Y-90305000D01*
X147534285Y-90352619D01*
X147486666Y-90447857D01*
X147486666Y-90590714D01*
X147534285Y-90685952D01*
X147581904Y-90733571D01*
X147677142Y-90781190D01*
X148058095Y-90781190D01*
X147153333Y-90257380D02*
X146534285Y-90257380D01*
X146867619Y-90638333D01*
X146724761Y-90638333D01*
X146629523Y-90685952D01*
X146581904Y-90733571D01*
X146534285Y-90828809D01*
X146534285Y-91066904D01*
X146581904Y-91162142D01*
X146629523Y-91209761D01*
X146724761Y-91257380D01*
X147010476Y-91257380D01*
X147105714Y-91209761D01*
X147153333Y-91162142D01*
G04 #@! TO.C,R4*
X147486666Y-87447380D02*
X147820000Y-86971190D01*
X148058095Y-87447380D02*
X148058095Y-86447380D01*
X147677142Y-86447380D01*
X147581904Y-86495000D01*
X147534285Y-86542619D01*
X147486666Y-86637857D01*
X147486666Y-86780714D01*
X147534285Y-86875952D01*
X147581904Y-86923571D01*
X147677142Y-86971190D01*
X148058095Y-86971190D01*
X146629523Y-86780714D02*
X146629523Y-87447380D01*
X146867619Y-86399761D02*
X147105714Y-87114047D01*
X146486666Y-87114047D01*
G04 #@! TO.C,U1*
X142366904Y-85177380D02*
X142366904Y-85986904D01*
X142319285Y-86082142D01*
X142271666Y-86129761D01*
X142176428Y-86177380D01*
X141985952Y-86177380D01*
X141890714Y-86129761D01*
X141843095Y-86082142D01*
X141795476Y-85986904D01*
X141795476Y-85177380D01*
X140795476Y-86177380D02*
X141366904Y-86177380D01*
X141081190Y-86177380D02*
X141081190Y-85177380D01*
X141176428Y-85320238D01*
X141271666Y-85415476D01*
X141366904Y-85463095D01*
G04 #@! TD*
M02*
