M48
;DRILL file {KiCad 5.0.2-bee76a0~70~ubuntu16.04.1} date Tue 30 Jul 2019 02:23:03 PM CEST
;FORMAT={-:-/ absolute / inch / decimal}
FMAT,2
INCH,TZ
T1C0.0157
T2C0.0314
T3C0.0394
T4C0.0400
%
G90
G05
T1
X5.45Y-3.3445
X5.45Y-3.4528
X5.45Y-3.5472
X5.45Y-3.6555
X5.6846Y-3.35
X5.6846Y-3.5
X5.7654Y-3.35
X5.7654Y-3.5
X5.7654Y-3.65
X5.875Y-3.4644
X5.875Y-3.425
X5.95Y-3.35
X5.9715Y-3.3
X6.0516Y-3.2894
X6.0609Y-3.3628
X6.125Y-3.475
X6.1308Y-3.4006
X6.1881Y-3.45
X6.2Y-3.375
X6.2619Y-3.45
X6.2623Y-3.5492
X6.2637Y-3.6482
T2
X5.5345Y-3.5747
X5.5346Y-3.4252
T3
X6.5Y-3.3
X6.5Y-3.4
X6.5Y-3.5
X6.5Y-3.6
X6.5Y-3.7
X6.4Y-3.4
X6.4Y-3.5
X6.4Y-3.6
T4
X5.975Y-3.75
X6.075Y-3.75
X6.175Y-3.75
T0
M30
