G04 #@! TF.GenerationSoftware,KiCad,Pcbnew,5.0.2-bee76a0~70~ubuntu16.04.1*
G04 #@! TF.CreationDate,2019-07-30T14:22:58+02:00*
G04 #@! TF.ProjectId,hw-DAP42,68772d44-4150-4343-922e-6b696361645f,rev?*
G04 #@! TF.SameCoordinates,Original*
G04 #@! TF.FileFunction,Soldermask,Top*
G04 #@! TF.FilePolarity,Negative*
%FSLAX46Y46*%
G04 Gerber Fmt 4.6, Leading zero omitted, Abs format (unit mm)*
G04 Created by KiCad (PCBNEW 5.0.2-bee76a0~70~ubuntu16.04.1) date Tue 30 Jul 2019 02:22:58 PM CEST*
%MOMM*%
%LPD*%
G01*
G04 APERTURE LIST*
%ADD10C,0.100000*%
G04 APERTURE END LIST*
D10*
G36*
X152002142Y-94468242D02*
X152150102Y-94529530D01*
X152217130Y-94574317D01*
X152283257Y-94618501D01*
X152396499Y-94731743D01*
X152397191Y-94732779D01*
X152485470Y-94864898D01*
X152546758Y-95012858D01*
X152578000Y-95169925D01*
X152578000Y-95330075D01*
X152546758Y-95487142D01*
X152485470Y-95635102D01*
X152396498Y-95768258D01*
X152283258Y-95881498D01*
X152150102Y-95970470D01*
X152002142Y-96031758D01*
X151845075Y-96063000D01*
X151684925Y-96063000D01*
X151527858Y-96031758D01*
X151379898Y-95970470D01*
X151246742Y-95881498D01*
X151133502Y-95768258D01*
X151044530Y-95635102D01*
X150983242Y-95487142D01*
X150952000Y-95330075D01*
X150952000Y-95169925D01*
X150983242Y-95012858D01*
X151044530Y-94864898D01*
X151132809Y-94732779D01*
X151133501Y-94731743D01*
X151246743Y-94618501D01*
X151312870Y-94574317D01*
X151379898Y-94529530D01*
X151527858Y-94468242D01*
X151684925Y-94437000D01*
X151845075Y-94437000D01*
X152002142Y-94468242D01*
X152002142Y-94468242D01*
G37*
G36*
X157082142Y-94468242D02*
X157230102Y-94529530D01*
X157297130Y-94574317D01*
X157363257Y-94618501D01*
X157476499Y-94731743D01*
X157477191Y-94732779D01*
X157565470Y-94864898D01*
X157626758Y-95012858D01*
X157658000Y-95169925D01*
X157658000Y-95330075D01*
X157626758Y-95487142D01*
X157565470Y-95635102D01*
X157476498Y-95768258D01*
X157363258Y-95881498D01*
X157230102Y-95970470D01*
X157082142Y-96031758D01*
X156925075Y-96063000D01*
X156764925Y-96063000D01*
X156607858Y-96031758D01*
X156459898Y-95970470D01*
X156326742Y-95881498D01*
X156213502Y-95768258D01*
X156124530Y-95635102D01*
X156063242Y-95487142D01*
X156032000Y-95330075D01*
X156032000Y-95169925D01*
X156063242Y-95012858D01*
X156124530Y-94864898D01*
X156212809Y-94732779D01*
X156213501Y-94731743D01*
X156326743Y-94618501D01*
X156392870Y-94574317D01*
X156459898Y-94529530D01*
X156607858Y-94468242D01*
X156764925Y-94437000D01*
X156925075Y-94437000D01*
X157082142Y-94468242D01*
X157082142Y-94468242D01*
G37*
G36*
X154542142Y-94468242D02*
X154690102Y-94529530D01*
X154757130Y-94574317D01*
X154823257Y-94618501D01*
X154936499Y-94731743D01*
X154937191Y-94732779D01*
X155025470Y-94864898D01*
X155086758Y-95012858D01*
X155118000Y-95169925D01*
X155118000Y-95330075D01*
X155086758Y-95487142D01*
X155025470Y-95635102D01*
X154936498Y-95768258D01*
X154823258Y-95881498D01*
X154690102Y-95970470D01*
X154542142Y-96031758D01*
X154385075Y-96063000D01*
X154224925Y-96063000D01*
X154067858Y-96031758D01*
X153919898Y-95970470D01*
X153786742Y-95881498D01*
X153673502Y-95768258D01*
X153584530Y-95635102D01*
X153523242Y-95487142D01*
X153492000Y-95330075D01*
X153492000Y-95169925D01*
X153523242Y-95012858D01*
X153584530Y-94864898D01*
X153672809Y-94732779D01*
X153673501Y-94731743D01*
X153786743Y-94618501D01*
X153852870Y-94574317D01*
X153919898Y-94529530D01*
X154067858Y-94468242D01*
X154224925Y-94437000D01*
X154385075Y-94437000D01*
X154542142Y-94468242D01*
X154542142Y-94468242D01*
G37*
G36*
X142914466Y-93868565D02*
X142953137Y-93880296D01*
X142988779Y-93899348D01*
X143020017Y-93924983D01*
X143045652Y-93956221D01*
X143064704Y-93991863D01*
X143076435Y-94030534D01*
X143081000Y-94076888D01*
X143081000Y-95153112D01*
X143076435Y-95199466D01*
X143064704Y-95238137D01*
X143045652Y-95273779D01*
X143020017Y-95305017D01*
X142988779Y-95330652D01*
X142953137Y-95349704D01*
X142914466Y-95361435D01*
X142868112Y-95366000D01*
X142216888Y-95366000D01*
X142170534Y-95361435D01*
X142131863Y-95349704D01*
X142096221Y-95330652D01*
X142064983Y-95305017D01*
X142039348Y-95273779D01*
X142020296Y-95238137D01*
X142008565Y-95199466D01*
X142004000Y-95153112D01*
X142004000Y-94076888D01*
X142008565Y-94030534D01*
X142020296Y-93991863D01*
X142039348Y-93956221D01*
X142064983Y-93924983D01*
X142096221Y-93899348D01*
X142131863Y-93880296D01*
X142170534Y-93868565D01*
X142216888Y-93864000D01*
X142868112Y-93864000D01*
X142914466Y-93868565D01*
X142914466Y-93868565D01*
G37*
G36*
X141039466Y-93868565D02*
X141078137Y-93880296D01*
X141113779Y-93899348D01*
X141145017Y-93924983D01*
X141170652Y-93956221D01*
X141189704Y-93991863D01*
X141201435Y-94030534D01*
X141206000Y-94076888D01*
X141206000Y-95153112D01*
X141201435Y-95199466D01*
X141189704Y-95238137D01*
X141170652Y-95273779D01*
X141145017Y-95305017D01*
X141113779Y-95330652D01*
X141078137Y-95349704D01*
X141039466Y-95361435D01*
X140993112Y-95366000D01*
X140341888Y-95366000D01*
X140295534Y-95361435D01*
X140256863Y-95349704D01*
X140221221Y-95330652D01*
X140189983Y-95305017D01*
X140164348Y-95273779D01*
X140145296Y-95238137D01*
X140133565Y-95199466D01*
X140129000Y-95153112D01*
X140129000Y-94076888D01*
X140133565Y-94030534D01*
X140145296Y-93991863D01*
X140164348Y-93956221D01*
X140189983Y-93924983D01*
X140221221Y-93899348D01*
X140256863Y-93880296D01*
X140295534Y-93868565D01*
X140341888Y-93864000D01*
X140993112Y-93864000D01*
X141039466Y-93868565D01*
X141039466Y-93868565D01*
G37*
G36*
X165210443Y-93085519D02*
X165276627Y-93092037D01*
X165389853Y-93126384D01*
X165446467Y-93143557D01*
X165531160Y-93188827D01*
X165602991Y-93227222D01*
X165628445Y-93248112D01*
X165740186Y-93339814D01*
X165810630Y-93425652D01*
X165852778Y-93477009D01*
X165852779Y-93477011D01*
X165936443Y-93633533D01*
X165936443Y-93633534D01*
X165987963Y-93803373D01*
X166005359Y-93980000D01*
X165987963Y-94156627D01*
X165953616Y-94269853D01*
X165936443Y-94326467D01*
X165877361Y-94437000D01*
X165852778Y-94482991D01*
X165823448Y-94518729D01*
X165740186Y-94620186D01*
X165638729Y-94703448D01*
X165602991Y-94732778D01*
X165602989Y-94732779D01*
X165446467Y-94816443D01*
X165389853Y-94833616D01*
X165276627Y-94867963D01*
X165210443Y-94874481D01*
X165144260Y-94881000D01*
X165055740Y-94881000D01*
X164989557Y-94874481D01*
X164923373Y-94867963D01*
X164810147Y-94833616D01*
X164753533Y-94816443D01*
X164597011Y-94732779D01*
X164597009Y-94732778D01*
X164561271Y-94703448D01*
X164459814Y-94620186D01*
X164376552Y-94518729D01*
X164347222Y-94482991D01*
X164322639Y-94437000D01*
X164263557Y-94326467D01*
X164246384Y-94269853D01*
X164212037Y-94156627D01*
X164194641Y-93980000D01*
X164212037Y-93803373D01*
X164263557Y-93633534D01*
X164263557Y-93633533D01*
X164347221Y-93477011D01*
X164347222Y-93477009D01*
X164389370Y-93425652D01*
X164459814Y-93339814D01*
X164571555Y-93248112D01*
X164597009Y-93227222D01*
X164668840Y-93188827D01*
X164753533Y-93143557D01*
X164810147Y-93126384D01*
X164923373Y-93092037D01*
X164989557Y-93085519D01*
X165055740Y-93079000D01*
X165144260Y-93079000D01*
X165210443Y-93085519D01*
X165210443Y-93085519D01*
G37*
G36*
X139429690Y-93849390D02*
X137430310Y-93849390D01*
X137430310Y-91850010D01*
X139429690Y-91850010D01*
X139429690Y-93849390D01*
X139429690Y-93849390D01*
G37*
G36*
X146903677Y-91963465D02*
X146941364Y-91974898D01*
X146976103Y-91993466D01*
X147006548Y-92018452D01*
X147031534Y-92048897D01*
X147050102Y-92083636D01*
X147061535Y-92121323D01*
X147066000Y-92166661D01*
X147066000Y-93253339D01*
X147061535Y-93298677D01*
X147050102Y-93336364D01*
X147031534Y-93371103D01*
X147006548Y-93401548D01*
X146976103Y-93426534D01*
X146941364Y-93445102D01*
X146903677Y-93456535D01*
X146858339Y-93461000D01*
X146021661Y-93461000D01*
X145976323Y-93456535D01*
X145938636Y-93445102D01*
X145903897Y-93426534D01*
X145873452Y-93401548D01*
X145848466Y-93371103D01*
X145829898Y-93336364D01*
X145818465Y-93298677D01*
X145814000Y-93253339D01*
X145814000Y-92166661D01*
X145818465Y-92121323D01*
X145829898Y-92083636D01*
X145848466Y-92048897D01*
X145873452Y-92018452D01*
X145903897Y-91993466D01*
X145938636Y-91974898D01*
X145976323Y-91963465D01*
X146021661Y-91959000D01*
X146858339Y-91959000D01*
X146903677Y-91963465D01*
X146903677Y-91963465D01*
G37*
G36*
X159424466Y-91963565D02*
X159463137Y-91975296D01*
X159498779Y-91994348D01*
X159530017Y-92019983D01*
X159555652Y-92051221D01*
X159574704Y-92086863D01*
X159586435Y-92125534D01*
X159591000Y-92171888D01*
X159591000Y-93248112D01*
X159586435Y-93294466D01*
X159574704Y-93333137D01*
X159555652Y-93368779D01*
X159530017Y-93400017D01*
X159498779Y-93425652D01*
X159463137Y-93444704D01*
X159424466Y-93456435D01*
X159378112Y-93461000D01*
X158726888Y-93461000D01*
X158680534Y-93456435D01*
X158641863Y-93444704D01*
X158606221Y-93425652D01*
X158574983Y-93400017D01*
X158549348Y-93368779D01*
X158530296Y-93333137D01*
X158518565Y-93294466D01*
X158514000Y-93248112D01*
X158514000Y-92171888D01*
X158518565Y-92125534D01*
X158530296Y-92086863D01*
X158549348Y-92051221D01*
X158574983Y-92019983D01*
X158606221Y-91994348D01*
X158641863Y-91975296D01*
X158680534Y-91963565D01*
X158726888Y-91959000D01*
X159378112Y-91959000D01*
X159424466Y-91963565D01*
X159424466Y-91963565D01*
G37*
G36*
X157549466Y-91963565D02*
X157588137Y-91975296D01*
X157623779Y-91994348D01*
X157655017Y-92019983D01*
X157680652Y-92051221D01*
X157699704Y-92086863D01*
X157711435Y-92125534D01*
X157716000Y-92171888D01*
X157716000Y-93248112D01*
X157711435Y-93294466D01*
X157699704Y-93333137D01*
X157680652Y-93368779D01*
X157655017Y-93400017D01*
X157623779Y-93425652D01*
X157588137Y-93444704D01*
X157549466Y-93456435D01*
X157503112Y-93461000D01*
X156851888Y-93461000D01*
X156805534Y-93456435D01*
X156766863Y-93444704D01*
X156731221Y-93425652D01*
X156699983Y-93400017D01*
X156674348Y-93368779D01*
X156655296Y-93333137D01*
X156643565Y-93294466D01*
X156639000Y-93248112D01*
X156639000Y-92171888D01*
X156643565Y-92125534D01*
X156655296Y-92086863D01*
X156674348Y-92051221D01*
X156699983Y-92019983D01*
X156731221Y-91994348D01*
X156766863Y-91975296D01*
X156805534Y-91963565D01*
X156851888Y-91959000D01*
X157503112Y-91959000D01*
X157549466Y-91963565D01*
X157549466Y-91963565D01*
G37*
G36*
X144853677Y-91963465D02*
X144891364Y-91974898D01*
X144926103Y-91993466D01*
X144956548Y-92018452D01*
X144981534Y-92048897D01*
X145000102Y-92083636D01*
X145011535Y-92121323D01*
X145016000Y-92166661D01*
X145016000Y-93253339D01*
X145011535Y-93298677D01*
X145000102Y-93336364D01*
X144981534Y-93371103D01*
X144956548Y-93401548D01*
X144926103Y-93426534D01*
X144891364Y-93445102D01*
X144853677Y-93456535D01*
X144808339Y-93461000D01*
X143971661Y-93461000D01*
X143926323Y-93456535D01*
X143888636Y-93445102D01*
X143853897Y-93426534D01*
X143823452Y-93401548D01*
X143798466Y-93371103D01*
X143779898Y-93336364D01*
X143768465Y-93298677D01*
X143764000Y-93253339D01*
X143764000Y-92166661D01*
X143768465Y-92121323D01*
X143779898Y-92083636D01*
X143798466Y-92048897D01*
X143823452Y-92018452D01*
X143853897Y-91993466D01*
X143888636Y-91974898D01*
X143926323Y-91963465D01*
X143971661Y-91959000D01*
X144808339Y-91959000D01*
X144853677Y-91963465D01*
X144853677Y-91963465D01*
G37*
G36*
X150987880Y-87743686D02*
X151007991Y-87747685D01*
X151012083Y-87749380D01*
X151012093Y-87749383D01*
X151021381Y-87753230D01*
X151021392Y-87753236D01*
X151025482Y-87754930D01*
X151041195Y-87765430D01*
X151042315Y-87766550D01*
X151061257Y-87782096D01*
X151082868Y-87793647D01*
X151106317Y-87800760D01*
X151130703Y-87803162D01*
X151155089Y-87800760D01*
X151178538Y-87793647D01*
X151200149Y-87782096D01*
X151219091Y-87766550D01*
X151227331Y-87757459D01*
X151231895Y-87751897D01*
X151235670Y-87748800D01*
X151239972Y-87746500D01*
X151244643Y-87745083D01*
X151255641Y-87744000D01*
X151544359Y-87744000D01*
X151555357Y-87745083D01*
X151560028Y-87746500D01*
X151564330Y-87748800D01*
X151570705Y-87754031D01*
X151591080Y-87767644D01*
X151613719Y-87777020D01*
X151637753Y-87781800D01*
X151662257Y-87781799D01*
X151686291Y-87777017D01*
X151708929Y-87767639D01*
X151729295Y-87754031D01*
X151735670Y-87748800D01*
X151739972Y-87746500D01*
X151744643Y-87745083D01*
X151755641Y-87744000D01*
X152044359Y-87744000D01*
X152055357Y-87745083D01*
X152060028Y-87746500D01*
X152064330Y-87748800D01*
X152070705Y-87754031D01*
X152091080Y-87767644D01*
X152113719Y-87777020D01*
X152137753Y-87781800D01*
X152162257Y-87781799D01*
X152186291Y-87777017D01*
X152208929Y-87767639D01*
X152229295Y-87754031D01*
X152235670Y-87748800D01*
X152239972Y-87746500D01*
X152244643Y-87745083D01*
X152255641Y-87744000D01*
X152544359Y-87744000D01*
X152555357Y-87745083D01*
X152560028Y-87746500D01*
X152564330Y-87748800D01*
X152570705Y-87754031D01*
X152591080Y-87767644D01*
X152613719Y-87777020D01*
X152637753Y-87781800D01*
X152662257Y-87781799D01*
X152686291Y-87777017D01*
X152708929Y-87767639D01*
X152729295Y-87754031D01*
X152735670Y-87748800D01*
X152739972Y-87746500D01*
X152744643Y-87745083D01*
X152755641Y-87744000D01*
X153044359Y-87744000D01*
X153055357Y-87745083D01*
X153060028Y-87746500D01*
X153064330Y-87748800D01*
X153070705Y-87754031D01*
X153091080Y-87767644D01*
X153113719Y-87777020D01*
X153137753Y-87781800D01*
X153162257Y-87781799D01*
X153186291Y-87777017D01*
X153208929Y-87767639D01*
X153229295Y-87754031D01*
X153235670Y-87748800D01*
X153239972Y-87746500D01*
X153244643Y-87745083D01*
X153255641Y-87744000D01*
X153544359Y-87744000D01*
X153555357Y-87745083D01*
X153560028Y-87746500D01*
X153564330Y-87748800D01*
X153568105Y-87751897D01*
X153572669Y-87757459D01*
X153589996Y-87774787D01*
X153610370Y-87788401D01*
X153633009Y-87797779D01*
X153657043Y-87802560D01*
X153681547Y-87802560D01*
X153705580Y-87797780D01*
X153728220Y-87788403D01*
X153748594Y-87774790D01*
X153757685Y-87766550D01*
X153758805Y-87765430D01*
X153774518Y-87754930D01*
X153778608Y-87753236D01*
X153778619Y-87753230D01*
X153787907Y-87749383D01*
X153787917Y-87749380D01*
X153792009Y-87747685D01*
X153812120Y-87743686D01*
X153823061Y-87743148D01*
X153976939Y-87743148D01*
X153987880Y-87743686D01*
X154007991Y-87747685D01*
X154012083Y-87749380D01*
X154012093Y-87749383D01*
X154021381Y-87753230D01*
X154021392Y-87753236D01*
X154025482Y-87754930D01*
X154041195Y-87765430D01*
X154054570Y-87778805D01*
X154065070Y-87794518D01*
X154066764Y-87798608D01*
X154066770Y-87798619D01*
X154070617Y-87807907D01*
X154070620Y-87807917D01*
X154072315Y-87812009D01*
X154076314Y-87832120D01*
X154076852Y-87843061D01*
X154076852Y-88368148D01*
X154079254Y-88392534D01*
X154086367Y-88415983D01*
X154097918Y-88437594D01*
X154113464Y-88456536D01*
X154132406Y-88472082D01*
X154154017Y-88483633D01*
X154177466Y-88490746D01*
X154201852Y-88493148D01*
X154726939Y-88493148D01*
X154737880Y-88493686D01*
X154757991Y-88497685D01*
X154762083Y-88499380D01*
X154762093Y-88499383D01*
X154771381Y-88503230D01*
X154771392Y-88503236D01*
X154775482Y-88504930D01*
X154791195Y-88515430D01*
X154804570Y-88528805D01*
X154815070Y-88544518D01*
X154816764Y-88548608D01*
X154816770Y-88548619D01*
X154820617Y-88557907D01*
X154820620Y-88557917D01*
X154822315Y-88562009D01*
X154826314Y-88582120D01*
X154826852Y-88593061D01*
X154826852Y-88746939D01*
X154826314Y-88757880D01*
X154822315Y-88777991D01*
X154820620Y-88782083D01*
X154820617Y-88782093D01*
X154816770Y-88791381D01*
X154816764Y-88791392D01*
X154815070Y-88795482D01*
X154804570Y-88811195D01*
X154803450Y-88812315D01*
X154787904Y-88831257D01*
X154776353Y-88852868D01*
X154769240Y-88876317D01*
X154766838Y-88900703D01*
X154769240Y-88925089D01*
X154776353Y-88948538D01*
X154787904Y-88970149D01*
X154803450Y-88989091D01*
X154812541Y-88997331D01*
X154818103Y-89001895D01*
X154821200Y-89005670D01*
X154823500Y-89009972D01*
X154824917Y-89014643D01*
X154826000Y-89025641D01*
X154826000Y-89314359D01*
X154824917Y-89325357D01*
X154823500Y-89330028D01*
X154821200Y-89334330D01*
X154815969Y-89340705D01*
X154802356Y-89361080D01*
X154792980Y-89383719D01*
X154788200Y-89407753D01*
X154788201Y-89432257D01*
X154792983Y-89456291D01*
X154802361Y-89478929D01*
X154815969Y-89499295D01*
X154821200Y-89505670D01*
X154823500Y-89509972D01*
X154824917Y-89514643D01*
X154826000Y-89525641D01*
X154826000Y-89814359D01*
X154824917Y-89825357D01*
X154823500Y-89830028D01*
X154821200Y-89834330D01*
X154815969Y-89840705D01*
X154802356Y-89861080D01*
X154792980Y-89883719D01*
X154788200Y-89907753D01*
X154788201Y-89932257D01*
X154792983Y-89956291D01*
X154802361Y-89978929D01*
X154815969Y-89999295D01*
X154821200Y-90005670D01*
X154823500Y-90009972D01*
X154824917Y-90014643D01*
X154826000Y-90025641D01*
X154826000Y-90314359D01*
X154824917Y-90325357D01*
X154823500Y-90330028D01*
X154821200Y-90334330D01*
X154815969Y-90340705D01*
X154802356Y-90361080D01*
X154792980Y-90383719D01*
X154788200Y-90407753D01*
X154788201Y-90432257D01*
X154792983Y-90456291D01*
X154802361Y-90478929D01*
X154815969Y-90499295D01*
X154821200Y-90505670D01*
X154823500Y-90509972D01*
X154824917Y-90514643D01*
X154826000Y-90525641D01*
X154826000Y-90814359D01*
X154824917Y-90825357D01*
X154823500Y-90830028D01*
X154821200Y-90834330D01*
X154815969Y-90840705D01*
X154802356Y-90861080D01*
X154792980Y-90883719D01*
X154788200Y-90907753D01*
X154788201Y-90932257D01*
X154792983Y-90956291D01*
X154802361Y-90978929D01*
X154815969Y-90999295D01*
X154821200Y-91005670D01*
X154823500Y-91009972D01*
X154824917Y-91014643D01*
X154826000Y-91025641D01*
X154826000Y-91314359D01*
X154824917Y-91325357D01*
X154823500Y-91330028D01*
X154821200Y-91334330D01*
X154818103Y-91338105D01*
X154812541Y-91342669D01*
X154795213Y-91359996D01*
X154781599Y-91380370D01*
X154772221Y-91403009D01*
X154767440Y-91427043D01*
X154767440Y-91451547D01*
X154772220Y-91475580D01*
X154781597Y-91498220D01*
X154795210Y-91518594D01*
X154803450Y-91527685D01*
X154804570Y-91528805D01*
X154815070Y-91544518D01*
X154816764Y-91548608D01*
X154816770Y-91548619D01*
X154820617Y-91557907D01*
X154820620Y-91557917D01*
X154822315Y-91562009D01*
X154826314Y-91582120D01*
X154826852Y-91593061D01*
X154826852Y-91746939D01*
X154826314Y-91757880D01*
X154822315Y-91777991D01*
X154820620Y-91782083D01*
X154820617Y-91782093D01*
X154816770Y-91791381D01*
X154816764Y-91791392D01*
X154815070Y-91795482D01*
X154804570Y-91811195D01*
X154791195Y-91824570D01*
X154775482Y-91835070D01*
X154771392Y-91836764D01*
X154771381Y-91836770D01*
X154762093Y-91840617D01*
X154762083Y-91840620D01*
X154757991Y-91842315D01*
X154737880Y-91846314D01*
X154726939Y-91846852D01*
X154201852Y-91846852D01*
X154177466Y-91849254D01*
X154154017Y-91856367D01*
X154132406Y-91867918D01*
X154113464Y-91883464D01*
X154097918Y-91902406D01*
X154086367Y-91924017D01*
X154079254Y-91947466D01*
X154076852Y-91971852D01*
X154076852Y-92496939D01*
X154076314Y-92507880D01*
X154072315Y-92527991D01*
X154070620Y-92532083D01*
X154070617Y-92532093D01*
X154066770Y-92541381D01*
X154066764Y-92541392D01*
X154065070Y-92545482D01*
X154054570Y-92561195D01*
X154041195Y-92574570D01*
X154025482Y-92585070D01*
X154021392Y-92586764D01*
X154021381Y-92586770D01*
X154012093Y-92590617D01*
X154012083Y-92590620D01*
X154007991Y-92592315D01*
X153987880Y-92596314D01*
X153976939Y-92596852D01*
X153823061Y-92596852D01*
X153812120Y-92596314D01*
X153792009Y-92592315D01*
X153787917Y-92590620D01*
X153787907Y-92590617D01*
X153778619Y-92586770D01*
X153778608Y-92586764D01*
X153774518Y-92585070D01*
X153758805Y-92574570D01*
X153757685Y-92573450D01*
X153738743Y-92557904D01*
X153717132Y-92546353D01*
X153693683Y-92539240D01*
X153669297Y-92536838D01*
X153644911Y-92539240D01*
X153621462Y-92546353D01*
X153599851Y-92557904D01*
X153580909Y-92573450D01*
X153572669Y-92582541D01*
X153568105Y-92588103D01*
X153564330Y-92591200D01*
X153560028Y-92593500D01*
X153555357Y-92594917D01*
X153544359Y-92596000D01*
X153255641Y-92596000D01*
X153244643Y-92594917D01*
X153239972Y-92593500D01*
X153235670Y-92591200D01*
X153229295Y-92585969D01*
X153208920Y-92572356D01*
X153186281Y-92562980D01*
X153162247Y-92558200D01*
X153137743Y-92558201D01*
X153113709Y-92562983D01*
X153091071Y-92572361D01*
X153070705Y-92585969D01*
X153064330Y-92591200D01*
X153060028Y-92593500D01*
X153055357Y-92594917D01*
X153044359Y-92596000D01*
X152755641Y-92596000D01*
X152744643Y-92594917D01*
X152739972Y-92593500D01*
X152735670Y-92591200D01*
X152729295Y-92585969D01*
X152708920Y-92572356D01*
X152686281Y-92562980D01*
X152662247Y-92558200D01*
X152637743Y-92558201D01*
X152613709Y-92562983D01*
X152591071Y-92572361D01*
X152570705Y-92585969D01*
X152564330Y-92591200D01*
X152560028Y-92593500D01*
X152555357Y-92594917D01*
X152544359Y-92596000D01*
X152255641Y-92596000D01*
X152244643Y-92594917D01*
X152239972Y-92593500D01*
X152235670Y-92591200D01*
X152229295Y-92585969D01*
X152208920Y-92572356D01*
X152186281Y-92562980D01*
X152162247Y-92558200D01*
X152137743Y-92558201D01*
X152113709Y-92562983D01*
X152091071Y-92572361D01*
X152070705Y-92585969D01*
X152064330Y-92591200D01*
X152060028Y-92593500D01*
X152055357Y-92594917D01*
X152044359Y-92596000D01*
X151755641Y-92596000D01*
X151744643Y-92594917D01*
X151739972Y-92593500D01*
X151735670Y-92591200D01*
X151729295Y-92585969D01*
X151708920Y-92572356D01*
X151686281Y-92562980D01*
X151662247Y-92558200D01*
X151637743Y-92558201D01*
X151613709Y-92562983D01*
X151591071Y-92572361D01*
X151570705Y-92585969D01*
X151564330Y-92591200D01*
X151560028Y-92593500D01*
X151555357Y-92594917D01*
X151544359Y-92596000D01*
X151255641Y-92596000D01*
X151244643Y-92594917D01*
X151239972Y-92593500D01*
X151235670Y-92591200D01*
X151231895Y-92588103D01*
X151227331Y-92582541D01*
X151210004Y-92565213D01*
X151189630Y-92551599D01*
X151166991Y-92542221D01*
X151142957Y-92537440D01*
X151118453Y-92537440D01*
X151094420Y-92542220D01*
X151071780Y-92551597D01*
X151051406Y-92565210D01*
X151042315Y-92573450D01*
X151041195Y-92574570D01*
X151025482Y-92585070D01*
X151021392Y-92586764D01*
X151021381Y-92586770D01*
X151012093Y-92590617D01*
X151012083Y-92590620D01*
X151007991Y-92592315D01*
X150987880Y-92596314D01*
X150976939Y-92596852D01*
X150823061Y-92596852D01*
X150812120Y-92596314D01*
X150792009Y-92592315D01*
X150787917Y-92590620D01*
X150787907Y-92590617D01*
X150778619Y-92586770D01*
X150778608Y-92586764D01*
X150774518Y-92585070D01*
X150758805Y-92574570D01*
X150745430Y-92561195D01*
X150734930Y-92545482D01*
X150733236Y-92541392D01*
X150733230Y-92541381D01*
X150729383Y-92532093D01*
X150729380Y-92532083D01*
X150727685Y-92527991D01*
X150723686Y-92507880D01*
X150723148Y-92496939D01*
X150723148Y-91971852D01*
X150720746Y-91947466D01*
X150713633Y-91924017D01*
X150702082Y-91902406D01*
X150686536Y-91883464D01*
X150667594Y-91867918D01*
X150645983Y-91856367D01*
X150622534Y-91849254D01*
X150598148Y-91846852D01*
X150073061Y-91846852D01*
X150062120Y-91846314D01*
X150042009Y-91842315D01*
X150037917Y-91840620D01*
X150037907Y-91840617D01*
X150028619Y-91836770D01*
X150028608Y-91836764D01*
X150024518Y-91835070D01*
X150008805Y-91824570D01*
X149995430Y-91811195D01*
X149984930Y-91795482D01*
X149983236Y-91791392D01*
X149983230Y-91791381D01*
X149979383Y-91782093D01*
X149979380Y-91782083D01*
X149977685Y-91777991D01*
X149973686Y-91757880D01*
X149973148Y-91746939D01*
X149973148Y-91593061D01*
X149973686Y-91582120D01*
X149977685Y-91562009D01*
X149979380Y-91557917D01*
X149979383Y-91557907D01*
X149983230Y-91548619D01*
X149983236Y-91548608D01*
X149984930Y-91544518D01*
X149995430Y-91528805D01*
X149996550Y-91527685D01*
X150012096Y-91508743D01*
X150023647Y-91487132D01*
X150030760Y-91463683D01*
X150033162Y-91439297D01*
X150030760Y-91414911D01*
X150023647Y-91391462D01*
X150012096Y-91369851D01*
X149996550Y-91350909D01*
X149987459Y-91342669D01*
X149981897Y-91338105D01*
X149978800Y-91334330D01*
X149976500Y-91330028D01*
X149975083Y-91325357D01*
X149974000Y-91314359D01*
X149974000Y-91025641D01*
X149975083Y-91014643D01*
X149976500Y-91009972D01*
X149978800Y-91005670D01*
X149984031Y-90999295D01*
X149997644Y-90978920D01*
X150007020Y-90956281D01*
X150011800Y-90932247D01*
X150011799Y-90907743D01*
X150007017Y-90883709D01*
X149997639Y-90861071D01*
X149984031Y-90840705D01*
X149978800Y-90834330D01*
X149976500Y-90830028D01*
X149975083Y-90825357D01*
X149974000Y-90814359D01*
X149974000Y-90525641D01*
X149975083Y-90514643D01*
X149976500Y-90509972D01*
X149978800Y-90505670D01*
X149984031Y-90499295D01*
X149997644Y-90478920D01*
X150007020Y-90456281D01*
X150011800Y-90432247D01*
X150011799Y-90407743D01*
X150007017Y-90383709D01*
X149997639Y-90361071D01*
X149984031Y-90340705D01*
X149978800Y-90334330D01*
X149976500Y-90330028D01*
X149975083Y-90325357D01*
X149974000Y-90314359D01*
X149974000Y-90025641D01*
X149975083Y-90014643D01*
X149976500Y-90009972D01*
X149978800Y-90005670D01*
X149984031Y-89999295D01*
X149997644Y-89978920D01*
X150007020Y-89956281D01*
X150011800Y-89932247D01*
X150011799Y-89907743D01*
X150007017Y-89883709D01*
X149997639Y-89861071D01*
X149984031Y-89840705D01*
X149978800Y-89834330D01*
X149976500Y-89830028D01*
X149975083Y-89825357D01*
X149974000Y-89814359D01*
X149974000Y-89525641D01*
X149975083Y-89514643D01*
X149976500Y-89509972D01*
X149978800Y-89505670D01*
X149984031Y-89499295D01*
X149997644Y-89478920D01*
X150007020Y-89456281D01*
X150011800Y-89432247D01*
X150011799Y-89407743D01*
X150007017Y-89383709D01*
X149997639Y-89361071D01*
X149984031Y-89340705D01*
X149978800Y-89334330D01*
X149976500Y-89330028D01*
X149975083Y-89325357D01*
X149974000Y-89314359D01*
X149974000Y-89025641D01*
X149975083Y-89014643D01*
X149976500Y-89009972D01*
X149978800Y-89005670D01*
X149981897Y-89001895D01*
X149987459Y-88997331D01*
X150004787Y-88980004D01*
X150018401Y-88959630D01*
X150027779Y-88936991D01*
X150032560Y-88912957D01*
X150032560Y-88888453D01*
X150028691Y-88868998D01*
X150796282Y-88868998D01*
X150798683Y-88893384D01*
X150805796Y-88916833D01*
X150817347Y-88938444D01*
X150832892Y-88957387D01*
X150851834Y-88972932D01*
X150873445Y-88984484D01*
X150896894Y-88991598D01*
X150913265Y-88993210D01*
X150913247Y-88993398D01*
X150930357Y-88995083D01*
X150935028Y-88996500D01*
X150939330Y-88998800D01*
X150943104Y-89001896D01*
X150946200Y-89005670D01*
X150948500Y-89009972D01*
X150949917Y-89014643D01*
X150951000Y-89025641D01*
X150951000Y-89314359D01*
X150949917Y-89325357D01*
X150948500Y-89330028D01*
X150946200Y-89334330D01*
X150940969Y-89340705D01*
X150927356Y-89361080D01*
X150917980Y-89383719D01*
X150913200Y-89407753D01*
X150913201Y-89432257D01*
X150917983Y-89456291D01*
X150927361Y-89478929D01*
X150940969Y-89499295D01*
X150946200Y-89505670D01*
X150948500Y-89509972D01*
X150949917Y-89514643D01*
X150951000Y-89525641D01*
X150951000Y-89814359D01*
X150949917Y-89825357D01*
X150948500Y-89830028D01*
X150946200Y-89834330D01*
X150940969Y-89840705D01*
X150927356Y-89861080D01*
X150917980Y-89883719D01*
X150913200Y-89907753D01*
X150913201Y-89932257D01*
X150917983Y-89956291D01*
X150927361Y-89978929D01*
X150940969Y-89999295D01*
X150946200Y-90005670D01*
X150948500Y-90009972D01*
X150949917Y-90014643D01*
X150951000Y-90025641D01*
X150951000Y-90314359D01*
X150949917Y-90325357D01*
X150948500Y-90330028D01*
X150946200Y-90334330D01*
X150940969Y-90340705D01*
X150927356Y-90361080D01*
X150917980Y-90383719D01*
X150913200Y-90407753D01*
X150913201Y-90432257D01*
X150917983Y-90456291D01*
X150927361Y-90478929D01*
X150940969Y-90499295D01*
X150946200Y-90505670D01*
X150948500Y-90509972D01*
X150949917Y-90514643D01*
X150951000Y-90525641D01*
X150951000Y-90814359D01*
X150949917Y-90825357D01*
X150948500Y-90830028D01*
X150946200Y-90834330D01*
X150940969Y-90840705D01*
X150927356Y-90861080D01*
X150917980Y-90883719D01*
X150913200Y-90907753D01*
X150913201Y-90932257D01*
X150917983Y-90956291D01*
X150927361Y-90978929D01*
X150940969Y-90999295D01*
X150946200Y-91005670D01*
X150948500Y-91009972D01*
X150949917Y-91014643D01*
X150951000Y-91025641D01*
X150951000Y-91314359D01*
X150949917Y-91325357D01*
X150948500Y-91330028D01*
X150946200Y-91334330D01*
X150943104Y-91338104D01*
X150939330Y-91341200D01*
X150935028Y-91343500D01*
X150930357Y-91344917D01*
X150913247Y-91346602D01*
X150913265Y-91346790D01*
X150896896Y-91348402D01*
X150873447Y-91355515D01*
X150851836Y-91367066D01*
X150832894Y-91382612D01*
X150817348Y-91401554D01*
X150805797Y-91423165D01*
X150798684Y-91446614D01*
X150796282Y-91471000D01*
X150798684Y-91495386D01*
X150805797Y-91518835D01*
X150817350Y-91540448D01*
X150820070Y-91544518D01*
X150821764Y-91548608D01*
X150821770Y-91548619D01*
X150825617Y-91557907D01*
X150825620Y-91557917D01*
X150827315Y-91562009D01*
X150831314Y-91582120D01*
X150831852Y-91593061D01*
X150831852Y-91613148D01*
X150834254Y-91637534D01*
X150841367Y-91660983D01*
X150852918Y-91682594D01*
X150868464Y-91701536D01*
X150887406Y-91717082D01*
X150909017Y-91728633D01*
X150932466Y-91735746D01*
X150956852Y-91738148D01*
X150976939Y-91738148D01*
X150987880Y-91738686D01*
X151007991Y-91742685D01*
X151012083Y-91744380D01*
X151012093Y-91744383D01*
X151021381Y-91748230D01*
X151021392Y-91748236D01*
X151025482Y-91749930D01*
X151029552Y-91752650D01*
X151051163Y-91764202D01*
X151074612Y-91771316D01*
X151098998Y-91773718D01*
X151123384Y-91771317D01*
X151146833Y-91764204D01*
X151168444Y-91752653D01*
X151187387Y-91737108D01*
X151202932Y-91718166D01*
X151214484Y-91696555D01*
X151221598Y-91673106D01*
X151223210Y-91656735D01*
X151223398Y-91656753D01*
X151225083Y-91639643D01*
X151226500Y-91634972D01*
X151228800Y-91630670D01*
X151231896Y-91626896D01*
X151235670Y-91623800D01*
X151239972Y-91621500D01*
X151244643Y-91620083D01*
X151255641Y-91619000D01*
X151544359Y-91619000D01*
X151555357Y-91620083D01*
X151560028Y-91621500D01*
X151564330Y-91623800D01*
X151570705Y-91629031D01*
X151591080Y-91642644D01*
X151613719Y-91652020D01*
X151637753Y-91656800D01*
X151662257Y-91656799D01*
X151686291Y-91652017D01*
X151708929Y-91642639D01*
X151729295Y-91629031D01*
X151735670Y-91623800D01*
X151739972Y-91621500D01*
X151744643Y-91620083D01*
X151755641Y-91619000D01*
X152044359Y-91619000D01*
X152055357Y-91620083D01*
X152060028Y-91621500D01*
X152064330Y-91623800D01*
X152070705Y-91629031D01*
X152091080Y-91642644D01*
X152113719Y-91652020D01*
X152137753Y-91656800D01*
X152162257Y-91656799D01*
X152186291Y-91652017D01*
X152208929Y-91642639D01*
X152229295Y-91629031D01*
X152235670Y-91623800D01*
X152239972Y-91621500D01*
X152244643Y-91620083D01*
X152255641Y-91619000D01*
X152544359Y-91619000D01*
X152555357Y-91620083D01*
X152560028Y-91621500D01*
X152564330Y-91623800D01*
X152570705Y-91629031D01*
X152591080Y-91642644D01*
X152613719Y-91652020D01*
X152637753Y-91656800D01*
X152662257Y-91656799D01*
X152686291Y-91652017D01*
X152708929Y-91642639D01*
X152729295Y-91629031D01*
X152735670Y-91623800D01*
X152739972Y-91621500D01*
X152744643Y-91620083D01*
X152755641Y-91619000D01*
X153044359Y-91619000D01*
X153055357Y-91620083D01*
X153060028Y-91621500D01*
X153064330Y-91623800D01*
X153070705Y-91629031D01*
X153091080Y-91642644D01*
X153113719Y-91652020D01*
X153137753Y-91656800D01*
X153162257Y-91656799D01*
X153186291Y-91652017D01*
X153208929Y-91642639D01*
X153229295Y-91629031D01*
X153235670Y-91623800D01*
X153239972Y-91621500D01*
X153244643Y-91620083D01*
X153255641Y-91619000D01*
X153544359Y-91619000D01*
X153555357Y-91620083D01*
X153560028Y-91621500D01*
X153564330Y-91623800D01*
X153568104Y-91626896D01*
X153571200Y-91630670D01*
X153573500Y-91634972D01*
X153574917Y-91639643D01*
X153576602Y-91656753D01*
X153576790Y-91656735D01*
X153578402Y-91673104D01*
X153585515Y-91696553D01*
X153597066Y-91718164D01*
X153612612Y-91737106D01*
X153631554Y-91752652D01*
X153653165Y-91764203D01*
X153676614Y-91771316D01*
X153701000Y-91773718D01*
X153725386Y-91771316D01*
X153748835Y-91764203D01*
X153770448Y-91752650D01*
X153774518Y-91749930D01*
X153778608Y-91748236D01*
X153778619Y-91748230D01*
X153787907Y-91744383D01*
X153787917Y-91744380D01*
X153792009Y-91742685D01*
X153812120Y-91738686D01*
X153823061Y-91738148D01*
X153843148Y-91738148D01*
X153867534Y-91735746D01*
X153890983Y-91728633D01*
X153912594Y-91717082D01*
X153931536Y-91701536D01*
X153947082Y-91682594D01*
X153958633Y-91660983D01*
X153965746Y-91637534D01*
X153968148Y-91613148D01*
X153968148Y-91593061D01*
X153968686Y-91582120D01*
X153972685Y-91562009D01*
X153974380Y-91557917D01*
X153974383Y-91557907D01*
X153978230Y-91548619D01*
X153978236Y-91548608D01*
X153979930Y-91544518D01*
X153982650Y-91540448D01*
X153994202Y-91518837D01*
X154001316Y-91495388D01*
X154003718Y-91471002D01*
X154001317Y-91446616D01*
X153994204Y-91423167D01*
X153982653Y-91401556D01*
X153967108Y-91382613D01*
X153948166Y-91367068D01*
X153926555Y-91355516D01*
X153903106Y-91348402D01*
X153886735Y-91346790D01*
X153886753Y-91346602D01*
X153869643Y-91344917D01*
X153864972Y-91343500D01*
X153860670Y-91341200D01*
X153856896Y-91338104D01*
X153853800Y-91334330D01*
X153851500Y-91330028D01*
X153850083Y-91325357D01*
X153849000Y-91314359D01*
X153849000Y-91025641D01*
X153850083Y-91014643D01*
X153851500Y-91009972D01*
X153853800Y-91005670D01*
X153859031Y-90999295D01*
X153872644Y-90978920D01*
X153882020Y-90956281D01*
X153886800Y-90932247D01*
X153886799Y-90907743D01*
X153882017Y-90883709D01*
X153872639Y-90861071D01*
X153859031Y-90840705D01*
X153853800Y-90834330D01*
X153851500Y-90830028D01*
X153850083Y-90825357D01*
X153849000Y-90814359D01*
X153849000Y-90525641D01*
X153850083Y-90514643D01*
X153851500Y-90509972D01*
X153853800Y-90505670D01*
X153859031Y-90499295D01*
X153872644Y-90478920D01*
X153882020Y-90456281D01*
X153886800Y-90432247D01*
X153886799Y-90407743D01*
X153882017Y-90383709D01*
X153872639Y-90361071D01*
X153859031Y-90340705D01*
X153853800Y-90334330D01*
X153851500Y-90330028D01*
X153850083Y-90325357D01*
X153849000Y-90314359D01*
X153849000Y-90025641D01*
X153850083Y-90014643D01*
X153851500Y-90009972D01*
X153853800Y-90005670D01*
X153859031Y-89999295D01*
X153872644Y-89978920D01*
X153882020Y-89956281D01*
X153886800Y-89932247D01*
X153886799Y-89907743D01*
X153882017Y-89883709D01*
X153872639Y-89861071D01*
X153859031Y-89840705D01*
X153853800Y-89834330D01*
X153851500Y-89830028D01*
X153850083Y-89825357D01*
X153849000Y-89814359D01*
X153849000Y-89525641D01*
X153850083Y-89514643D01*
X153851500Y-89509972D01*
X153853800Y-89505670D01*
X153859031Y-89499295D01*
X153872644Y-89478920D01*
X153882020Y-89456281D01*
X153886800Y-89432247D01*
X153886799Y-89407743D01*
X153882017Y-89383709D01*
X153872639Y-89361071D01*
X153859031Y-89340705D01*
X153853800Y-89334330D01*
X153851500Y-89330028D01*
X153850083Y-89325357D01*
X153849000Y-89314359D01*
X153849000Y-89025641D01*
X153850083Y-89014643D01*
X153851500Y-89009972D01*
X153853800Y-89005670D01*
X153856896Y-89001896D01*
X153860670Y-88998800D01*
X153864972Y-88996500D01*
X153869643Y-88995083D01*
X153886753Y-88993398D01*
X153886735Y-88993210D01*
X153903104Y-88991598D01*
X153926553Y-88984485D01*
X153948164Y-88972934D01*
X153967106Y-88957388D01*
X153982652Y-88938446D01*
X153994203Y-88916835D01*
X154001316Y-88893386D01*
X154003718Y-88869000D01*
X154001316Y-88844614D01*
X153994203Y-88821165D01*
X153982650Y-88799552D01*
X153979930Y-88795482D01*
X153978236Y-88791392D01*
X153978230Y-88791381D01*
X153974383Y-88782093D01*
X153974380Y-88782083D01*
X153972685Y-88777991D01*
X153968686Y-88757880D01*
X153968148Y-88746939D01*
X153968148Y-88726852D01*
X153965746Y-88702466D01*
X153958633Y-88679017D01*
X153947082Y-88657406D01*
X153931536Y-88638464D01*
X153912594Y-88622918D01*
X153890983Y-88611367D01*
X153867534Y-88604254D01*
X153843148Y-88601852D01*
X153823061Y-88601852D01*
X153812120Y-88601314D01*
X153792009Y-88597315D01*
X153787917Y-88595620D01*
X153787907Y-88595617D01*
X153778619Y-88591770D01*
X153778608Y-88591764D01*
X153774518Y-88590070D01*
X153770448Y-88587350D01*
X153748837Y-88575798D01*
X153725388Y-88568684D01*
X153701002Y-88566282D01*
X153676616Y-88568683D01*
X153653167Y-88575796D01*
X153631556Y-88587347D01*
X153612613Y-88602892D01*
X153597068Y-88621834D01*
X153585516Y-88643445D01*
X153578402Y-88666894D01*
X153576790Y-88683265D01*
X153576602Y-88683247D01*
X153574917Y-88700357D01*
X153573500Y-88705028D01*
X153571200Y-88709330D01*
X153568104Y-88713104D01*
X153564330Y-88716200D01*
X153560028Y-88718500D01*
X153555357Y-88719917D01*
X153544359Y-88721000D01*
X153255641Y-88721000D01*
X153244643Y-88719917D01*
X153239972Y-88718500D01*
X153235670Y-88716200D01*
X153229295Y-88710969D01*
X153208920Y-88697356D01*
X153186281Y-88687980D01*
X153162247Y-88683200D01*
X153137743Y-88683201D01*
X153113709Y-88687983D01*
X153091071Y-88697361D01*
X153070705Y-88710969D01*
X153064330Y-88716200D01*
X153060028Y-88718500D01*
X153055357Y-88719917D01*
X153044359Y-88721000D01*
X152755641Y-88721000D01*
X152744643Y-88719917D01*
X152739972Y-88718500D01*
X152735670Y-88716200D01*
X152729295Y-88710969D01*
X152708920Y-88697356D01*
X152686281Y-88687980D01*
X152662247Y-88683200D01*
X152637743Y-88683201D01*
X152613709Y-88687983D01*
X152591071Y-88697361D01*
X152570705Y-88710969D01*
X152564330Y-88716200D01*
X152560028Y-88718500D01*
X152555357Y-88719917D01*
X152544359Y-88721000D01*
X152255641Y-88721000D01*
X152244643Y-88719917D01*
X152239972Y-88718500D01*
X152235670Y-88716200D01*
X152229295Y-88710969D01*
X152208920Y-88697356D01*
X152186281Y-88687980D01*
X152162247Y-88683200D01*
X152137743Y-88683201D01*
X152113709Y-88687983D01*
X152091071Y-88697361D01*
X152070705Y-88710969D01*
X152064330Y-88716200D01*
X152060028Y-88718500D01*
X152055357Y-88719917D01*
X152044359Y-88721000D01*
X151755641Y-88721000D01*
X151744643Y-88719917D01*
X151739972Y-88718500D01*
X151735670Y-88716200D01*
X151729295Y-88710969D01*
X151708920Y-88697356D01*
X151686281Y-88687980D01*
X151662247Y-88683200D01*
X151637743Y-88683201D01*
X151613709Y-88687983D01*
X151591071Y-88697361D01*
X151570705Y-88710969D01*
X151564330Y-88716200D01*
X151560028Y-88718500D01*
X151555357Y-88719917D01*
X151544359Y-88721000D01*
X151255641Y-88721000D01*
X151244643Y-88719917D01*
X151239972Y-88718500D01*
X151235670Y-88716200D01*
X151231896Y-88713104D01*
X151228800Y-88709330D01*
X151226500Y-88705028D01*
X151225083Y-88700357D01*
X151223398Y-88683247D01*
X151223210Y-88683265D01*
X151221598Y-88666896D01*
X151214485Y-88643447D01*
X151202934Y-88621836D01*
X151187388Y-88602894D01*
X151168446Y-88587348D01*
X151146835Y-88575797D01*
X151123386Y-88568684D01*
X151099000Y-88566282D01*
X151074614Y-88568684D01*
X151051165Y-88575797D01*
X151029552Y-88587350D01*
X151025482Y-88590070D01*
X151021392Y-88591764D01*
X151021381Y-88591770D01*
X151012093Y-88595617D01*
X151012083Y-88595620D01*
X151007991Y-88597315D01*
X150987880Y-88601314D01*
X150976939Y-88601852D01*
X150956852Y-88601852D01*
X150932466Y-88604254D01*
X150909017Y-88611367D01*
X150887406Y-88622918D01*
X150868464Y-88638464D01*
X150852918Y-88657406D01*
X150841367Y-88679017D01*
X150834254Y-88702466D01*
X150831852Y-88726852D01*
X150831852Y-88746939D01*
X150831314Y-88757880D01*
X150827315Y-88777991D01*
X150825620Y-88782083D01*
X150825617Y-88782093D01*
X150821770Y-88791381D01*
X150821764Y-88791392D01*
X150820070Y-88795482D01*
X150817350Y-88799552D01*
X150805798Y-88821163D01*
X150798684Y-88844612D01*
X150796282Y-88868998D01*
X150028691Y-88868998D01*
X150027780Y-88864420D01*
X150018403Y-88841780D01*
X150004790Y-88821406D01*
X149996550Y-88812315D01*
X149995430Y-88811195D01*
X149984930Y-88795482D01*
X149983236Y-88791392D01*
X149983230Y-88791381D01*
X149979383Y-88782093D01*
X149979380Y-88782083D01*
X149977685Y-88777991D01*
X149973686Y-88757880D01*
X149973148Y-88746939D01*
X149973148Y-88593061D01*
X149973686Y-88582120D01*
X149977685Y-88562009D01*
X149979380Y-88557917D01*
X149979383Y-88557907D01*
X149983230Y-88548619D01*
X149983236Y-88548608D01*
X149984930Y-88544518D01*
X149995430Y-88528805D01*
X150008805Y-88515430D01*
X150024518Y-88504930D01*
X150028608Y-88503236D01*
X150028619Y-88503230D01*
X150037907Y-88499383D01*
X150037917Y-88499380D01*
X150042009Y-88497685D01*
X150062120Y-88493686D01*
X150073061Y-88493148D01*
X150598148Y-88493148D01*
X150622534Y-88490746D01*
X150645983Y-88483633D01*
X150667594Y-88472082D01*
X150686536Y-88456536D01*
X150702082Y-88437594D01*
X150713633Y-88415983D01*
X150720746Y-88392534D01*
X150723148Y-88368148D01*
X150723148Y-87843061D01*
X150723686Y-87832120D01*
X150727685Y-87812009D01*
X150729380Y-87807917D01*
X150729383Y-87807907D01*
X150733230Y-87798619D01*
X150733236Y-87798608D01*
X150734930Y-87794518D01*
X150745430Y-87778805D01*
X150758805Y-87765430D01*
X150774518Y-87754930D01*
X150778608Y-87753236D01*
X150778619Y-87753230D01*
X150787907Y-87749383D01*
X150787917Y-87749380D01*
X150792009Y-87747685D01*
X150812120Y-87743686D01*
X150823061Y-87743148D01*
X150976939Y-87743148D01*
X150987880Y-87743686D01*
X150987880Y-87743686D01*
G37*
G36*
X165210443Y-90545519D02*
X165276627Y-90552037D01*
X165375402Y-90582000D01*
X165446467Y-90603557D01*
X165536628Y-90651750D01*
X165602991Y-90687222D01*
X165628445Y-90708112D01*
X165740186Y-90799814D01*
X165809036Y-90883709D01*
X165852778Y-90937009D01*
X165852779Y-90937011D01*
X165936443Y-91093533D01*
X165936443Y-91093534D01*
X165987963Y-91263373D01*
X166005359Y-91440000D01*
X165987963Y-91616627D01*
X165953986Y-91728633D01*
X165936443Y-91786467D01*
X165904166Y-91846852D01*
X165852778Y-91942991D01*
X165835975Y-91963465D01*
X165740186Y-92080186D01*
X165638729Y-92163448D01*
X165602991Y-92192778D01*
X165602989Y-92192779D01*
X165446467Y-92276443D01*
X165389853Y-92293616D01*
X165276627Y-92327963D01*
X165210443Y-92334481D01*
X165144260Y-92341000D01*
X165055740Y-92341000D01*
X164989557Y-92334481D01*
X164923373Y-92327963D01*
X164810147Y-92293616D01*
X164753533Y-92276443D01*
X164597011Y-92192779D01*
X164597009Y-92192778D01*
X164561271Y-92163448D01*
X164459814Y-92080186D01*
X164364025Y-91963465D01*
X164347222Y-91942991D01*
X164295834Y-91846852D01*
X164263557Y-91786467D01*
X164246014Y-91728633D01*
X164212037Y-91616627D01*
X164194641Y-91440000D01*
X164212037Y-91263373D01*
X164263557Y-91093534D01*
X164263557Y-91093533D01*
X164347221Y-90937011D01*
X164347222Y-90937009D01*
X164390964Y-90883709D01*
X164459814Y-90799814D01*
X164571555Y-90708112D01*
X164597009Y-90687222D01*
X164663372Y-90651750D01*
X164753533Y-90603557D01*
X164824598Y-90582000D01*
X164923373Y-90552037D01*
X164989558Y-90545518D01*
X165055740Y-90539000D01*
X165144260Y-90539000D01*
X165210443Y-90545519D01*
X165210443Y-90545519D01*
G37*
G36*
X162670443Y-90545519D02*
X162736627Y-90552037D01*
X162835402Y-90582000D01*
X162906467Y-90603557D01*
X162996628Y-90651750D01*
X163062991Y-90687222D01*
X163088445Y-90708112D01*
X163200186Y-90799814D01*
X163269036Y-90883709D01*
X163312778Y-90937009D01*
X163312779Y-90937011D01*
X163396443Y-91093533D01*
X163396443Y-91093534D01*
X163447963Y-91263373D01*
X163465359Y-91440000D01*
X163447963Y-91616627D01*
X163413986Y-91728633D01*
X163396443Y-91786467D01*
X163364166Y-91846852D01*
X163312778Y-91942991D01*
X163295975Y-91963465D01*
X163200186Y-92080186D01*
X163098729Y-92163448D01*
X163062991Y-92192778D01*
X163062989Y-92192779D01*
X162906467Y-92276443D01*
X162849853Y-92293616D01*
X162736627Y-92327963D01*
X162670443Y-92334481D01*
X162604260Y-92341000D01*
X162515740Y-92341000D01*
X162449557Y-92334481D01*
X162383373Y-92327963D01*
X162270147Y-92293616D01*
X162213533Y-92276443D01*
X162057011Y-92192779D01*
X162057009Y-92192778D01*
X162021271Y-92163448D01*
X161919814Y-92080186D01*
X161824025Y-91963465D01*
X161807222Y-91942991D01*
X161755834Y-91846852D01*
X161723557Y-91786467D01*
X161706014Y-91728633D01*
X161672037Y-91616627D01*
X161654641Y-91440000D01*
X161672037Y-91263373D01*
X161723557Y-91093534D01*
X161723557Y-91093533D01*
X161807221Y-90937011D01*
X161807222Y-90937009D01*
X161850964Y-90883709D01*
X161919814Y-90799814D01*
X162031555Y-90708112D01*
X162057009Y-90687222D01*
X162123372Y-90651750D01*
X162213533Y-90603557D01*
X162284598Y-90582000D01*
X162383373Y-90552037D01*
X162449558Y-90545518D01*
X162515740Y-90539000D01*
X162604260Y-90539000D01*
X162670443Y-90545519D01*
X162670443Y-90545519D01*
G37*
G36*
X140710036Y-86567585D02*
X140791891Y-86601490D01*
X140865063Y-86650382D01*
X140865561Y-86650715D01*
X140928205Y-86713359D01*
X140928207Y-86713362D01*
X140977430Y-86787029D01*
X141011335Y-86868884D01*
X141028620Y-86955781D01*
X141028620Y-87044379D01*
X141011335Y-87131276D01*
X140992684Y-87176305D01*
X140985574Y-87199743D01*
X140983172Y-87224130D01*
X140985574Y-87248516D01*
X140992687Y-87271965D01*
X141004238Y-87293576D01*
X141019783Y-87312518D01*
X141038725Y-87328063D01*
X141060336Y-87339615D01*
X141083785Y-87346728D01*
X141108172Y-87349130D01*
X142481000Y-87349130D01*
X142481000Y-90450870D01*
X141106684Y-90450870D01*
X141082298Y-90453272D01*
X141058849Y-90460385D01*
X141037238Y-90471936D01*
X141018296Y-90487482D01*
X141002750Y-90506424D01*
X140991199Y-90528035D01*
X140984086Y-90551484D01*
X140981684Y-90575870D01*
X140984086Y-90600256D01*
X140991196Y-90623695D01*
X141008795Y-90666184D01*
X141026080Y-90753081D01*
X141026080Y-90841679D01*
X141008795Y-90928576D01*
X140974890Y-91010431D01*
X140938540Y-91064832D01*
X140925665Y-91084101D01*
X140863021Y-91146745D01*
X140863018Y-91146747D01*
X140789351Y-91195970D01*
X140707496Y-91229875D01*
X140620599Y-91247160D01*
X140532001Y-91247160D01*
X140445104Y-91229875D01*
X140363249Y-91195970D01*
X140289582Y-91146747D01*
X140289579Y-91146745D01*
X140226935Y-91084101D01*
X140214060Y-91064832D01*
X140177710Y-91010431D01*
X140143805Y-90928576D01*
X140126520Y-90841679D01*
X140126520Y-90753081D01*
X140143805Y-90666184D01*
X140177710Y-90584329D01*
X140226933Y-90510662D01*
X140226935Y-90510659D01*
X140289579Y-90448015D01*
X140290037Y-90447709D01*
X140323448Y-90425384D01*
X140342388Y-90409841D01*
X140357933Y-90390899D01*
X140369485Y-90369288D01*
X140376598Y-90345839D01*
X140379000Y-90321452D01*
X140379000Y-87474311D01*
X140376598Y-87449925D01*
X140369485Y-87426476D01*
X140357934Y-87404865D01*
X140342388Y-87385923D01*
X140323446Y-87370377D01*
X140292119Y-87349445D01*
X140229475Y-87286801D01*
X140203524Y-87247963D01*
X140180250Y-87213131D01*
X140146345Y-87131276D01*
X140129060Y-87044379D01*
X140129060Y-86955781D01*
X140146345Y-86868884D01*
X140180250Y-86787029D01*
X140229473Y-86713362D01*
X140229475Y-86713359D01*
X140292119Y-86650715D01*
X140292617Y-86650382D01*
X140365789Y-86601490D01*
X140447644Y-86567585D01*
X140534541Y-86550300D01*
X140623139Y-86550300D01*
X140710036Y-86567585D01*
X140710036Y-86567585D01*
G37*
G36*
X139429690Y-91098570D02*
X137430310Y-91098570D01*
X137430310Y-89099190D01*
X139429690Y-89099190D01*
X139429690Y-91098570D01*
X139429690Y-91098570D01*
G37*
G36*
X159424466Y-89423565D02*
X159463137Y-89435296D01*
X159498779Y-89454348D01*
X159530017Y-89479983D01*
X159555652Y-89511221D01*
X159574704Y-89546863D01*
X159586435Y-89585534D01*
X159591000Y-89631888D01*
X159591000Y-90708112D01*
X159586435Y-90754466D01*
X159574704Y-90793137D01*
X159555652Y-90828779D01*
X159530017Y-90860017D01*
X159498779Y-90885652D01*
X159463137Y-90904704D01*
X159424466Y-90916435D01*
X159378112Y-90921000D01*
X158726888Y-90921000D01*
X158680534Y-90916435D01*
X158641863Y-90904704D01*
X158606221Y-90885652D01*
X158574983Y-90860017D01*
X158549348Y-90828779D01*
X158530296Y-90793137D01*
X158518565Y-90754466D01*
X158514000Y-90708112D01*
X158514000Y-89631888D01*
X158518565Y-89585534D01*
X158530296Y-89546863D01*
X158549348Y-89511221D01*
X158574983Y-89479983D01*
X158606221Y-89454348D01*
X158641863Y-89435296D01*
X158680534Y-89423565D01*
X158726888Y-89419000D01*
X159378112Y-89419000D01*
X159424466Y-89423565D01*
X159424466Y-89423565D01*
G37*
G36*
X157549466Y-89423565D02*
X157588137Y-89435296D01*
X157623779Y-89454348D01*
X157655017Y-89479983D01*
X157680652Y-89511221D01*
X157699704Y-89546863D01*
X157711435Y-89585534D01*
X157716000Y-89631888D01*
X157716000Y-90708112D01*
X157711435Y-90754466D01*
X157699704Y-90793137D01*
X157680652Y-90828779D01*
X157655017Y-90860017D01*
X157623779Y-90885652D01*
X157588137Y-90904704D01*
X157549466Y-90916435D01*
X157503112Y-90921000D01*
X156851888Y-90921000D01*
X156805534Y-90916435D01*
X156766863Y-90904704D01*
X156731221Y-90885652D01*
X156699983Y-90860017D01*
X156674348Y-90828779D01*
X156655296Y-90793137D01*
X156643565Y-90754466D01*
X156639000Y-90708112D01*
X156639000Y-89631888D01*
X156643565Y-89585534D01*
X156655296Y-89546863D01*
X156674348Y-89511221D01*
X156699983Y-89479983D01*
X156731221Y-89454348D01*
X156766863Y-89435296D01*
X156805534Y-89423565D01*
X156851888Y-89419000D01*
X157503112Y-89419000D01*
X157549466Y-89423565D01*
X157549466Y-89423565D01*
G37*
G36*
X165210443Y-88005519D02*
X165276627Y-88012037D01*
X165389853Y-88046384D01*
X165446467Y-88063557D01*
X165536628Y-88111750D01*
X165602991Y-88147222D01*
X165624529Y-88164898D01*
X165740186Y-88259814D01*
X165810630Y-88345652D01*
X165852778Y-88397009D01*
X165852779Y-88397011D01*
X165936443Y-88553533D01*
X165945981Y-88584975D01*
X165987963Y-88723373D01*
X166005359Y-88900000D01*
X165987963Y-89076627D01*
X165965587Y-89150390D01*
X165936443Y-89246467D01*
X165883241Y-89346000D01*
X165852778Y-89402991D01*
X165835893Y-89423565D01*
X165740186Y-89540186D01*
X165661049Y-89605131D01*
X165602991Y-89652778D01*
X165602989Y-89652779D01*
X165446467Y-89736443D01*
X165389853Y-89753616D01*
X165276627Y-89787963D01*
X165210443Y-89794481D01*
X165144260Y-89801000D01*
X165055740Y-89801000D01*
X164989557Y-89794481D01*
X164923373Y-89787963D01*
X164810147Y-89753616D01*
X164753533Y-89736443D01*
X164597011Y-89652779D01*
X164597009Y-89652778D01*
X164538951Y-89605131D01*
X164459814Y-89540186D01*
X164364107Y-89423565D01*
X164347222Y-89402991D01*
X164316759Y-89346000D01*
X164263557Y-89246467D01*
X164234413Y-89150390D01*
X164212037Y-89076627D01*
X164194641Y-88900000D01*
X164212037Y-88723373D01*
X164254019Y-88584975D01*
X164263557Y-88553533D01*
X164347221Y-88397011D01*
X164347222Y-88397009D01*
X164389370Y-88345652D01*
X164459814Y-88259814D01*
X164575471Y-88164898D01*
X164597009Y-88147222D01*
X164663372Y-88111750D01*
X164753533Y-88063557D01*
X164810147Y-88046384D01*
X164923373Y-88012037D01*
X164989557Y-88005519D01*
X165055740Y-87999000D01*
X165144260Y-87999000D01*
X165210443Y-88005519D01*
X165210443Y-88005519D01*
G37*
G36*
X162670443Y-88005519D02*
X162736627Y-88012037D01*
X162849853Y-88046384D01*
X162906467Y-88063557D01*
X162996628Y-88111750D01*
X163062991Y-88147222D01*
X163084529Y-88164898D01*
X163200186Y-88259814D01*
X163270630Y-88345652D01*
X163312778Y-88397009D01*
X163312779Y-88397011D01*
X163396443Y-88553533D01*
X163405981Y-88584975D01*
X163447963Y-88723373D01*
X163465359Y-88900000D01*
X163447963Y-89076627D01*
X163425587Y-89150390D01*
X163396443Y-89246467D01*
X163343241Y-89346000D01*
X163312778Y-89402991D01*
X163295893Y-89423565D01*
X163200186Y-89540186D01*
X163121049Y-89605131D01*
X163062991Y-89652778D01*
X163062989Y-89652779D01*
X162906467Y-89736443D01*
X162849853Y-89753616D01*
X162736627Y-89787963D01*
X162670443Y-89794481D01*
X162604260Y-89801000D01*
X162515740Y-89801000D01*
X162449557Y-89794481D01*
X162383373Y-89787963D01*
X162270147Y-89753616D01*
X162213533Y-89736443D01*
X162057011Y-89652779D01*
X162057009Y-89652778D01*
X161998951Y-89605131D01*
X161919814Y-89540186D01*
X161824107Y-89423565D01*
X161807222Y-89402991D01*
X161776759Y-89346000D01*
X161723557Y-89246467D01*
X161694413Y-89150390D01*
X161672037Y-89076627D01*
X161654641Y-88900000D01*
X161672037Y-88723373D01*
X161714019Y-88584975D01*
X161723557Y-88553533D01*
X161807221Y-88397011D01*
X161807222Y-88397009D01*
X161849370Y-88345652D01*
X161919814Y-88259814D01*
X162035471Y-88164898D01*
X162057009Y-88147222D01*
X162123372Y-88111750D01*
X162213533Y-88063557D01*
X162270147Y-88046384D01*
X162383373Y-88012037D01*
X162449557Y-88005519D01*
X162515740Y-87999000D01*
X162604260Y-87999000D01*
X162670443Y-88005519D01*
X162670443Y-88005519D01*
G37*
G36*
X144853677Y-88153465D02*
X144891364Y-88164898D01*
X144926103Y-88183466D01*
X144956548Y-88208452D01*
X144981534Y-88238897D01*
X145000102Y-88273636D01*
X145011535Y-88311323D01*
X145016000Y-88356661D01*
X145016000Y-89443339D01*
X145011535Y-89488677D01*
X145000102Y-89526364D01*
X144981534Y-89561103D01*
X144956548Y-89591548D01*
X144926103Y-89616534D01*
X144891364Y-89635102D01*
X144853677Y-89646535D01*
X144808339Y-89651000D01*
X143971661Y-89651000D01*
X143926323Y-89646535D01*
X143888636Y-89635102D01*
X143853897Y-89616534D01*
X143823452Y-89591548D01*
X143798466Y-89561103D01*
X143779898Y-89526364D01*
X143768465Y-89488677D01*
X143764000Y-89443339D01*
X143764000Y-88356661D01*
X143768465Y-88311323D01*
X143779898Y-88273636D01*
X143798466Y-88238897D01*
X143823452Y-88208452D01*
X143853897Y-88183466D01*
X143888636Y-88164898D01*
X143926323Y-88153465D01*
X143971661Y-88149000D01*
X144808339Y-88149000D01*
X144853677Y-88153465D01*
X144853677Y-88153465D01*
G37*
G36*
X146903677Y-88153465D02*
X146941364Y-88164898D01*
X146976103Y-88183466D01*
X147006548Y-88208452D01*
X147031534Y-88238897D01*
X147050102Y-88273636D01*
X147061535Y-88311323D01*
X147066000Y-88356661D01*
X147066000Y-89443339D01*
X147061535Y-89488677D01*
X147050102Y-89526364D01*
X147031534Y-89561103D01*
X147006548Y-89591548D01*
X146976103Y-89616534D01*
X146941364Y-89635102D01*
X146903677Y-89646535D01*
X146858339Y-89651000D01*
X146021661Y-89651000D01*
X145976323Y-89646535D01*
X145938636Y-89635102D01*
X145903897Y-89616534D01*
X145873452Y-89591548D01*
X145848466Y-89561103D01*
X145829898Y-89526364D01*
X145818465Y-89488677D01*
X145814000Y-89443339D01*
X145814000Y-88356661D01*
X145818465Y-88311323D01*
X145829898Y-88273636D01*
X145848466Y-88238897D01*
X145873452Y-88208452D01*
X145903897Y-88183466D01*
X145938636Y-88164898D01*
X145976323Y-88153465D01*
X146021661Y-88149000D01*
X146858339Y-88149000D01*
X146903677Y-88153465D01*
X146903677Y-88153465D01*
G37*
G36*
X139429690Y-88700810D02*
X137430310Y-88700810D01*
X137430310Y-86701430D01*
X139429690Y-86701430D01*
X139429690Y-88700810D01*
X139429690Y-88700810D01*
G37*
G36*
X159424466Y-86883565D02*
X159463137Y-86895296D01*
X159498779Y-86914348D01*
X159530017Y-86939983D01*
X159555652Y-86971221D01*
X159574704Y-87006863D01*
X159586435Y-87045534D01*
X159591000Y-87091888D01*
X159591000Y-88168112D01*
X159586435Y-88214466D01*
X159574704Y-88253137D01*
X159555652Y-88288779D01*
X159530017Y-88320017D01*
X159498779Y-88345652D01*
X159463137Y-88364704D01*
X159424466Y-88376435D01*
X159378112Y-88381000D01*
X158726888Y-88381000D01*
X158680534Y-88376435D01*
X158641863Y-88364704D01*
X158606221Y-88345652D01*
X158574983Y-88320017D01*
X158549348Y-88288779D01*
X158530296Y-88253137D01*
X158518565Y-88214466D01*
X158514000Y-88168112D01*
X158514000Y-87091888D01*
X158518565Y-87045534D01*
X158530296Y-87006863D01*
X158549348Y-86971221D01*
X158574983Y-86939983D01*
X158606221Y-86914348D01*
X158641863Y-86895296D01*
X158680534Y-86883565D01*
X158726888Y-86879000D01*
X159378112Y-86879000D01*
X159424466Y-86883565D01*
X159424466Y-86883565D01*
G37*
G36*
X157549466Y-86883565D02*
X157588137Y-86895296D01*
X157623779Y-86914348D01*
X157655017Y-86939983D01*
X157680652Y-86971221D01*
X157699704Y-87006863D01*
X157711435Y-87045534D01*
X157716000Y-87091888D01*
X157716000Y-88168112D01*
X157711435Y-88214466D01*
X157699704Y-88253137D01*
X157680652Y-88288779D01*
X157655017Y-88320017D01*
X157623779Y-88345652D01*
X157588137Y-88364704D01*
X157549466Y-88376435D01*
X157503112Y-88381000D01*
X156851888Y-88381000D01*
X156805534Y-88376435D01*
X156766863Y-88364704D01*
X156731221Y-88345652D01*
X156699983Y-88320017D01*
X156674348Y-88288779D01*
X156655296Y-88253137D01*
X156643565Y-88214466D01*
X156639000Y-88168112D01*
X156639000Y-87091888D01*
X156643565Y-87045534D01*
X156655296Y-87006863D01*
X156674348Y-86971221D01*
X156699983Y-86939983D01*
X156731221Y-86914348D01*
X156766863Y-86895296D01*
X156805534Y-86883565D01*
X156851888Y-86879000D01*
X157503112Y-86879000D01*
X157549466Y-86883565D01*
X157549466Y-86883565D01*
G37*
G36*
X165210442Y-85465518D02*
X165276627Y-85472037D01*
X165389853Y-85506384D01*
X165446467Y-85523557D01*
X165531160Y-85568827D01*
X165602991Y-85607222D01*
X165634814Y-85633339D01*
X165740186Y-85719814D01*
X165801996Y-85795131D01*
X165852778Y-85857009D01*
X165852779Y-85857011D01*
X165936443Y-86013533D01*
X165936443Y-86013534D01*
X165987963Y-86183373D01*
X166005359Y-86360000D01*
X165987963Y-86536627D01*
X165983815Y-86550300D01*
X165936443Y-86706467D01*
X165862348Y-86845087D01*
X165852778Y-86862991D01*
X165835893Y-86883565D01*
X165740186Y-87000186D01*
X165638729Y-87083448D01*
X165602991Y-87112778D01*
X165602989Y-87112779D01*
X165446467Y-87196443D01*
X165391456Y-87213130D01*
X165276627Y-87247963D01*
X165210442Y-87254482D01*
X165144260Y-87261000D01*
X165055740Y-87261000D01*
X164989558Y-87254482D01*
X164923373Y-87247963D01*
X164808544Y-87213130D01*
X164753533Y-87196443D01*
X164597011Y-87112779D01*
X164597009Y-87112778D01*
X164561271Y-87083448D01*
X164459814Y-87000186D01*
X164364107Y-86883565D01*
X164347222Y-86862991D01*
X164337652Y-86845087D01*
X164263557Y-86706467D01*
X164216185Y-86550300D01*
X164212037Y-86536627D01*
X164194641Y-86360000D01*
X164212037Y-86183373D01*
X164263557Y-86013534D01*
X164263557Y-86013533D01*
X164347221Y-85857011D01*
X164347222Y-85857009D01*
X164398004Y-85795131D01*
X164459814Y-85719814D01*
X164565186Y-85633339D01*
X164597009Y-85607222D01*
X164668840Y-85568827D01*
X164753533Y-85523557D01*
X164810147Y-85506384D01*
X164923373Y-85472037D01*
X164989558Y-85465518D01*
X165055740Y-85459000D01*
X165144260Y-85459000D01*
X165210442Y-85465518D01*
X165210442Y-85465518D01*
G37*
G36*
X163461000Y-87261000D02*
X161659000Y-87261000D01*
X161659000Y-85459000D01*
X163461000Y-85459000D01*
X163461000Y-87261000D01*
X163461000Y-87261000D01*
G37*
G36*
X139429690Y-85949990D02*
X137430310Y-85949990D01*
X137430310Y-83950610D01*
X139429690Y-83950610D01*
X139429690Y-85949990D01*
X139429690Y-85949990D01*
G37*
G36*
X144853677Y-84343465D02*
X144891364Y-84354898D01*
X144926103Y-84373466D01*
X144956548Y-84398452D01*
X144981534Y-84428897D01*
X145000102Y-84463636D01*
X145011535Y-84501323D01*
X145016000Y-84546661D01*
X145016000Y-85633339D01*
X145011535Y-85678677D01*
X145000102Y-85716364D01*
X144981534Y-85751103D01*
X144956548Y-85781548D01*
X144926103Y-85806534D01*
X144891364Y-85825102D01*
X144853677Y-85836535D01*
X144808339Y-85841000D01*
X143971661Y-85841000D01*
X143926323Y-85836535D01*
X143888636Y-85825102D01*
X143853897Y-85806534D01*
X143823452Y-85781548D01*
X143798466Y-85751103D01*
X143779898Y-85716364D01*
X143768465Y-85678677D01*
X143764000Y-85633339D01*
X143764000Y-84546661D01*
X143768465Y-84501323D01*
X143779898Y-84463636D01*
X143798466Y-84428897D01*
X143823452Y-84398452D01*
X143853897Y-84373466D01*
X143888636Y-84354898D01*
X143926323Y-84343465D01*
X143971661Y-84339000D01*
X144808339Y-84339000D01*
X144853677Y-84343465D01*
X144853677Y-84343465D01*
G37*
G36*
X146903677Y-84343465D02*
X146941364Y-84354898D01*
X146976103Y-84373466D01*
X147006548Y-84398452D01*
X147031534Y-84428897D01*
X147050102Y-84463636D01*
X147061535Y-84501323D01*
X147066000Y-84546661D01*
X147066000Y-85633339D01*
X147061535Y-85678677D01*
X147050102Y-85716364D01*
X147031534Y-85751103D01*
X147006548Y-85781548D01*
X146976103Y-85806534D01*
X146941364Y-85825102D01*
X146903677Y-85836535D01*
X146858339Y-85841000D01*
X146021661Y-85841000D01*
X145976323Y-85836535D01*
X145938636Y-85825102D01*
X145903897Y-85806534D01*
X145873452Y-85781548D01*
X145848466Y-85751103D01*
X145829898Y-85716364D01*
X145818465Y-85678677D01*
X145814000Y-85633339D01*
X145814000Y-84546661D01*
X145818465Y-84501323D01*
X145829898Y-84463636D01*
X145848466Y-84428897D01*
X145873452Y-84398452D01*
X145903897Y-84373466D01*
X145938636Y-84354898D01*
X145976323Y-84343465D01*
X146021661Y-84339000D01*
X146858339Y-84339000D01*
X146903677Y-84343465D01*
X146903677Y-84343465D01*
G37*
G36*
X166001000Y-84721000D02*
X164199000Y-84721000D01*
X164199000Y-82919000D01*
X166001000Y-82919000D01*
X166001000Y-84721000D01*
X166001000Y-84721000D01*
G37*
M02*
