G04 #@! TF.GenerationSoftware,KiCad,Pcbnew,5.0.2-bee76a0~70~ubuntu16.04.1*
G04 #@! TF.CreationDate,2019-07-30T14:22:58+02:00*
G04 #@! TF.ProjectId,hw-DAP42,68772d44-4150-4343-922e-6b696361645f,rev?*
G04 #@! TF.SameCoordinates,Original*
G04 #@! TF.FileFunction,Legend,Top*
G04 #@! TF.FilePolarity,Positive*
%FSLAX46Y46*%
G04 Gerber Fmt 4.6, Leading zero omitted, Abs format (unit mm)*
G04 Created by KiCad (PCBNEW 5.0.2-bee76a0~70~ubuntu16.04.1) date Tue 30 Jul 2019 02:22:58 PM CEST*
%MOMM*%
%LPD*%
G01*
G04 APERTURE LIST*
%ADD10C,0.300000*%
%ADD11C,0.275000*%
%ADD12C,0.120000*%
%ADD13C,0.150000*%
%ADD14C,0.200660*%
G04 APERTURE END LIST*
D10*
X138110000Y-83092857D02*
X138110000Y-81892857D01*
X138395714Y-81892857D01*
X138567142Y-81950000D01*
X138681428Y-82064285D01*
X138738571Y-82178571D01*
X138795714Y-82407142D01*
X138795714Y-82578571D01*
X138738571Y-82807142D01*
X138681428Y-82921428D01*
X138567142Y-83035714D01*
X138395714Y-83092857D01*
X138110000Y-83092857D01*
X139310000Y-82464285D02*
X139710000Y-82464285D01*
X139881428Y-83092857D02*
X139310000Y-83092857D01*
X139310000Y-81892857D01*
X139881428Y-81892857D01*
X140224285Y-81892857D02*
X140624285Y-83092857D01*
X141024285Y-81892857D01*
X141424285Y-83092857D02*
X141424285Y-81892857D01*
X142681428Y-82978571D02*
X142624285Y-83035714D01*
X142452857Y-83092857D01*
X142338571Y-83092857D01*
X142167142Y-83035714D01*
X142052857Y-82921428D01*
X141995714Y-82807142D01*
X141938571Y-82578571D01*
X141938571Y-82407142D01*
X141995714Y-82178571D01*
X142052857Y-82064285D01*
X142167142Y-81950000D01*
X142338571Y-81892857D01*
X142452857Y-81892857D01*
X142624285Y-81950000D01*
X142681428Y-82007142D01*
X143195714Y-82464285D02*
X143595714Y-82464285D01*
X143767142Y-83092857D02*
X143195714Y-83092857D01*
X143195714Y-81892857D01*
X143767142Y-81892857D01*
X144281428Y-82978571D02*
X144338571Y-83035714D01*
X144281428Y-83092857D01*
X144224285Y-83035714D01*
X144281428Y-82978571D01*
X144281428Y-83092857D01*
X145252857Y-82464285D02*
X144852857Y-82464285D01*
X144852857Y-83092857D02*
X144852857Y-81892857D01*
X145424285Y-81892857D01*
X145824285Y-82750000D02*
X146395714Y-82750000D01*
X145710000Y-83092857D02*
X146110000Y-81892857D01*
X146510000Y-83092857D01*
X147595714Y-83092857D02*
X147195714Y-82521428D01*
X146910000Y-83092857D02*
X146910000Y-81892857D01*
X147367142Y-81892857D01*
X147481428Y-81950000D01*
X147538571Y-82007142D01*
X147595714Y-82121428D01*
X147595714Y-82292857D01*
X147538571Y-82407142D01*
X147481428Y-82464285D01*
X147367142Y-82521428D01*
X146910000Y-82521428D01*
X148110000Y-83092857D02*
X148110000Y-81892857D01*
X148510000Y-82750000D01*
X148910000Y-81892857D01*
X148910000Y-83092857D01*
D11*
X148773333Y-86320952D02*
X148773333Y-85797142D01*
X149087619Y-86425714D02*
X147987619Y-86059047D01*
X149087619Y-85692380D01*
X148982857Y-84697142D02*
X149035238Y-84749523D01*
X149087619Y-84906666D01*
X149087619Y-85011428D01*
X149035238Y-85168571D01*
X148930476Y-85273333D01*
X148825714Y-85325714D01*
X148616190Y-85378095D01*
X148459047Y-85378095D01*
X148249523Y-85325714D01*
X148144761Y-85273333D01*
X148040000Y-85168571D01*
X147987619Y-85011428D01*
X147987619Y-84906666D01*
X148040000Y-84749523D01*
X148092380Y-84697142D01*
X147987619Y-84382857D02*
X147987619Y-83754285D01*
X149087619Y-84068571D02*
X147987619Y-84068571D01*
X149087619Y-89711904D02*
X148563809Y-90078571D01*
X149087619Y-90340476D02*
X147987619Y-90340476D01*
X147987619Y-89921428D01*
X148040000Y-89816666D01*
X148092380Y-89764285D01*
X148197142Y-89711904D01*
X148354285Y-89711904D01*
X148459047Y-89764285D01*
X148511428Y-89816666D01*
X148563809Y-89921428D01*
X148563809Y-90340476D01*
X147987619Y-89240476D02*
X148878095Y-89240476D01*
X148982857Y-89188095D01*
X149035238Y-89135714D01*
X149087619Y-89030952D01*
X149087619Y-88821428D01*
X149035238Y-88716666D01*
X148982857Y-88664285D01*
X148878095Y-88611904D01*
X147987619Y-88611904D01*
X149087619Y-88088095D02*
X147987619Y-88088095D01*
X149087619Y-87459523D01*
X147987619Y-87459523D01*
X148982857Y-93521904D02*
X149035238Y-93574285D01*
X149087619Y-93731428D01*
X149087619Y-93836190D01*
X149035238Y-93993333D01*
X148930476Y-94098095D01*
X148825714Y-94150476D01*
X148616190Y-94202857D01*
X148459047Y-94202857D01*
X148249523Y-94150476D01*
X148144761Y-94098095D01*
X148040000Y-93993333D01*
X147987619Y-93836190D01*
X147987619Y-93731428D01*
X148040000Y-93574285D01*
X148092380Y-93521904D01*
X147987619Y-92840952D02*
X147987619Y-92631428D01*
X148040000Y-92526666D01*
X148144761Y-92421904D01*
X148354285Y-92369523D01*
X148720952Y-92369523D01*
X148930476Y-92421904D01*
X149035238Y-92526666D01*
X149087619Y-92631428D01*
X149087619Y-92840952D01*
X149035238Y-92945714D01*
X148930476Y-93050476D01*
X148720952Y-93102857D01*
X148354285Y-93102857D01*
X148144761Y-93050476D01*
X148040000Y-92945714D01*
X147987619Y-92840952D01*
X149087619Y-91898095D02*
X147987619Y-91898095D01*
X149087619Y-91269523D01*
X147987619Y-91269523D01*
D12*
G04 #@! TO.C,C2*
X141346422Y-95325000D02*
X141863578Y-95325000D01*
X141346422Y-93905000D02*
X141863578Y-93905000D01*
G04 #@! TO.C,C3*
X157856422Y-89460000D02*
X158373578Y-89460000D01*
X157856422Y-90880000D02*
X158373578Y-90880000D01*
G04 #@! TO.C,C4*
X157856422Y-88340000D02*
X158373578Y-88340000D01*
X157856422Y-86920000D02*
X158373578Y-86920000D01*
G04 #@! TO.C,R1*
X157856422Y-92000000D02*
X158373578Y-92000000D01*
X157856422Y-93420000D02*
X158373578Y-93420000D01*
G04 #@! TO.C,J3*
X161230000Y-92770000D02*
X163890000Y-92770000D01*
X161230000Y-87630000D02*
X161230000Y-92770000D01*
X163890000Y-87630000D02*
X163890000Y-92770000D01*
X161230000Y-87630000D02*
X163890000Y-87630000D01*
X161230000Y-86360000D02*
X161230000Y-85030000D01*
X161230000Y-85030000D02*
X162560000Y-85030000D01*
G04 #@! TO.C,U2*
X150515000Y-92280000D02*
X150290000Y-92280000D01*
X150290000Y-92280000D02*
X150290000Y-92055000D01*
X154285000Y-88060000D02*
X154510000Y-88060000D01*
X154510000Y-88060000D02*
X154510000Y-88285000D01*
X150515000Y-88060000D02*
X150290000Y-88060000D01*
X150290000Y-88060000D02*
X150290000Y-88285000D01*
X154285000Y-92280000D02*
X154510000Y-92280000D01*
D13*
G04 #@! TO.C,X1*
X153035000Y-93980000D02*
X153035000Y-96520000D01*
X150495000Y-93980000D02*
X158115000Y-93980000D01*
X158115000Y-93980000D02*
X158115000Y-96520000D01*
X158115000Y-96520000D02*
X150495000Y-96520000D01*
X150495000Y-96520000D02*
X150495000Y-93980000D01*
D12*
G04 #@! TO.C,D1*
X144415000Y-93670000D02*
X147275000Y-93670000D01*
X147275000Y-93670000D02*
X147275000Y-91750000D01*
X147275000Y-91750000D02*
X144415000Y-91750000D01*
G04 #@! TO.C,J2*
X163770000Y-95310000D02*
X166430000Y-95310000D01*
X163770000Y-85090000D02*
X163770000Y-95310000D01*
X166430000Y-85090000D02*
X166430000Y-95310000D01*
X163770000Y-85090000D02*
X166430000Y-85090000D01*
X163770000Y-83820000D02*
X163770000Y-82490000D01*
X163770000Y-82490000D02*
X165100000Y-82490000D01*
G04 #@! TO.C,D2*
X147275000Y-87940000D02*
X144415000Y-87940000D01*
X147275000Y-89860000D02*
X147275000Y-87940000D01*
X144415000Y-89860000D02*
X147275000Y-89860000D01*
G04 #@! TO.C,D3*
X144415000Y-86050000D02*
X147275000Y-86050000D01*
X147275000Y-86050000D02*
X147275000Y-84130000D01*
X147275000Y-84130000D02*
X144415000Y-84130000D01*
D14*
G04 #@! TO.C,J1*
X136431020Y-84698840D02*
X136431020Y-93101160D01*
X136329420Y-84698840D02*
X136329420Y-93101160D01*
X136329420Y-93101160D02*
X136530080Y-93101160D01*
X136530080Y-93101160D02*
X136530080Y-84698840D01*
X136530080Y-84698840D02*
X136329420Y-84698840D01*
X136329420Y-85001100D02*
X141330680Y-85001100D01*
X141330680Y-85001100D02*
X141330680Y-92798900D01*
X141330680Y-92798900D02*
X136329420Y-92798900D01*
G04 #@! TO.C,C2*
D13*
X138263333Y-95607142D02*
X138215714Y-95654761D01*
X138072857Y-95702380D01*
X137977619Y-95702380D01*
X137834761Y-95654761D01*
X137739523Y-95559523D01*
X137691904Y-95464285D01*
X137644285Y-95273809D01*
X137644285Y-95130952D01*
X137691904Y-94940476D01*
X137739523Y-94845238D01*
X137834761Y-94750000D01*
X137977619Y-94702380D01*
X138072857Y-94702380D01*
X138215714Y-94750000D01*
X138263333Y-94797619D01*
X138644285Y-94797619D02*
X138691904Y-94750000D01*
X138787142Y-94702380D01*
X139025238Y-94702380D01*
X139120476Y-94750000D01*
X139168095Y-94797619D01*
X139215714Y-94892857D01*
X139215714Y-94988095D01*
X139168095Y-95130952D01*
X138596666Y-95702380D01*
X139215714Y-95702380D01*
G04 #@! TO.C,C3*
X159218333Y-86082142D02*
X159170714Y-86129761D01*
X159027857Y-86177380D01*
X158932619Y-86177380D01*
X158789761Y-86129761D01*
X158694523Y-86034523D01*
X158646904Y-85939285D01*
X158599285Y-85748809D01*
X158599285Y-85605952D01*
X158646904Y-85415476D01*
X158694523Y-85320238D01*
X158789761Y-85225000D01*
X158932619Y-85177380D01*
X159027857Y-85177380D01*
X159170714Y-85225000D01*
X159218333Y-85272619D01*
X159551666Y-85177380D02*
X160170714Y-85177380D01*
X159837380Y-85558333D01*
X159980238Y-85558333D01*
X160075476Y-85605952D01*
X160123095Y-85653571D01*
X160170714Y-85748809D01*
X160170714Y-85986904D01*
X160123095Y-86082142D01*
X160075476Y-86129761D01*
X159980238Y-86177380D01*
X159694523Y-86177380D01*
X159599285Y-86129761D01*
X159551666Y-86082142D01*
G04 #@! TO.C,C4*
X159218333Y-84177142D02*
X159170714Y-84224761D01*
X159027857Y-84272380D01*
X158932619Y-84272380D01*
X158789761Y-84224761D01*
X158694523Y-84129523D01*
X158646904Y-84034285D01*
X158599285Y-83843809D01*
X158599285Y-83700952D01*
X158646904Y-83510476D01*
X158694523Y-83415238D01*
X158789761Y-83320000D01*
X158932619Y-83272380D01*
X159027857Y-83272380D01*
X159170714Y-83320000D01*
X159218333Y-83367619D01*
X160075476Y-83605714D02*
X160075476Y-84272380D01*
X159837380Y-83224761D02*
X159599285Y-83939047D01*
X160218333Y-83939047D01*
G04 #@! TO.C,R1*
X159853333Y-95067380D02*
X159520000Y-94591190D01*
X159281904Y-95067380D02*
X159281904Y-94067380D01*
X159662857Y-94067380D01*
X159758095Y-94115000D01*
X159805714Y-94162619D01*
X159853333Y-94257857D01*
X159853333Y-94400714D01*
X159805714Y-94495952D01*
X159758095Y-94543571D01*
X159662857Y-94591190D01*
X159281904Y-94591190D01*
X160805714Y-95067380D02*
X160234285Y-95067380D01*
X160520000Y-95067380D02*
X160520000Y-94067380D01*
X160424761Y-94210238D01*
X160329523Y-94305476D01*
X160234285Y-94353095D01*
G04 #@! TO.C,U2*
X151638095Y-89622380D02*
X151638095Y-90431904D01*
X151685714Y-90527142D01*
X151733333Y-90574761D01*
X151828571Y-90622380D01*
X152019047Y-90622380D01*
X152114285Y-90574761D01*
X152161904Y-90527142D01*
X152209523Y-90431904D01*
X152209523Y-89622380D01*
X152638095Y-89717619D02*
X152685714Y-89670000D01*
X152780952Y-89622380D01*
X153019047Y-89622380D01*
X153114285Y-89670000D01*
X153161904Y-89717619D01*
X153209523Y-89812857D01*
X153209523Y-89908095D01*
X153161904Y-90050952D01*
X152590476Y-90622380D01*
X153209523Y-90622380D01*
G04 #@! TD*
M02*
